<svg width="15" height="26" viewBox="0 0 15 26" fill="none" xmlns="http://www.w3.org/2000/svg">
<path d="M12.2632 0.390625H2.73695C2.21077 0.391216 1.70632 0.6005 1.33426 0.972561C0.962194 1.34462 0.75291 1.84908 0.752319 2.37525V23.0154C0.75291 23.5415 0.962194 24.046 1.33426 24.4181C1.70632 24.7901 2.21077 24.9994 2.73695 25H12.2632C12.7893 24.9994 13.2938 24.7901 13.6658 24.4181C14.0379 24.046 14.2472 23.5415 14.2478 23.0154V2.37525C14.2472 1.84908 14.0379 1.34462 13.6658 0.972561C13.2938 0.6005 12.7893 0.391216 12.2632 0.390625V0.390625ZM10.1913 1.18448L9.95315 2.37525H5.047L4.80885 1.18448H10.1913ZM13.4539 23.0154C13.4536 23.3311 13.328 23.6337 13.1048 23.857C12.8815 24.0802 12.5789 24.2058 12.2632 24.2061H2.73695C2.42124 24.2058 2.11857 24.0802 1.89533 23.857C1.67209 23.6337 1.54652 23.3311 1.54617 23.0154V2.37525C1.54652 2.05955 1.67209 1.75687 1.89533 1.53364C2.11857 1.3104 2.42124 1.18483 2.73695 1.18448H3.99922L4.33234 2.85002C4.35034 2.94 4.39895 3.02097 4.46992 3.07914C4.54088 3.13732 4.62981 3.16911 4.72157 3.1691H10.2785C10.3703 3.16911 10.4592 3.13732 10.5302 3.07914C10.6012 3.02097 10.6498 2.94 10.6678 2.85002L11.0009 1.18448H12.2632C12.5789 1.18483 12.8815 1.3104 13.1048 1.53364C13.328 1.75687 13.4536 2.05955 13.4539 2.37525V23.0154Z" fill="black" stroke="black" stroke-width="0.5"/>
</svg>
