<svg width="16" height="16" viewBox="0 0 16 16" fill="none" xmlns="http://www.w3.org/2000/svg">
<path d="M1.59637 16C1.11262 16 0.725624 15.8769 0.435374 15.6308C0.169312 15.3641 0.0362812 15.0154 0.0362812 14.5846C0.0362812 14.2769 0.157218 13.9897 0.399093 13.7231L6.02268 8.09231L0.399093 2.27692C0.133031 1.98974 0 1.69231 0 1.38462C0 0.974359 0.157218 0.646155 0.471655 0.4C0.786092 0.133333 1.17309 0 1.63265 0C2.21315 0 2.64853 0.174359 2.93878 0.523077L8.01814 5.84615L13.0612 0.523077C13.3515 0.174359 13.7748 0 14.3311 0C14.8148 0 15.2139 0.133333 15.5283 0.4C15.8428 0.646155 16 0.953848 16 1.32308C16 1.63077 15.8791 1.91795 15.6372 2.18462L9.90476 7.90769L15.5646 13.6923C15.8307 13.9385 15.9637 14.2359 15.9637 14.5846C15.9637 14.9744 15.8186 15.3128 15.5283 15.6C15.2381 15.8667 14.8269 16 14.2948 16C13.7627 16 13.3394 15.8154 13.0249 15.4462L7.87302 10.2154L3.01134 15.3846C2.64853 15.7949 2.17687 16 1.59637 16Z" fill="#2D2D2D"/>
</svg>
