<svg width="15" height="15" viewBox="0 0 15 15" fill="none" xmlns="http://www.w3.org/2000/svg">
<path fill-rule="evenodd" clip-rule="evenodd" d="M4.64455 6.17815L10.1567 0.675153C11.0594 -0.225051 12.5223 -0.225051 13.425 0.675153L14.3228 1.57151C15.2256 2.47276 15.2256 3.9345 14.3228 4.83478L8.78433 10.3641C8.38029 10.7674 7.8324 10.9942 7.26099 10.9942H4.49801C4.18711 10.9942 3.93727 10.7384 3.945 10.4282L4.01434 7.64456C4.02824 7.0933 4.25377 6.56827 4.64455 6.17815ZM13.5406 2.35252L12.6431 1.45658C12.1724 0.987164 11.4094 0.987164 10.9389 1.45637L10.4855 1.90897L13.0872 4.50634L13.5408 4.05354C14.0112 3.58441 14.0112 2.82235 13.5406 2.35252ZM12.3049 5.28737L9.70321 2.68999L5.42694 6.95915C5.23688 7.1489 5.12719 7.40425 5.12043 7.67218L5.0647 9.88894L7.26106 9.88961C7.50422 9.88961 7.73866 9.80518 7.92519 9.65257L8.00209 9.58304L12.3049 5.28737ZM7.00111 0.0283813C7.30662 0.0283813 7.55429 0.27564 7.55429 0.580648C7.55429 0.860239 7.34618 1.0913 7.07617 1.12787L7.00111 1.13291H4.2433C2.38345 1.13291 1.17878 2.36462 1.10952 4.27739L1.10637 4.45314V10.5752C1.10637 12.5314 2.25246 13.8181 4.0757 13.8921L4.2433 13.8954H10.7517C12.6162 13.8954 13.8172 12.6664 13.8862 10.7512L13.8894 10.5752V7.60916C13.8894 7.30415 14.137 7.05689 14.4425 7.05689C14.7226 7.05689 14.9541 7.26466 14.9907 7.53422L14.9957 7.60916V10.5752C14.9957 13.1245 13.3782 14.917 10.9243 14.9972L10.7517 15H4.2433C1.75148 15 0.077421 13.2653 0.00261444 10.7518L0 10.5752V4.45314C0 1.9063 1.62169 0.111456 4.07108 0.0311875L4.2433 0.0283813H7.00111Z" fill="#2D2D2D"/>
</svg>
