<svg width="171" height="108" viewBox="0 0 171 108" fill="none" xmlns="http://www.w3.org/2000/svg">
<path d="M169.561 97.1246C169.063 98.2288 168.415 99.3121 167.358 99.96C166.558 100.45 165.608 100.705 164.695 100.885C162.242 101.368 159.686 101.51 157.203 101.794C151.672 102.427 146.14 103.05 140.603 103.633C129.588 104.791 118.553 105.792 107.493 106.402C96.4516 107.011 85.3748 107.244 74.3204 106.825C68.9641 106.623 63.6137 106.212 58.2677 105.828C44.006 104.8 29.6995 103.496 15.3995 104.108C14.5637 104.144 13.7089 104.141 12.878 104.24C12.2756 104.312 11.3335 104.737 10.7489 104.617C10.6193 104.597 11.0062 103.181 11.1189 103.034C12.5607 101.141 15.4055 100.306 17.4959 99.3618C20.1589 98.1593 22.8651 97.0521 25.6076 96.0437C33.5898 93.1085 41.8331 91.1702 50.1947 89.6778C60.3547 88.0935 70.6174 87.3299 80.8668 86.5837C91.5775 85.8042 102.316 85.1285 113.047 84.7114C124.014 84.2859 135.001 84.1315 145.965 84.6767C151.412 84.9468 156.851 85.3921 162.263 86.0658C164.543 86.3503 167.48 86.3617 169.351 87.884C172.145 90.1599 170.808 94.3597 169.561 97.1246Z" fill="#7E30D3"/>
<path d="M88.5671 71.3773C88.1042 68.796 87.4203 66.2545 86.5179 63.7919C83.3672 67.3453 79.9895 70.8147 75.8226 73.0946C71.6557 75.3745 66.5496 76.3401 62.0997 74.6794C69.0468 75.8099 76.498 73.0678 81.0533 67.7037C82.5095 65.9894 83.7004 63.9816 84.0888 61.7663C84.7642 57.9105 82.9371 54.0459 80.6545 50.8654C78.3719 47.6849 75.5678 44.8405 73.8255 41.3348C72.7434 46.3419 71.6234 51.417 69.2355 55.9494C66.8476 60.4823 62.9951 64.4835 58.0709 65.9005C64.1389 62.4216 68.798 56.5606 70.8174 49.8655C71.7267 46.8508 72.1126 43.6048 71.3567 40.5479C70.2949 36.2548 67.1258 32.8032 63.7381 29.9593C60.3505 27.1154 56.6028 24.6454 53.7103 21.2991C58.1091 33.4387 56.7155 47.5359 50.0247 58.5798C53.682 49.8679 56.2914 40.3394 54.7577 31.0168C53.2241 21.6943 46.6921 12.7158 37.4629 10.6832C41.2603 19.054 42.2744 28.659 40.3082 37.638C40.1582 32.3588 39.9998 26.9794 39.1272 21.8333C38.6817 19.2054 38.0142 16.6028 36.8987 14.174C34.7433 9.47973 30.5421 5.38669 25.4063 4.82318C28.6563 11.3584 29.889 18.8797 28.8952 26.1101C28.0147 20.4819 27.0527 14.739 24.3395 9.72996C21.6273 4.72091 16.8013 0.493817 11.1217 0.0330777C8.06876 -0.214669 4.62152 0.922286 3.28951 3.67977C1.6302 7.11546 3.90039 11.0968 6.25798 14.0971C19.811 31.344 39.369 44.0074 49.2285 63.6003C37.9298 46.1473 22.2625 31.5451 4.05584 21.4992C11.6844 27.4739 19.1619 33.7808 25.1321 41.4123C31.1023 49.0438 35.526 58.1449 36.2789 67.8035C37.0318 77.4622 33.75 87.6724 26.4592 94.0548C45.1575 90.6896 64.5129 87.3373 82.9743 91.8241C83.8767 92.0435 84.8258 92.2813 85.7208 92.0326C87.5067 91.5356 88.2279 89.4275 88.5596 87.6039C89.5336 82.2538 89.5266 76.7299 88.5671 71.3773Z" fill="#FF6900"/>
<path d="M149.332 8.441C148.072 7.94749 146.723 7.65506 145.381 7.56966C141.751 7.3383 138.156 8.43653 134.837 9.92301C126.901 13.4769 120.159 19.2247 113.934 25.2957C108.707 30.3947 103.722 35.8232 99.916 42.0551C96.1102 48.287 93.5142 55.3952 93.3906 62.6956C93.2669 69.9959 95.7948 77.4835 101.014 82.5918C102.868 84.4065 105.119 85.9406 107.677 86.379C110.021 86.7807 112.416 86.2355 114.713 85.6199C126.032 82.5849 137.323 77.3693 144.407 68.0368C146.15 65.74 147.658 62.7358 146.557 60.0717C145.584 57.7203 142.95 56.5684 140.5 55.8798C135.063 54.3516 129.304 53.9808 123.717 54.7995C127.794 52.034 131.871 49.2691 135.948 46.5037C130.411 46.6328 124.874 44.0724 121.387 39.7713C124.989 42.5526 128.987 45.4705 133.538 45.3568C136.77 45.2759 139.802 43.6166 142.163 41.4067C144.524 39.1969 146.308 36.4563 148.069 33.7449C141.796 36.0298 134.641 35.784 128.54 33.0742C133.471 34.3209 138.677 35.22 143.613 33.9917C148.549 32.7639 153.141 28.9181 153.805 23.8768C148.251 26.5628 141.783 27.314 135.761 25.9729C139.608 26.8299 144.575 25.6597 148.196 24.3767C151.531 23.1951 154.743 22.1495 155.481 18.3583C155.854 16.4414 155.531 14.3646 154.535 12.6785C153.369 10.705 151.479 9.28155 149.332 8.441Z" fill="#00A2AF"/>
<path d="M64.2835 66.5892C65.0071 63.6807 65.7307 60.7728 67.5847 58.3316C68.363 57.2751 69.3185 56.4365 70.3714 55.7265C66.813 52.3638 62.7355 49.5542 58.3386 47.391C57.5688 49.1252 57.0826 51.0154 56.6823 52.9149C56.3118 54.735 56.4429 56.579 56.9565 58.3346C55.7764 56.1748 54.8253 53.9317 54.5596 51.4374C54.361 49.4877 54.352 47.5951 54.5 45.699C50.2517 44.0352 45.7764 42.9539 41.236 42.5319C41.1183 45.836 41.8628 49.1724 43.4883 52.0694C41.4531 49.6267 40.2904 46.7351 39.1625 43.7269C38.9927 43.2811 38.8452 42.8268 38.724 42.3661C38.2527 42.3477 37.7814 42.3358 37.3095 42.3318C33.9179 42.3035 27.0984 42.7389 25.2256 46.3111C23.6224 49.369 27.1263 56.2975 29.2579 58.5466C31.8946 61.3284 35.7784 62.4494 39.1874 64.203C39.6835 64.4582 40.1707 64.7293 40.649 65.0153C41.1288 64.2874 41.6646 63.5983 42.2671 62.9603C42.4166 62.802 42.4096 62.5711 42.5591 62.4127C44.3823 60.2421 46.4851 58.41 49.0677 57.1797C49.1074 57.217 49.1864 57.2919 49.2261 57.3292C47.5648 58.4557 45.9433 59.6195 44.6798 61.1963C43.5127 62.6466 42.6639 64.2358 42.0491 65.9119C45.4168 68.2166 48.2641 71.2785 50.3436 74.7911C52.7911 71.9328 56.5442 70.9999 60.285 70.7487C60.362 70.7462 60.5135 70.6648 60.6277 70.6231C59.5266 71.1558 58.2999 71.3455 57.1963 71.8013C55.8271 72.3802 54.6605 73.2997 53.5331 74.2564C52.7379 74.9614 51.9711 75.6754 51.2296 76.4072C52.061 78.0506 52.7285 79.7768 53.2083 81.5568C54.203 85.2452 54.6331 89.4931 57.5927 91.91C59.9587 93.8423 63.4263 93.9868 66.2895 92.9218C69.1532 91.8569 71.5078 89.7557 73.5813 87.5121C76.7757 84.0556 79.5659 79.9233 80.0576 75.2434C80.6794 69.3228 77.5157 63.6276 73.6225 59.123C73.3066 58.7571 72.9838 58.3976 72.6565 58.0421C69.1631 60.1021 66.1653 62.9569 64.2835 66.5892Z" fill="#CCECEF"/>
<path d="M141.022 63.921C141.793 63.4831 142.722 63.0685 143.534 63.424C144.251 63.7378 144.615 64.5818 144.6 65.3648C144.585 66.1478 144.267 66.8885 143.953 67.6059C146.619 62.4062 152.069 58.7417 157.892 58.2342C159.317 58.1101 160.92 58.2313 161.903 59.2694C163.108 60.5429 162.828 62.6609 161.921 64.1623C160.714 66.1617 158.671 67.4754 156.8 68.8725C154.928 70.2696 153.066 71.9696 152.532 74.243C154.191 73.8155 155.904 73.3845 157.6 73.6298C159.296 73.8751 160.989 74.9703 161.396 76.6345C161.787 78.2303 160.919 79.8811 159.799 81.0831C157.262 83.8048 153.462 85.0227 149.754 85.3459C146.047 85.6691 142.321 85.2079 138.6 85.12C135.325 85.0425 131.932 85.2675 128.881 86.5588C128.035 86.9168 126.78 87.9947 125.886 87.2638C125.187 86.6919 125.357 85.2119 125.465 84.4527C126.222 79.113 129.894 73.6417 133.521 69.8158C135.716 67.5007 138.245 65.4979 141.022 63.921Z" fill="#CCECEF"/>
<path d="M167.503 79.1307C166.085 82.1509 162.388 83.5088 159.056 83.3126C155.725 83.1165 152.607 81.706 149.473 80.5591C145.091 78.955 140.407 77.8255 135.775 78.3979C131.144 78.9704 126.562 81.493 124.468 85.6625C127.356 83.115 132.146 83.2158 135.866 84.2148C139.587 85.2142 143.037 87.0884 146.788 87.9618C152.903 89.3857 159.627 87.927 164.601 84.0971C166.217 82.8539 167.686 81.1609 167.503 79.1307Z" fill="#037D87"/>
<path d="M115.584 61.5528C115.596 60.0554 115.73 58.4904 116.522 57.2199C117.314 55.9494 118.947 55.0895 120.345 55.6252C121.659 56.1287 122.518 57.706 123.924 57.7264C125.584 57.7502 126.352 55.6769 126.472 54.0226C126.627 51.8911 126.493 49.7394 126.078 47.6432C125.586 45.1628 124.696 42.6764 125.046 40.1721C125.397 37.6678 127.625 35.1645 130.101 35.6843C131.605 36.0001 132.723 37.3461 133.206 38.8048C133.689 40.2634 133.652 41.8358 133.609 43.3714C133.541 45.7998 133.473 48.2281 133.405 50.6564C133.393 51.0963 133.392 51.5734 133.656 51.9259C134.168 52.6106 135.302 52.3405 135.904 51.7333C136.506 51.1266 136.839 50.2865 137.471 49.7101C138.603 48.6779 140.495 48.805 141.693 49.7602C142.891 50.7155 143.447 52.3077 143.455 53.8394C143.464 55.371 142.992 56.8635 142.446 58.2943C140.806 62.5949 138.474 66.5916 136.151 70.566C133.889 74.4376 130.498 80.9024 125.493 81.5945C120.25 82.3198 117.976 74.8417 116.882 71.0128C116.005 67.9426 115.558 64.7467 115.584 61.5528Z" fill="#CCECEF"/>
<path d="M122.933 92.2341C119.098 86.1368 119.736 77.9696 123.124 71.614C126.513 65.2585 132.265 60.4764 138.366 56.6469C142.065 54.3254 145.956 52.2813 149.399 49.5943C152.841 46.9074 155.872 43.4588 157.128 39.2769C157.922 43.7219 158.866 48.3993 158.365 52.8871C157.725 58.6101 155.035 64.0069 151.216 68.3174C147.397 72.6284 142.49 75.8928 137.229 78.2377C134.46 79.4719 131.547 80.4833 129.102 82.2766C126.052 84.5143 123.896 87.9375 123.195 91.6552C123.066 91.3097 123.129 92.5464 122.933 92.2341Z" fill="#FF6900"/>
<path d="M133.813 90.2329C133.851 89.8744 133.848 89.51 133.811 89.1669C133.571 86.9426 132.536 84.8872 131.405 82.9568C130.174 80.8547 128.755 78.7774 126.731 77.4215C124.707 76.0656 121.947 75.5686 119.816 76.7502C118.921 77.2462 118.053 78.0401 117.039 77.8976C115.945 77.7442 115.333 76.6003 114.519 75.8536C112.88 74.3512 110.21 74.5017 108.3 75.6416C106.391 76.7815 105.089 78.6935 103.94 80.5975C100.193 79.0182 95.4069 80.53 93.2475 83.9746C92.5249 85.1275 92.0819 86.5936 92.6093 87.8482C92.8854 86.8001 93.6741 85.9 94.6774 85.4889C96.9212 84.5689 98.663 86.6606 100.869 86.4799C101.975 86.389 103.061 85.9119 103.809 85.0798C104.599 84.2005 105.003 83.0477 105.64 82.0517C106.277 81.0558 107.325 80.1517 108.501 80.2852C110.442 80.5052 111.223 83.2527 113.135 83.6594C114.445 83.9384 115.662 83.001 116.908 82.5105C119.274 81.5791 122.053 82.3059 124.093 83.8237C126.133 85.3415 127.549 87.5444 128.741 89.7895C129.125 90.5134 129.502 91.2616 130.096 91.8266C130.689 92.3916 131.559 92.7441 132.341 92.4968C133.267 92.2034 133.704 91.2427 133.813 90.2329Z" fill="#037D87"/>
<path d="M14.3386 83.9875C13.9309 84.1911 13.5231 84.2591 13.1154 84.3951C11.98 84.8489 10.8611 85.3538 9.7759 85.9179C9.67459 86.4794 9.71829 87.0488 9.96612 87.5945C10.7091 89.2299 12.8149 89.6618 14.6118 89.6941C19.8757 89.7884 25.0185 88.297 30.1946 87.3343C35.3707 86.3716 40.9183 85.9759 45.7213 88.1312C46.7623 88.5984 48.4316 89.6475 49.5883 88.9568C50.0586 88.6763 50.2771 88.3472 50.3293 88.0036C49.9205 87.7976 49.5217 87.5687 49.1308 87.316C38.4623 80.319 25.619 78.8926 14.3386 83.9875Z" fill="#00A2AF"/>
<path d="M49.5093 86.2536C47.552 84.2299 43.9369 82.8214 41.3791 81.7748C35.6895 79.4462 29.466 78.4016 23.3289 78.84C19.3155 79.1265 15.2028 80.0902 12.0436 82.5806C10.9802 83.4191 10.0058 84.6494 9.77637 85.918C10.861 85.3544 11.9805 84.8495 13.1158 84.3952C13.5236 84.2592 13.9313 84.1917 14.3391 83.9876C25.6195 78.8927 38.4623 80.3196 49.1308 87.3161C49.5217 87.5688 49.9205 87.7977 50.3292 88.0037C50.4196 87.4044 50.0004 86.761 49.5093 86.2536Z" fill="#037D87"/>
<path d="M28.8531 61.6277C20.6872 55.7836 11.389 52.9695 2.69317 58.8548C-0.129784 60.7653 -0.590177 63.8808 1.98693 66.3369C5.5335 69.7165 11.088 70.1891 15.6587 70.8013C25.1511 72.0728 36.7076 76.3272 43.1412 83.6921C44.514 85.264 48.2572 90.5937 50.9014 90.0709C53.4541 89.566 48.5666 83.0874 47.7377 81.8705C43.5232 75.6847 36.7126 67.2524 28.8531 61.6277Z" fill="#00A2AF"/>
<path d="M39.0453 86.5438C39.9507 84.7982 42.0907 83.6677 43.9706 84.2451C41.8121 80.0806 41.8176 74.8665 43.985 70.7064C44.576 69.5714 45.4252 68.436 46.6664 68.1242C47.9716 67.797 49.3607 68.5099 50.2179 69.5476C51.0751 70.5853 51.5097 71.8975 51.9264 73.1769C52.6788 75.4876 53.4317 77.7977 54.1841 80.1084C55.5082 76.5351 57.7769 73.3164 60.6977 70.8678C61.8554 69.8971 63.1655 69.0243 64.6555 68.7736C66.1454 68.5229 67.844 69.0298 68.6401 70.3132C69.5733 71.817 69.0195 73.7911 68.209 75.3649C67.399 76.9383 66.3297 78.4844 66.2716 80.2533C69.2684 78.7435 72.5447 77.3573 75.8728 77.7883C79.2008 78.2192 82.4196 81.1545 81.9637 84.4784C81.7278 86.1998 80.5746 87.6852 79.1824 88.7259C76.9366 90.4045 74.1097 91.0802 71.3448 91.5464C67.4039 92.2112 63.4044 92.5319 59.4079 92.5046C56.3371 92.4838 53.1898 92.2475 50.1926 93.0716C48.1215 93.6411 46.1717 94.8739 44.0341 95.1931C39.687 95.8415 37.233 90.0376 39.0453 86.5438Z" fill="#00A2AF"/>
<path d="M127.741 95.4004C127.449 95.732 126.808 95.7658 126.405 95.8556C125.819 95.9852 125.234 96.1178 124.649 96.2489C124.375 96.3109 124.075 96.308 123.796 96.2826C123.675 96.2717 123.387 96.2712 123.317 96.1332C121.652 92.8529 120.157 89.4862 118.843 86.05C116.506 79.9383 114.759 73.614 113.661 67.1632C113.114 63.9529 112.735 60.7302 112.545 57.4782C112.451 55.8572 112.377 54.2292 112.377 52.6047C112.377 51.7825 112.424 50.9559 112.463 50.1342C112.482 49.7226 112.504 49.31 112.528 48.8984C112.549 48.5454 112.484 48.046 112.694 47.758C112.72 47.7227 112.807 47.7004 112.919 47.6885C113.02 47.404 113.157 47.1334 113.35 46.8891C113.64 46.5237 114.093 46.3713 114.539 46.2988C115.33 46.1712 116.35 46.127 117.099 46.4756C117.522 46.6727 117.813 47.0525 118.091 47.4144C118.381 47.7928 118.638 48.1984 118.858 48.6209C119.793 50.4182 120.081 52.4875 120.212 54.4849C120.364 56.8209 120.317 59.1613 120.323 61.5008C120.329 63.7399 120.434 65.9686 120.793 68.182C121.128 70.2439 121.581 72.274 122.144 74.2863C123.284 78.3629 124.845 82.304 126.068 86.3554C126.673 88.3622 127.201 90.3943 127.563 92.4602C127.652 92.9661 127.731 93.4745 127.798 93.9839C127.853 94.398 128.05 95.0484 127.741 95.4004Z" fill="#002A6B"/>
<path d="M121.714 37.5965C122.837 41.2129 123.146 44.9931 123.974 48.6666C123.977 48.678 123.98 48.689 123.982 48.7004C124.165 48.7694 124.349 48.8349 124.535 48.8945C124.887 48.973 125.242 49.0345 125.6 49.0807C126.003 49.0991 126.406 49.0986 126.809 49.0792C127.105 49.042 127.4 48.9943 127.693 48.9367C127.713 48.8747 127.731 48.8121 127.747 48.749C127.883 48.2049 127.902 47.6414 127.91 47.0789C127.913 46.9264 127.914 46.774 127.918 46.6221C127.943 45.4434 128.183 44.297 128.243 43.1144C128.308 41.8543 128.31 40.5903 128.21 39.3322C128.014 36.879 127.469 34.4631 126.693 32.1316C125.469 28.4502 123.585 24.9351 121.532 21.6543C120.946 20.7194 120.336 19.7999 119.7 18.8983C119.262 18.2782 118.697 17.1496 117.886 16.9828C115.431 16.4794 115.739 19.8754 115.883 21.3142C116.036 22.8295 116.118 24.2305 116.576 25.7056C116.997 27.0585 117.566 28.3608 118.188 29.6318C119.481 32.2716 120.836 34.769 121.714 37.5965Z" fill="url(#paint0_linear)"/>
<path d="M114.643 100.443C114.427 100.667 113.933 100.729 113.65 100.81C111.708 101.366 109.54 101.558 107.525 101.236C107.362 101.211 107.029 101.133 107.224 100.919C107.34 100.792 107.621 100.736 107.773 100.678C107.963 100.605 108.153 100.533 108.342 100.456C109.125 100.139 109.932 99.8354 110.619 99.3319C110.968 99.0757 111.279 98.7674 111.517 98.405C111.612 98.2605 111.694 98.122 111.735 97.9547C111.756 97.8703 111.741 97.5952 111.836 97.551C111.961 97.4924 112.065 97.2869 112.217 97.2139C112.407 97.1231 112.628 97.0749 112.834 97.0347C113.235 96.9553 113.704 96.8217 114.103 96.9696C114.568 97.1414 114.609 97.7273 114.618 98.1602C114.63 98.6562 114.682 99.1368 114.716 99.6283C114.732 99.8627 114.832 100.248 114.643 100.443Z" fill="#FF6900"/>
<path d="M127.992 97.9007C127.931 98.1454 127.873 98.3902 127.806 98.633C127.687 99.0659 127.491 99.4284 127.101 99.6711C126.743 99.8926 126.327 100.005 125.918 100.087C124.868 100.297 123.784 100.301 122.733 100.101C122.722 100.099 122.596 100.075 122.6 100.033C122.635 99.6329 123.121 99.5465 123.433 99.4427C123.88 99.2938 124.381 99.129 124.747 98.8211C125.528 98.1648 125.534 96.789 125.364 95.9341C125.078 95.237 124.825 94.4575 125.587 94.2361C125.944 94.1323 126.683 94.0568 126.945 94.386C127.082 94.5578 127.148 94.8135 127.234 95.0131C127.337 95.2494 127.439 95.4857 127.541 95.7231C127.652 95.9793 127.762 96.2354 127.873 96.4921C127.964 96.7021 128.101 96.935 128.124 97.1659C128.15 97.4091 128.051 97.6673 127.992 97.9007Z" fill="#FF6900"/>
<path d="M119.069 50.0975C119.034 49.2574 119.004 48.404 118.866 47.5734C118.816 46.5998 118.627 45.6515 117.958 44.8725C117.38 44.1987 116.537 44.0518 115.687 44.0131C114.779 43.9718 113.848 44.0041 112.952 44.1536C112.282 44.2658 111.61 44.4683 111.062 44.8819C110.599 45.2319 110.232 45.72 109.959 46.2289C109.599 46.9006 109.415 47.6468 109.339 48.402C109.299 48.7982 109.28 49.2098 109.291 49.6214C109.27 49.7951 109.249 49.9684 109.226 50.1417C109.115 50.9698 109.058 51.8044 108.99 52.6375C108.853 54.3018 108.724 55.967 108.605 57.6332C108.368 60.9651 108.083 64.3164 108.064 67.6592C108.047 70.9812 108.482 74.2938 108.815 77.5934C109.151 80.9264 109.487 84.2588 109.823 87.5917C110.153 90.862 110.472 94.1448 111.089 97.3764C111.12 97.5413 111.152 97.7061 111.185 97.8705C111.497 97.9271 111.814 97.9633 112.133 97.9846C112.713 98.0234 113.298 98.009 113.869 97.9603C113.979 97.9509 114.09 97.94 114.201 97.9285C114.465 97.8993 114.733 97.862 115.001 97.8143C114.999 97.657 114.997 97.4991 114.997 97.3417C114.984 95.2177 115.057 93.0928 115.161 90.9683C115.338 87.3613 115.554 83.7548 115.78 80.1498C116.004 76.5742 116.318 73.0302 116.868 69.4873C117.412 65.9781 118.039 62.4814 118.493 58.9583C118.744 57.0061 118.941 55.045 119.031 53.0769C119.076 52.0859 119.111 51.0885 119.069 50.0975Z" fill="#002E74"/>
<path d="M124.644 48.81C124.331 49.6208 124.473 50.6495 124.769 51.4042C125.016 52.0337 125.294 52.8872 125.684 53.4075C125.886 52.8117 125.714 51.8942 125.431 51.3749C125.904 52.2671 126.603 53.2898 127.237 54.0877C127.638 53.6632 127.651 51.8346 127.446 51.2771C127.258 50.7677 126.86 50.3611 126.671 49.8417C126.445 49.2172 125.895 47.0371 124.921 48.3091C124.805 48.4625 124.714 48.6308 124.644 48.81Z" fill="#F99863"/>
<path d="M91.9763 40.3419C91.5303 40.7972 90.7541 40.6632 90.2569 41.0723C89.8328 41.4213 89.5542 42.0285 88.983 42.1626C88.4909 42.2782 87.9053 42.2474 87.4092 42.1779C86.832 42.097 86.3905 41.8791 86.0161 41.4258C85.8099 41.177 85.7836 40.9874 85.9619 40.7078C86.1372 40.4318 86.3478 40.1726 86.5594 39.9239C86.9825 39.4274 87.4727 38.9756 88.0473 38.6603C88.545 38.3878 89.0699 38.1991 89.6386 38.1653C90.3175 38.1246 90.9632 38.3054 91.6341 38.3585C91.6346 38.3585 91.654 38.36 91.6704 38.3639C92.0672 38.3312 92.4755 38.3376 92.6617 38.703C92.9428 39.2512 92.3354 39.975 91.9763 40.3419Z" fill="#F99863"/>
<path d="M107.112 44.983C107.367 46.0833 107.65 47.2262 108.037 48.3289C108.356 48.5056 108.678 48.6784 109.004 48.8447C110.328 49.4728 111.698 49.9956 113.106 50.4032C114.136 50.6574 115.181 50.8461 116.236 50.9622C117.113 51.0159 117.99 51.0168 118.868 50.9642C120.024 50.8366 121.168 50.6246 122.297 50.3416C122.333 50.3312 122.368 50.3203 122.403 50.3099C122.265 49.1431 121.724 48.0563 121.191 47.0042C120.437 45.5158 119.859 44.0114 119.584 42.3586C119.303 40.6711 119.286 38.9478 119.414 37.2453C119.687 33.6388 120.617 30.1247 121.007 26.5341C121.324 23.5954 121.268 19.9735 119.006 17.7448C118.465 17.2116 117.805 16.8402 117.07 16.651C115.976 16.3705 114.7 16.3675 113.605 16.6485C112.879 16.8347 112.287 17.2135 111.819 17.722C111.378 18.0392 110.962 18.3867 110.599 18.7993C110.08 19.3896 109.599 20.0127 109.157 20.6612C108.303 21.9118 107.627 23.2404 107.096 24.6574C105.948 27.7192 105.526 30.9404 105.579 34.1994C105.638 37.8341 106.294 41.4505 107.112 44.983Z" fill="url(#paint1_linear)"/>
<path d="M115.275 22.2242C115.236 23.243 115.035 24.3129 114.903 25.0363C114.247 28.6393 112.297 32.2766 109.965 35.0728C108.666 36.6322 107.016 37.8129 105.204 38.7075C101.462 40.5555 97.1833 41.185 93.081 41.6741C92.5903 41.7326 92.0827 41.7366 91.5921 41.6741C91.5012 41.6616 90.8496 41.6095 90.8615 41.4074C90.8982 40.7848 90.9583 40.1637 91.0011 39.5416C91.0264 39.1747 90.8948 37.9569 91.1481 37.7101C91.4028 37.4624 92.0187 37.5334 92.3559 37.4534C97.1466 36.3194 101.048 32.9448 103.136 28.5479C104.484 25.7115 105.377 22.3682 108.026 20.4845C109.629 19.3441 113.579 17.6203 114.93 20.0724C115.232 20.6181 115.306 21.4045 115.275 22.2242Z" fill="#FF6900"/>
<path d="M116.797 10.4769C116.27 11.729 115.379 12.8367 114.101 13.3689C113.747 13.5164 113.385 13.5938 113.001 13.6102C112.645 13.6256 112.169 13.638 111.86 13.422C111.336 13.0566 111.401 12.1937 111.497 11.6531C111.672 10.6611 111.936 9.48738 112.541 8.60959C113.402 7.36192 116.492 6.50648 117.083 8.46164C117.286 9.13587 117.059 9.85279 116.797 10.4769Z" fill="#F99863"/>
<path d="M112.726 17.5588C113.355 17.3061 114.1 17.3384 114.761 17.2153C115.244 17.1254 115.695 16.9596 116.18 16.6408C116.476 16.4462 116.748 16.1756 117.081 16.0441C117.082 16.0436 117.083 16.0431 117.085 16.0426C116.957 15.6012 116.839 15.1583 116.761 14.7016C116.543 13.4221 116.38 12.091 116.525 10.7962C116.558 10.5097 115.876 10.9511 115.817 10.9988C115.066 11.6094 114.508 12.3576 113.851 13.0572C113.767 13.1461 113.69 13.2339 113.587 13.2975C113.558 13.3149 113.194 13.4445 113.197 13.4132C113.179 13.585 113.168 13.7577 113.151 13.9295C113.043 15.0456 112.996 16.27 112.521 17.3036C112.445 17.4705 112.423 17.5469 112.433 17.7108C112.535 17.6567 112.691 17.5727 112.726 17.5588Z" fill="url(#paint2_linear)"/>
<path d="M118.084 8.07229C118.08 7.8588 118.102 7.71233 117.98 7.52516C117.888 7.38565 117.774 7.26947 117.633 7.1796C117.251 6.93732 116.815 6.89909 116.381 6.82561C116.136 6.7844 115.955 6.72631 115.743 6.59524C115.522 6.4587 115.348 6.25465 115.123 6.134C114.445 5.77157 113.143 5.81228 112.776 6.59623C112.634 6.89859 112.624 7.24911 112.684 7.57779C112.791 8.15322 113.026 8.80461 113.449 9.22116C113.578 9.34875 114.028 9.74247 114.233 9.67743C114.315 9.65112 114.393 9.61835 114.465 9.57664C114.516 9.54784 114.564 9.51607 114.61 9.4833C114.86 9.35025 115.087 9.1735 115.296 9.45798C115.476 9.70374 115.499 10.026 115.469 10.3184C115.449 10.5105 115.399 10.6813 115.321 10.8481C115.156 11.0487 115 11.2553 114.9 11.4966C114.751 11.8545 114.55 12.3173 114.884 12.635C115.147 12.8857 115.625 12.8654 115.957 12.8276C116.421 12.7755 116.767 12.5685 117.017 12.1753C117.265 11.7835 117.318 11.3407 117.483 10.9162C117.677 10.4137 117.855 9.8934 117.983 9.3701C118.092 8.92624 118.092 8.5226 118.084 8.07229Z" fill="#00112B"/>
<path d="M111.737 17.793C111.729 17.7945 111.722 17.7955 111.715 17.7965C111.717 17.796 111.721 17.796 111.724 17.7945C111.724 17.795 111.725 17.795 111.726 17.7945C111.73 17.7945 111.733 17.794 111.737 17.793Z" fill="#002E74"/>
<path d="M117.74 17.2142C115.946 17.0151 114.154 17.303 112.408 17.7002C112.144 17.7603 111.873 17.8522 111.606 17.881C111.54 17.8879 111.192 17.8447 111.162 17.8765C111.486 17.5299 111.929 17.307 112.345 17.0891C112.778 16.8622 113.222 16.6536 113.674 16.466C114.628 16.0693 115.631 15.7848 116.645 15.5827C116.801 15.5514 117.3 15.4824 117.398 15.6478C117.691 16.1403 117.981 16.6333 118.268 17.1288C118.307 17.1968 117.746 17.2152 117.74 17.2142Z" fill="url(#paint3_linear)"/>
<path d="M64.7506 98.8346C62.2217 98.9651 59.7082 98.7601 57.1822 98.7601C56.9314 98.7616 56.6294 98.7819 56.4198 98.6126C56.1869 98.4245 56.32 98.0536 56.3632 97.8078C56.4218 97.4697 56.4904 97.1331 56.5693 96.8C56.7322 96.1014 56.9314 95.4048 57.1862 94.7341C57.364 94.2659 57.5989 93.7992 58.0831 93.5996C58.244 93.5331 59.0034 93.4442 59.0923 93.6567C59.5641 94.7872 60.3106 95.7082 61.3118 96.4147C62.2679 97.0899 63.3749 97.5224 64.4874 97.8664C64.7829 97.9583 65.0859 98.0288 65.3809 98.1211C65.5195 98.1648 65.7206 98.2259 65.7772 98.3778C65.9401 98.8236 64.9602 98.8236 64.7506 98.8346Z" fill="#00112B"/>
<path d="M73.4344 100.78C73.4314 100.874 73.0485 100.852 72.9988 100.849C71.0942 100.758 69.1905 100.655 67.2864 100.552C66.4585 100.508 65.631 100.466 64.8031 100.431C64.382 100.413 63.5645 100.418 63.4448 99.8807C63.4036 99.6965 63.4577 99.5068 63.5054 99.3241C63.6832 98.6424 63.7746 97.9384 63.7781 97.2339C63.781 96.5324 63.9757 96.225 64.7381 96.1108C65.7502 95.9589 66.1699 96.934 66.8463 97.5089C68.2896 98.7358 70.1366 99.1935 71.8883 99.8052C72.3214 99.9566 73.4533 100.141 73.4344 100.78Z" fill="#00112B"/>
<path d="M64.8096 56.8884C64.7644 67.6462 63.5774 78.3947 61.9667 89.0562C61.7254 90.6559 61.7135 92.7903 60.8279 94.176C60.306 94.9922 59.4264 95.6064 58.4599 95.6759C56.9938 95.7811 55.9042 94.5593 55.6936 93.194C55.5401 92.194 55.7422 91.1579 55.8858 90.1684C56.2106 87.9302 56.4683 85.6821 56.67 83.4291C56.8478 81.4416 56.9834 79.4497 57.0832 77.4558C57.185 75.4143 57.1795 73.3752 57.2029 71.3317C57.2476 67.3305 57.1602 63.3303 57.1721 59.3291C57.183 55.4575 57.0201 51.5864 57.2287 47.7177C57.3474 45.496 57.5615 43.2528 58.1738 41.105C58.5712 39.7104 59.0032 38.0854 59.9424 36.9455C61.3405 35.2485 63.039 36.6967 63.5471 38.4473C64.3442 41.1919 64.3407 44.4171 64.5255 47.2535C64.7346 50.4603 64.823 53.6746 64.8096 56.8884Z" fill="#284166"/>
<path d="M60.9594 14.0957H63.0299L63.2608 15.9958L59.9224 14.5336L60.9594 14.0957Z" fill="#4D1E80"/>
<path d="M84.9147 37.6896C84.653 38.4786 84.3912 39.267 84.129 40.0564C84.0813 40.2004 83.7734 40.2113 83.6621 40.2267C79.9417 40.7594 76.1379 40.1974 72.4821 39.478C71.0979 39.2054 69.7217 38.8827 68.5382 38.0784C67.5623 37.4156 66.7791 36.5105 66.128 35.5344C65.4634 34.5384 64.9539 33.4447 64.4721 32.3519C63.9129 31.0829 63.4113 29.7816 62.9012 28.4922C61.826 25.773 61.0463 22.9708 60.9668 20.0301C60.9395 19.0178 60.9464 17.4916 61.9467 16.9002C63.0925 16.223 64.9345 17.0735 65.8176 17.8168C67.679 19.3832 69.0418 22.2236 70.0421 24.4012C70.4548 25.2993 70.8541 26.2034 71.2643 27.1026C72.0897 28.9127 72.8705 30.8212 74.0475 32.4378C74.6053 33.2049 75.2817 33.8344 76.1056 34.3071C76.94 34.7852 77.8563 35.1258 78.7483 35.4783C80.7299 36.2617 82.7453 36.9583 84.7816 37.5854C84.8471 37.5983 84.8913 37.633 84.9147 37.6896Z" fill="url(#paint4_linear)"/>
<path d="M70.3881 70.2404C69.9818 74.8856 69.3496 79.5089 68.8266 84.1411C68.5624 86.4785 68.3081 88.8125 68.2212 91.1644C68.179 92.2969 68.1775 93.4209 68.1899 94.5534C68.1994 95.4228 68.1591 96.4842 67.4445 97.0974C67.1192 97.3764 66.704 97.5378 66.2858 97.6182C65.5552 97.7597 64.7372 97.7677 64.0136 97.581C62.9861 97.3159 62.7988 96.3825 62.6354 95.4615C62.2411 93.2342 62.0206 90.9807 61.9058 88.7227C61.7901 86.4567 61.6516 84.1902 61.5567 81.9233C61.4623 79.6548 61.3923 77.3884 61.3168 75.1199C61.2418 72.8659 61.1142 70.6093 60.8331 68.3712C60.5569 66.1707 60.0742 64.014 59.4901 61.8776C58.9145 59.7695 58.2386 57.6912 57.6332 55.5921C57.3382 54.5703 57.0596 53.5431 56.8192 52.5074C56.699 51.9886 56.6155 51.4911 56.5743 50.9608C56.5336 50.4241 56.5113 49.8869 56.4949 49.3488C56.4318 47.1816 56.5296 45.078 57.07 42.9669C57.5547 41.0738 57.9913 37.8049 59.9123 36.8184C61.3133 36.0985 63.6009 36.59 64.5907 37.8342C65.1961 38.5958 65.6838 39.4776 66.1557 40.3246C67.1177 42.0519 67.8855 43.8834 68.5088 45.7582C69.7733 49.5617 70.4045 53.551 70.6851 57.5413C70.9831 61.7783 70.7571 66.0158 70.3881 70.2404Z" fill="#2E4A74"/>
<path d="M62.1971 15.173C62.1697 15.4272 62.1693 15.812 61.9751 16.0086C61.7099 16.2782 61.1536 16.2355 60.8109 16.2186C60.4682 16.2018 60.125 16.1491 59.7963 16.0528C59.5013 15.9659 59.1675 15.8368 58.9584 15.599C58.7568 15.3682 58.8834 14.961 58.8919 14.686C58.9162 13.8588 58.8089 13.0312 58.5795 12.2363C58.4598 11.8227 58.3287 11.4111 58.2045 10.9981C58.203 10.9926 58.201 10.9871 58.1995 10.9817C57.9547 10.5448 57.7958 10.0716 57.8822 9.55329C57.9373 9.22313 58.1236 8.86367 58.4394 8.71622C58.8358 8.53053 59.4799 8.54443 59.8857 8.68643C60.2025 8.79714 60.4022 9.09255 60.5944 9.34924C60.7771 9.59301 60.9455 9.84721 61.1 10.1094C61.4491 10.7022 61.7233 11.3387 61.9145 12C62.1116 12.6787 62.2224 13.3817 62.2413 14.0882C62.2512 14.4501 62.2373 14.8131 62.1971 15.173Z" fill="#F99863"/>
<path d="M63.7644 9.04134C63.3541 7.4784 62.4785 5.77098 60.8133 5.28392C60.2968 5.13299 59.747 5.09576 59.2121 5.132C58.7467 5.16328 58.2267 5.24569 57.8672 5.57089C57.5662 5.84197 57.375 6.2759 57.2359 6.64827C57.229 6.66714 57.2225 6.686 57.2161 6.70437C57.1604 6.81261 57.1152 6.92779 57.0954 7.04596C57.0586 7.26242 57.0527 7.49428 57.0586 7.72415C57.0541 7.80608 57.0492 7.88899 57.0437 7.97339C57.0278 8.20128 57.0581 8.42967 57.1237 8.6511C57.1818 9.15603 57.299 9.63762 57.6208 10.0591C58.0122 10.5725 58.5674 10.8684 59.1808 11.0476C60.3136 11.3793 61.5175 11.6072 62.702 11.5243C62.7835 11.5188 63.4818 11.4622 63.602 11.3301C64.3017 10.9389 63.9248 9.654 63.7644 9.04134Z" fill="#F99863"/>
<path d="M64.5314 9.18338C64.1435 9.03394 63.6057 9.05877 63.2088 9.1392C62.9014 9.20126 62.7211 9.45199 62.4048 9.37751C61.8406 9.24445 61.3792 8.80655 61.1607 8.2773C60.96 7.79173 60.7782 6.99537 61.1661 6.56243C61.3613 6.34497 61.623 6.39909 61.8878 6.38568C62.1559 6.37228 62.4256 6.3415 62.6839 6.26553C63.0569 6.15531 63.411 5.93239 63.559 5.55705C63.7413 5.09482 63.5386 4.54819 63.3549 4.11575C63.1885 3.72451 62.8085 3.48421 62.3904 3.45244C62.1843 3.43705 61.9762 3.47329 61.7859 3.55422C61.5823 3.6416 61.4606 3.84864 61.2451 3.8963C60.7499 4.00602 60.2324 3.81984 59.7298 3.84715C58.7256 3.90176 57.9116 4.24086 57.2595 5.01935C56.9655 5.37037 56.6292 5.75366 56.4738 6.19106C56.299 6.68358 56.3367 7.22127 56.4395 7.72471C56.5369 8.20084 56.6873 8.69286 56.9352 9.11338C57.1641 9.50213 57.4979 9.83279 57.5818 10.2915C57.6608 10.722 57.6871 11.1246 58.1828 11.2513C58.6332 11.3659 59.2525 11.3322 59.5734 10.9553C59.8768 10.5989 60.0248 10.0785 59.7745 9.66398C59.5158 9.23601 59.2133 8.85422 58.9138 8.46249C58.7936 8.11147 58.7902 7.76542 59.2009 7.52413C59.5322 7.3295 59.8068 7.7252 60.0437 7.9943C60.1043 8.10899 60.1649 8.22467 60.2329 8.33588C60.2876 8.47688 60.3486 8.6159 60.4137 8.74896C60.5061 8.98926 60.6243 9.22311 60.7326 9.45546C60.9789 9.98571 61.2694 10.5274 61.3429 11.1112C61.4095 11.6385 61.8525 11.6976 62.3159 11.7348C62.9044 11.7825 63.6201 11.8123 64.1614 11.5298C64.5995 11.3014 64.8026 10.8213 64.8965 10.3581C64.9779 9.95989 64.9859 9.35815 64.5314 9.18338Z" fill="#F15749"/>
<path d="M55.0512 54.5355C55.0646 54.5966 54.5714 54.6164 54.5198 54.5504C54.4353 54.4432 54.3578 54.3339 54.2838 54.2222C54.2943 54.4089 54.2963 54.5961 54.2838 54.7828C54.2799 54.8513 53.9178 54.8379 53.8801 54.7942C53.7614 54.6581 53.6536 54.5152 53.5533 54.3677C53.5662 54.5147 53.5766 54.6616 53.5811 54.8101C53.5836 54.8821 53.1545 54.8751 53.1122 54.823C52.9255 54.5926 52.7557 54.3473 52.623 54.0827C52.6211 54.1229 52.6191 54.1622 52.6171 54.2024C52.6131 54.2654 52.266 54.26 52.2357 54.2024C51.8051 53.3673 51.673 52.3619 51.591 51.4354C51.5453 50.9191 51.5543 50.4057 51.5453 49.8879C51.5394 49.5284 51.517 49.169 51.519 48.8105C51.4301 48.5012 51.3303 48.1457 51.7097 48.0414C52.0062 47.959 52.3663 47.968 52.6618 48.0524C52.855 48.1075 53.0278 48.2187 53.1773 48.3657C53.2195 48.3662 53.2588 48.3711 53.2672 48.381C53.739 48.9128 54.0902 49.5175 54.3668 50.1724C54.5054 50.502 54.6275 50.8372 54.7338 51.1793C54.8282 51.4836 55.0328 51.9136 54.8888 52.2164C54.856 52.2849 54.5461 52.278 54.5009 52.2273C54.4418 52.1613 54.3961 52.0883 54.3593 52.0094C54.6325 52.839 54.8634 53.6816 55.0512 54.5355Z" fill="#F99863"/>
<path d="M91.4524 40.1945C91.0998 41.333 89.8433 42.2813 88.631 41.9993C88.3116 41.9253 88.105 41.7168 87.8706 41.5018C87.6327 41.2838 87.3779 41.0887 87.1028 40.9219C86.4472 40.5217 85.7499 40.3459 85.0014 40.2094C84.478 40.1141 83.5984 40.0381 83.3724 39.4572C83.143 38.8684 83.5885 38.1147 84.1805 37.9558C84.3767 37.9027 84.5853 37.9082 84.7789 37.9668C84.9692 38.0244 85.1723 38.0492 85.366 38.1058C85.7578 38.222 86.1557 38.4096 86.5649 38.4568C86.9622 38.503 87.4097 38.3069 87.8035 38.2503C88.1909 38.1952 88.5882 38.1937 88.9766 38.2428C89.5964 38.3218 90.2322 38.5238 90.7889 38.8068C91.3437 39.0893 91.6471 39.5675 91.4524 40.1945Z" fill="#F99863"/>
<path d="M68.9755 36.4773C68.092 38.6897 66.2917 40.6736 63.9574 41.1552C61.3133 41.6999 58.5564 40.1687 57.0148 37.9529C55.4737 35.7371 54.9537 32.9676 54.8017 30.2727C54.5926 26.5555 54.9989 22.7326 56.2564 19.2155C56.5807 18.3079 56.9596 17.4202 57.3912 16.5588C57.7567 15.8284 58.1133 15.041 58.9045 14.685C59.4508 14.4393 60.4103 14.547 60.9949 14.6274C62.609 14.8484 64.0791 15.8106 65.1176 17.0384C66.5067 18.6807 67.2552 20.7571 67.9376 22.7961C68.2102 23.6109 68.4764 24.4291 68.7198 25.2537C69.1375 26.6727 69.4861 28.11 69.6723 29.5761C69.9674 31.8947 69.8422 34.3062 68.9755 36.4773Z" fill="url(#paint5_linear)"/>
<path d="M61.981 16.9927C61.9647 16.4947 61.8882 16.028 61.7233 15.6283C60.0516 11.57 54.0814 19.6017 53.2092 20.9507C50.4106 25.2775 48.866 30.4048 48.795 35.5558C48.7647 37.7592 49.0741 39.9338 49.4094 42.106C49.6254 43.5056 49.9016 44.8858 50.3173 46.2402C50.5293 46.9333 50.7588 47.6214 51.0056 48.3031C51.2142 48.8791 51.5316 49.2445 52.1643 49.3249C52.6068 49.3815 53.1382 49.4063 53.5633 49.2479C53.9085 49.1194 53.7789 48.8453 53.7625 48.54C53.7233 47.8076 53.7367 47.0684 53.7188 46.3351C53.6835 44.8669 53.6339 43.4003 53.5728 41.9337C53.5157 40.552 53.4566 39.1568 53.6632 37.7831C53.8683 36.4212 54.3977 35.176 55.0424 33.9676C56.3441 31.5248 57.8748 29.2102 59.1501 26.7526C60.0645 24.9906 60.8288 23.1422 61.3081 21.2128C61.5907 20.0768 62.0277 18.4062 61.981 16.9927Z" fill="#5F259F"/>
<path d="M61.9783 13.9229L63.2612 15.9957L59.2656 14.5718L59.3391 14.0961C59.3391 14.0956 61.1678 14.4044 61.9783 13.9229Z" fill="#5F259F"/>
<path d="M61.9779 13.9229C61.954 13.9855 61.9312 14.0486 61.9093 14.1116C61.7102 14.6786 61.5845 15.2605 61.5075 15.8498C61.4822 16.0434 61.4628 16.2376 61.4479 16.4322C61.2766 16.2698 61.0993 16.1144 60.9086 15.9715C60.8629 15.9377 60.8167 15.9044 60.7695 15.8717C60.3747 15.5991 59.956 15.3628 59.5184 15.1652C59.2706 15.053 58.9627 14.9035 58.6543 14.7997C58.4362 14.7263 58.2172 14.6756 58.0181 14.6766C58.035 14.6394 58.0528 14.6026 58.0697 14.5674H58.0702C58.101 14.5043 58.1308 14.4438 58.1571 14.3882C58.2674 14.1538 58.3652 13.9145 58.4507 13.6707C58.476 13.6007 58.4998 13.5302 58.5222 13.4592C58.7089 13.5208 58.8971 13.5779 59.0869 13.631C59.5592 13.7616 60.0404 13.8604 60.5321 13.912C60.8693 13.9473 61.2006 13.9562 61.5309 13.9458C61.6804 13.9428 61.8294 13.9339 61.9779 13.9229Z" fill="#4D1E81"/>
<defs>
<linearGradient id="paint0_linear" x1="116.96" y1="36.5183" x2="127.356" y2="29.5766" gradientUnits="userSpaceOnUse">
<stop stop-color="#FF6900"/>
<stop offset="1" stop-color="#FF7F26"/>
</linearGradient>
<linearGradient id="paint1_linear" x1="108.628" y1="42.7702" x2="120.262" y2="30.615" gradientUnits="userSpaceOnUse">
<stop stop-color="#EC8C4A"/>
<stop offset="0.0001" stop-color="#FF8835"/>
<stop offset="1" stop-color="#FF6900"/>
</linearGradient>
<linearGradient id="paint2_linear" x1="113.151" y1="13.6655" x2="117.447" y2="15.4536" gradientUnits="userSpaceOnUse">
<stop stop-color="#E88E5C"/>
<stop offset="0.1269" stop-color="#F0935F"/>
<stop offset="0.3579" stop-color="#F79762"/>
<stop offset="1" stop-color="#F99863"/>
</linearGradient>
<linearGradient id="paint3_linear" x1="111.162" y1="16.712" x2="118.27" y2="16.712" gradientUnits="userSpaceOnUse">
<stop stop-color="#D1D5C3"/>
<stop offset="1" stop-color="#B8BCAC"/>
</linearGradient>
<linearGradient id="paint4_linear" x1="71.9239" y1="30.5618" x2="65.8228" y2="20.2677" gradientUnits="userSpaceOnUse">
<stop stop-color="#5F259F"/>
<stop offset="1" stop-color="#7E24E0"/>
</linearGradient>
<linearGradient id="paint5_linear" x1="56.7077" y1="32.9999" x2="67.5676" y2="22.5598" gradientUnits="userSpaceOnUse">
<stop stop-color="#5F259F"/>
<stop offset="1" stop-color="#7D29DA"/>
</linearGradient>
</defs>
</svg>
