<svg width="28" height="28" viewBox="0 0 28 28" fill="none" xmlns="http://www.w3.org/2000/svg">
<g clip-path="url(#clip0)">
<path d="M27.6223 7.46432L14.1691 3.08932C14.0592 3.05356 13.9408 3.05356 13.8309 3.08932L0.377727 7.46432C0.152523 7.53761 0 7.74755 0 7.9844C0 8.22125 0.152523 8.4312 0.377727 8.50448L6.89062 10.6225V14.5469C6.89062 14.7298 6.98201 14.9005 7.13415 15.0019C7.27377 15.095 10.5921 17.2813 13.9846 17.2813C17.4075 17.2813 20.7262 15.095 20.8659 15.0019C21.018 14.9005 21.1094 14.7297 21.1094 14.5469V10.6225L23.2969 9.9111V15.1878C22.6604 15.4136 22.2031 16.0214 22.2031 16.7344C22.2031 17.4024 22.6046 17.9779 23.1786 18.2336L21.6725 24.258C21.5863 24.6033 21.8479 24.9375 22.2031 24.9375H25.4844C25.8403 24.9375 26.101 24.6027 26.015 24.258L24.5089 18.2336C25.0829 17.9779 25.4844 17.4024 25.4844 16.7344C25.4844 16.0215 25.0271 15.4136 24.3906 15.1878V9.55541L27.6223 8.50448C27.8475 8.4312 28 8.22125 28 7.9844C28 7.74755 27.8475 7.53761 27.6223 7.46432ZM22.9036 23.8438L23.8438 20.083L24.7839 23.8438H22.9036ZM20.0156 14.244C19.2172 14.7262 16.5825 16.1875 13.9846 16.1875C11.4189 16.1875 8.7832 14.7256 7.98438 14.2438V10.9782L13.8309 12.8795C13.9406 12.9152 14.0592 12.9152 14.1691 12.8795L20.0156 10.9782V14.244ZM14 11.7844C12.4111 11.2676 4.19973 8.59728 2.3152 7.9844L14 4.1845L25.6848 7.9844C24.5265 8.36109 14.5114 11.618 14 11.7844Z" fill="black"/>
</g>
<defs>
<clipPath id="clip0">
<rect width="28" height="28" fill="white"/>
</clipPath>
</defs>
</svg>
