<svg width="21" height="21" viewBox="0 0 21 21" fill="none" xmlns="http://www.w3.org/2000/svg">
<g clip-path="url(#clip0)">
<path d="M19.0668 2.96533H1.93323C0.853002 2.96533 0 3.84266 0 4.89856V16.1013C0 17.1815 0.877324 18.0345 1.93323 18.0345H19.0668C20.147 18.0345 21 17.1571 21 16.1012V4.89856C21 3.81829 20.1227 2.96533 19.0668 2.96533ZM19.7695 16.1012C19.7695 16.4891 19.4554 16.804 19.0668 16.804H1.93323C1.54539 16.804 1.23047 16.4899 1.23047 16.1012V4.89856C1.23047 4.51072 1.54457 4.1958 1.93323 4.1958H19.0668C19.4546 4.1958 19.7695 4.5099 19.7695 4.89856V16.1012Z" fill="black"/>
<path d="M8.23337 12.0054C8.59086 11.6051 8.8087 11.0776 8.8087 10.5C8.8087 9.25236 7.79364 8.2373 6.54599 8.2373C5.29833 8.2373 4.28332 9.25236 4.28332 10.5C4.28332 11.0776 4.50115 11.6051 4.8586 12.0054C3.92168 12.5765 3.2948 13.6081 3.2948 14.7834C3.2948 15.1232 3.57026 15.3986 3.91003 15.3986H9.1819C9.52167 15.3986 9.79713 15.1232 9.79713 14.7834C9.79713 13.6081 9.17025 12.5766 8.23337 12.0054ZM6.54599 9.46777C7.11516 9.46777 7.57823 9.93084 7.57823 10.5C7.57823 11.0692 7.11516 11.5322 6.54599 11.5322C5.97681 11.5322 5.51379 11.0692 5.51379 10.5C5.51379 9.93084 5.97681 9.46777 6.54599 9.46777ZM4.621 14.1682C4.88186 13.3539 5.64619 12.7627 6.54599 12.7627C7.44579 12.7627 8.21007 13.3538 8.47097 14.1682H4.621Z" fill="black"/>
<path d="M17.0897 8.89624H12.4768C12.137 8.89624 11.8616 9.1717 11.8616 9.51147C11.8616 9.85125 12.137 10.1267 12.4768 10.1267H17.0897C17.4295 10.1267 17.7049 9.85125 17.7049 9.51147C17.7049 9.1717 17.4295 8.89624 17.0897 8.89624Z" fill="black"/>
<path d="M17.0897 5.60132H3.91003C3.57026 5.60132 3.2948 5.87678 3.2948 6.21655C3.2948 6.55633 3.57026 6.83179 3.91003 6.83179H17.0897C17.4295 6.83179 17.705 6.55633 17.705 6.21655C17.705 5.87678 17.4295 5.60132 17.0897 5.60132Z" fill="black"/>
<path d="M17.0897 11.5322H12.4768C12.137 11.5322 11.8616 11.8077 11.8616 12.1475C11.8616 12.4872 12.137 12.7627 12.4768 12.7627H17.0897C17.4295 12.7627 17.7049 12.4872 17.7049 12.1475C17.7049 11.8077 17.4295 11.5322 17.0897 11.5322Z" fill="black"/>
<path d="M15.7717 14.168H12.4768C12.137 14.168 11.8616 14.4434 11.8616 14.7832C11.8616 15.123 12.137 15.3984 12.4768 15.3984H15.7717C16.1115 15.3984 16.387 15.123 16.387 14.7832C16.387 14.4434 16.1115 14.168 15.7717 14.168Z" fill="black"/>
</g>
<defs>
<clipPath id="clip0">
<rect width="21" height="21" fill="white"/>
</clipPath>
</defs>
</svg>
