<svg width="16" height="16" viewBox="0 0 16 16" fill="none" xmlns="http://www.w3.org/2000/svg">
<path fill-rule="evenodd" clip-rule="evenodd" d="M0 8C0 3.5848 3.584 0 8 0C12.424 0 16 3.5848 16 8C16 12.4168 12.424 16 8 16C3.584 16 0 12.4168 0 8ZM7.29632 4.96802C7.29632 4.58482 7.61632 4.26402 8.00032 4.26402C8.38432 4.26402 8.69632 4.58482 8.69632 4.96802V8.50402C8.69632 8.88882 8.38432 9.20002 8.00032 9.20002C7.61632 9.20002 7.29632 8.88882 7.29632 8.50402V4.96802ZM8.00813 11.7448C7.61613 11.7448 7.30413 11.4248 7.30413 11.0408C7.30413 10.6568 7.61613 10.3448 8.00013 10.3448C8.39213 10.3448 8.70413 10.6568 8.70413 11.0408C8.70413 11.4248 8.39213 11.7448 8.00813 11.7448Z" fill="#FF6900"/>
</svg>
