<svg width="21" height="20" viewBox="0 0 21 20" fill="none" xmlns="http://www.w3.org/2000/svg">
<path fill-rule="evenodd" clip-rule="evenodd" d="M9.309 0C11.6882 0 13.6301 1.87393 13.7392 4.22624L13.744 4.435V5.368C13.744 5.78221 13.4082 6.118 12.994 6.118C12.6143 6.118 12.3005 5.83585 12.2508 5.46977L12.244 5.368V4.435C12.244 2.8721 11.022 1.59426 9.48144 1.50498L9.309 1.5H4.434C2.87194 1.5 1.59425 2.72213 1.50498 4.26258L1.5 4.435V15.565C1.5 17.1278 2.7219 18.4057 4.26165 18.495L4.434 18.5H9.319C10.8764 18.5 12.15 17.2824 12.239 15.7478L12.244 15.576V14.633C12.244 14.2188 12.5798 13.883 12.994 13.883C13.3737 13.883 13.6875 14.1652 13.7372 14.5312L13.744 14.633V15.576C13.744 17.9472 11.8772 19.8831 9.53335 19.9949L9.319 20H4.434C2.05555 20 0.113841 18.1259 0.00482718 15.7737L0 15.565V4.435C0 2.05594 1.87376 0.113862 4.22531 0.00482809L4.434 0H9.309ZM20.3062 9.4582C20.4487 9.59472 20.5375 9.78695 20.5375 9.9999C20.5375 10.215 20.447 10.4089 20.3019 10.5457L17.3884 13.4472C17.0949 13.7395 16.6201 13.7385 16.3278 13.445C16.0621 13.1782 16.0387 12.7615 16.2572 12.4684L16.33 12.3844L17.97 10.7499H7.7465C7.33229 10.7499 6.9965 10.4141 6.9965 9.9999C6.9965 9.6202 7.27865 9.30641 7.64473 9.25675L7.7465 9.2499H17.9717L16.3301 7.61631C16.0632 7.35064 16.0381 6.93403 16.2553 6.63993L16.3277 6.55565C16.5934 6.28879 17.01 6.26366 17.3041 6.48086L17.3883 6.55329L20.3062 9.4582Z" fill="white"/>
</svg>
