<svg width="16" height="16" viewBox="0 0 16 16" fill="none" xmlns="http://www.w3.org/2000/svg">
<path fill-rule="evenodd" clip-rule="evenodd" d="M7.25229 0C9.10587 0 10.6187 1.45991 10.7037 3.2925L10.7074 3.45514V4.18201C10.7074 4.50471 10.4458 4.7663 10.1231 4.7663C9.82733 4.7663 9.58287 4.54649 9.54418 4.26129L9.53884 4.18201V3.45514C9.53884 2.23754 8.58681 1.24203 7.38663 1.17248L7.25229 1.16859H3.45436C2.23742 1.16859 1.24202 2.12071 1.17248 3.32081L1.16859 3.45514V12.1261C1.16859 13.3436 2.12053 14.3392 3.3201 14.4088L3.45436 14.4127H7.26008C8.47337 14.4127 9.46564 13.4641 9.53497 12.2685L9.53884 12.1347V11.4C9.53884 11.0773 9.80044 10.8157 10.1231 10.8157C10.4189 10.8157 10.6634 11.0355 10.7021 11.3207L10.7074 11.4V12.1347C10.7074 13.982 9.25308 15.4902 7.42708 15.5773L7.26008 15.5813H3.45436C1.60141 15.5813 0.088689 14.1212 0.00376067 12.2887L0 12.1261V3.45514C0 1.60171 1.45978 0.0887057 3.29178 0.00376138L3.45436 0H7.25229ZM15.8211 8.21144C15.9258 8.11058 15.9929 7.971 15.9995 7.81575C16.0006 7.79018 16.0001 7.76456 15.9978 7.73906C15.9947 7.70275 15.9882 7.66738 15.9787 7.63328C15.9525 7.53912 15.9023 7.45025 15.828 7.37634L13.5469 5.10537L13.4813 5.04895C13.2521 4.87973 12.9276 4.89931 12.7206 5.10721L12.6642 5.17287C12.495 5.40199 12.5145 5.72656 12.7224 5.93353L14.0014 7.20625H6.03508L5.95579 7.21158C5.6706 7.25027 5.45078 7.49474 5.45078 7.79055C5.45078 8.11325 5.71238 8.37484 6.03508 8.37484H14L12.7224 9.64816L12.6657 9.71358C12.4955 9.94197 12.5137 10.2666 12.7207 10.4745C12.9484 10.7031 13.3183 10.7039 13.547 10.4762L15.8211 8.21144Z" fill="#FF6900"/>
</svg>
