<svg width="277" height="244" viewBox="0 0 277 244" fill="none" xmlns="http://www.w3.org/2000/svg">
<g clip-path="url(#clip0)">
<path d="M144.127 0.029733C178.156 -0.802889 209.221 13.1911 226.893 36.3083C262.34 82.8162 268.89 129.282 245.108 153.708C234.08 164.609 220.165 172.138 204.999 175.41C171.172 182.475 156.464 161.422 128.502 166.84C91.5016 174.012 87.5658 216.63 62.7001 217.909C38.9717 219.128 12.9925 181.827 9.15785 146.619C2.51867 85.6709 59.7705 8.21917 134.945 0.606622C138.059 0.267626 141.12 0.107048 144.127 0.029733Z" fill="#5F259F"/>
<path d="M74.8291 53.1986L75.1149 54.965L75.0732 54.9709L74.8291 53.1986Z" fill="#ABBAC2"/>
<path d="M75.3229 58.6107C75.3061 59.8336 75.2026 61.0539 75.0133 62.2623L74.793 62.2266C75.0121 61.0323 75.1454 59.8239 75.1919 58.6107H75.3229Z" fill="#ABBAC2"/>
<path d="M74.1801 65.8366C73.8104 67.0057 73.3567 68.1465 72.8225 69.2504L72.501 69.0898C73.0466 68.0099 73.5104 66.8906 73.8884 65.7415L74.1801 65.8366Z" fill="#ABBAC2"/>
<path d="M70.9653 72.4263C70.2676 73.439 69.489 74.3937 68.6371 75.281L68.3096 74.9658C69.1555 74.1045 69.932 73.1778 70.6318 72.1943L70.9653 72.4263Z" fill="#ABBAC2"/>
<path d="M65.8733 77.7253C64.8799 78.4586 63.8239 79.1034 62.7175 79.6522L62.4912 79.1883C63.5726 78.6582 64.6048 78.0333 65.5756 77.3209L65.8733 77.7253Z" fill="#ABBAC2"/>
<path d="M59.2943 80.9844C58.1033 81.3157 56.8862 81.5445 55.6561 81.6684L55.6025 81.1212C56.81 81.0058 58.0053 80.787 59.1752 80.467L59.2943 80.9844Z" fill="#ABBAC2"/>
<path d="M51.9463 81.7933C50.715 81.7508 49.4877 81.6277 48.2725 81.4245L48.3677 80.8298C49.5494 81.0306 50.7427 81.1558 51.9404 81.2045L51.9463 81.7933Z" fill="#ABBAC2"/>
<path d="M44.6759 80.5859C43.4934 80.2247 42.344 79.7631 41.2402 79.2062L41.4963 78.7007C42.5751 79.233 43.6964 79.6746 44.8486 80.021L44.6759 80.5859Z" fill="#ABBAC2"/>
<path d="M38.1796 77.0651C37.7227 76.611 37.3533 76.0767 37.0899 75.4891C36.8401 74.875 36.7699 74.2027 36.8875 73.5503L37.4174 73.6276C37.3183 74.1845 37.3803 74.758 37.596 75.281C37.8309 75.8054 38.1644 76.2799 38.5785 76.6786L38.1796 77.0651Z" fill="#ABBAC2"/>
<path d="M38.6855 70.2258C38.9805 70.0083 39.3443 69.9048 39.7097 69.9344C40.0609 69.9714 40.3949 70.1053 40.6743 70.3209C41.2208 70.7097 41.6361 71.2552 41.8652 71.8851L41.3948 72.0575C41.199 71.5302 40.8534 71.0713 40.4004 70.7372C40.1816 70.5695 39.9191 70.4684 39.6442 70.4458C39.3963 70.4287 39.1506 70.5027 38.9535 70.654L38.6855 70.2258Z" fill="#ABBAC2"/>
<path d="M41.0379 75.5427C40.3286 76.5717 39.439 77.4642 38.412 78.1773L38.1738 77.8443C39.1513 77.1557 39.9931 76.2927 40.6568 75.2988L41.0379 75.5427Z" fill="#ABBAC2"/>
<path d="M34.9639 79.5452C33.7228 79.6601 32.4713 79.5142 31.29 79.117L31.3794 78.8256C32.521 79.1971 33.7289 79.3208 34.9222 79.1883L34.9639 79.5452Z" fill="#ABBAC2"/>
<path d="M27.9861 77.4933C26.9634 76.8191 26.0047 76.0526 25.1221 75.2036L25.2173 75.1085C26.1112 75.9279 27.0778 76.6645 28.1052 77.309L27.9861 77.4933Z" fill="#ABBAC2"/>
<path d="M22.6741 72.4977L21.6143 71.0584L22.7099 72.4679L22.6741 72.4977Z" fill="#ABBAC2"/>
<path d="M220.153 17.1877L221.821 17.8419L221.803 17.8835L220.153 17.1877Z" fill="#ABBAC2"/>
<path d="M225.066 19.525C226.108 20.1628 227.103 20.8743 228.043 21.6541L227.9 21.8206C226.983 21.0246 226.01 20.2951 224.988 19.638L225.066 19.525Z" fill="#ABBAC2"/>
<path d="M230.704 24.1936C231.523 25.1061 232.274 26.0782 232.949 27.1018L232.651 27.2921C231.997 26.2759 231.271 25.3079 230.478 24.3958L230.704 24.1936Z" fill="#ABBAC2"/>
<path d="M234.735 30.3194C235.252 31.4351 235.678 32.5907 236.009 33.7747L235.569 33.8937C235.262 32.7283 234.864 31.5888 234.378 30.4859L234.735 30.3194Z" fill="#ABBAC2"/>
<path d="M236.737 37.3966C236.862 38.6219 236.878 39.8559 236.784 41.084L236.266 41.0483C236.361 39.8483 236.351 38.6425 236.236 37.4442L236.737 37.3966Z" fill="#ABBAC2"/>
<path d="M236.141 44.7297C235.817 45.9204 235.395 47.0822 234.878 48.2029L234.372 47.971C234.882 46.8814 235.3 45.7515 235.623 44.5929L236.141 44.7297Z" fill="#ABBAC2"/>
<path d="M233.098 51.4144C232.432 52.4513 231.7 53.4445 230.907 54.3881L230.46 54.0134C231.239 53.0933 231.961 52.126 232.621 51.117L233.098 51.4144Z" fill="#ABBAC2"/>
<path d="M228.347 57.0585C227.433 57.8905 226.451 58.6445 225.411 59.3125L225.102 58.8308C226.112 58.1755 227.066 57.4375 227.954 56.6243L228.347 57.0585Z" fill="#ABBAC2"/>
<path d="M222.004 60.8469C221.379 61.007 220.729 61.0513 220.087 60.9777C219.427 60.88 218.807 60.5975 218.301 60.1629L218.634 59.7466C219.063 60.1154 219.587 60.3547 220.147 60.4365C220.716 60.5114 221.294 60.4771 221.85 60.3354L222.004 60.8469Z" fill="#ABBAC2"/>
<path d="M216.371 56.9217C216.336 56.5569 216.433 56.1916 216.645 55.8928C216.856 55.6109 217.14 55.3927 217.467 55.2624C218.081 55.0017 218.759 54.9292 219.414 55.0542L219.319 55.5478C218.765 55.4478 218.195 55.5098 217.675 55.7263C217.44 55.8272 217.235 55.987 217.08 56.1901C216.942 56.3968 216.881 56.645 216.907 56.8919L216.371 56.9217Z" fill="#ABBAC2"/>
<path d="M222.148 57.6115C222.672 58.7449 222.985 59.9642 223.071 61.2097L222.66 61.2453C222.565 60.0547 222.252 58.8916 221.737 57.8137L222.148 57.6115Z" fill="#ABBAC2"/>
<path d="M222.499 64.8732C221.966 65.9993 221.201 67.0004 220.254 67.8112L220.052 67.5852C220.95 66.7918 221.672 65.8194 222.172 64.7305L222.499 64.8732Z" fill="#ABBAC2"/>
<path d="M217.17 69.8511C216.069 70.3859 214.921 70.8179 213.74 71.1416L213.698 71.0168C214.861 70.6661 215.989 70.2103 217.068 69.6548L217.17 69.8511Z" fill="#ABBAC2"/>
<path d="M210.155 71.8375L208.375 72.01L210.149 71.7899L210.155 71.8375Z" fill="#ABBAC2"/>
<path d="M68.3394 31.943C68.3394 31.943 56.9486 74.2343 58.1038 76.2147C59.2589 78.1952 87.1852 88.2402 96.2121 81.0261C96.2121 81.0261 95.5274 74.4186 96.4562 69.1315C97.3851 63.8443 103.465 38.1698 103.465 38.1698L68.3394 31.943Z" fill="white"/>
<path d="M90.1504 81.9241C91.0519 81.1905 91.8922 80.3849 92.6632 79.5154C93.0463 79.0886 93.4042 78.6398 93.735 78.1714C94.0803 77.7075 94.3721 77.2079 94.7115 76.7083C94.6028 77.3047 94.4019 77.8805 94.116 78.4152C93.8415 78.9554 93.4972 79.4573 93.0919 79.908C92.6927 80.3592 92.2387 80.7588 91.7402 81.0974C91.2596 81.4588 90.7224 81.7381 90.1504 81.9241Z" fill="#ABBAC2"/>
<path d="M71.4414 39.1452L74.5853 39.7756L77.7233 40.4357L83.9993 41.7441C86.0833 42.1842 88.1674 42.5827 90.2753 42.9752C92.3831 43.3678 94.4791 43.7187 96.6108 43.903C96.0808 43.903 95.539 43.903 95.0031 43.903L93.4013 43.8138C92.3355 43.7068 91.2637 43.5878 90.2038 43.4391C88.084 43.1537 85.9762 42.7671 83.8743 42.3389C81.7723 41.9107 79.7062 41.4349 77.6221 40.8937C75.5381 40.3525 73.4838 39.7934 71.4414 39.1452Z" fill="#ABBAC2"/>
<path d="M70.7031 44.0755L73.8471 44.7118L76.985 45.372L83.2551 46.6566C85.3451 47.0967 87.4232 47.5011 89.537 47.8936C91.6508 48.2862 93.7408 48.6311 95.8725 48.8155C95.3366 48.8155 94.8007 48.8155 94.2648 48.8155L92.6571 48.7203C91.5913 48.6133 90.5254 48.5003 89.4655 48.3516C87.3398 48.0602 85.2319 47.6736 83.136 47.2454C81.04 46.8172 78.9679 46.3414 76.8779 45.8002C74.7879 45.259 72.7395 44.7237 70.7031 44.0755Z" fill="#ABBAC2"/>
<path d="M69.959 49.0355L73.1029 49.6719L76.2409 50.332L82.5109 51.6404C84.6009 52.0805 86.679 52.479 88.7928 52.8715C90.9067 53.2641 92.9967 53.6149 95.1283 53.7993C94.5925 53.7993 94.0566 53.7993 93.5207 53.7993L91.9189 53.7042C90.8471 53.5971 89.7813 53.4841 88.7214 53.3354C86.6016 53.05 84.4878 52.6634 82.3918 52.2352C80.2959 51.807 78.2237 51.3252 76.1397 50.79C74.0556 50.2547 72.0014 49.66 69.959 49.0355Z" fill="#ABBAC2"/>
<path d="M69.2148 53.942L72.3647 54.5784L75.5027 55.2386L81.7727 56.541C83.8627 56.9811 85.9408 57.3796 88.0547 57.7781C90.1685 58.1765 92.2585 58.5155 94.3902 58.6999C93.8543 58.6999 93.3184 58.6999 92.7825 58.6999L91.1748 58.6107C90.1089 58.5036 89.0431 58.3906 87.9832 58.236C85.8575 57.9505 83.7496 57.5639 81.6536 57.1357C79.5577 56.7075 77.4855 56.2318 75.3955 55.6906C73.3055 55.1494 71.2572 54.5903 69.2148 53.942Z" fill="#ABBAC2"/>
<path d="M68.4766 58.8723L71.6205 59.5087L74.7585 60.1689L81.0285 61.4713C83.1185 61.9174 85.1966 62.3158 87.3104 62.7084C89.4242 63.1009 91.5142 63.4458 93.6459 63.6302C93.11 63.6302 92.5741 63.6302 92.0382 63.6302L90.4305 63.535C89.3647 63.428 88.2989 63.315 87.239 63.1663C85.1132 62.8749 83.0054 62.4883 80.9094 62.0601C78.8135 61.6319 76.7413 61.1561 74.6573 60.6209C72.5732 60.0856 70.5189 59.5265 68.4766 58.8723Z" fill="#ABBAC2"/>
<path d="M67.7314 63.8086L70.8813 64.439L74.0134 65.0992L80.2893 66.4076C82.3793 66.8477 84.4574 67.2461 86.5713 67.6386C88.6851 68.0312 90.7691 68.3821 92.9068 68.5664C92.3709 68.5664 91.835 68.5664 91.2991 68.5664L89.6914 68.4772C88.6255 68.3702 87.5597 68.2512 86.4998 68.1025C84.3741 67.8171 82.2662 67.4305 80.1702 67.0023C78.0743 66.5741 76.0021 66.0983 73.9121 65.5571C71.8221 65.0159 69.7738 64.4568 67.7314 63.8086Z" fill="#ABBAC2"/>
<path d="M66.9932 68.739L70.1371 69.3753L73.2751 70.0355L79.5391 71.3379C81.6292 71.778 83.7072 72.1824 85.8211 72.575C87.9349 72.9675 90.0249 73.3124 92.1566 73.4968C91.6207 73.4968 91.0848 73.4968 90.5489 73.4968L88.9412 73.4016C87.8753 73.2946 86.8095 73.1816 85.7496 73.0329C83.6239 72.7415 81.516 72.3549 79.4201 71.9267C77.3241 71.4985 75.252 71.0227 73.1679 70.4815C71.0839 69.9403 69.0355 69.3872 66.9932 68.739Z" fill="#ABBAC2"/>
<path d="M224.602 134.873C224.602 134.873 235.778 124.703 234.272 119.63C232.765 114.557 235.343 108.925 231.89 102.817C228.436 96.7091 226.846 97.732 218.695 96.2749C210.543 94.8178 209.281 90.3633 202.058 95.9121C194.978 101.354 196.509 104.75 205.458 105.553C210.817 106.028 217.409 104.482 218.022 114.206C218.545 121.518 220.8 128.602 224.602 134.873Z" fill="#7FC991"/>
<path d="M229.257 156.848C226.548 154.862 229.954 147.112 235.164 143.395C238.737 140.832 241.797 143.711 246.972 140.422C250.628 138.108 250.735 135.664 253.444 135.378C256.648 135.069 257.475 138.406 262.328 139.988C267.002 141.516 268.473 139.155 271.26 140.713C276.428 143.58 278.911 155.647 275.172 158.811C272.885 160.744 268.67 153.601 263.007 155.213C260.179 156.01 260.03 158.044 257.243 158.406C253.361 158.918 251.884 155.177 247.978 154.047C240.505 151.87 232.276 159.061 229.257 156.848Z" fill="#7FC991"/>
<path d="M203.427 208.667C205.551 201.471 207.988 194.378 210.739 187.388C212.09 183.885 213.579 180.441 215.133 177.021C216.687 173.602 218.372 170.242 220.218 166.965C222.03 163.656 224.19 160.55 226.661 157.699L228.59 155.635C229.245 154.963 229.96 154.344 230.644 153.696C231.002 153.381 231.329 153.042 231.698 152.751L232.806 151.87C233.531 151.269 234.288 150.707 235.075 150.187C238.162 148.017 241.542 146.295 245.114 145.073C248.668 143.809 252.423 143.205 256.195 143.288C252.44 143.298 248.718 143.987 245.209 145.322C241.69 146.589 238.367 148.343 235.337 150.532C234.557 151.044 233.842 151.65 233.116 152.233L232.026 153.113C231.663 153.405 231.341 153.744 230.99 154.053C230.317 154.695 229.614 155.314 228.965 155.98L227.066 158.038C224.636 160.872 222.514 163.956 220.736 167.238C218.882 170.485 217.18 173.814 215.627 177.224C214.049 180.62 212.573 184.063 211.162 187.53C209.75 190.998 208.393 194.495 207.119 198.021C205.844 201.548 204.582 205.099 203.427 208.667Z" fill="#40635B"/>
<path d="M210.745 181.066C212.466 174.869 214.27 168.689 216.104 162.516L221.618 144.014C223.476 137.853 225.328 131.691 227.019 125.488C227.898 122.399 228.615 119.267 229.168 116.103C229.454 114.534 229.558 112.938 229.478 111.345C229.411 110.549 229.224 109.767 228.924 109.026C228.609 108.286 228.156 107.612 227.59 107.04C228.179 107.597 228.66 108.258 229.007 108.99C229.324 109.735 229.524 110.523 229.603 111.328C229.733 112.941 229.675 114.563 229.43 116.163C228.931 119.35 228.263 122.508 227.429 125.625C225.828 131.864 223.97 138.025 222.154 144.198L216.521 162.629C214.615 168.761 212.704 174.904 210.745 181.066Z" fill="#40635B"/>
<path d="M213.169 186.21C213.169 186.21 213.669 173.608 217.784 171.978C221.898 170.349 224.232 165.763 230.068 164.877C235.903 163.991 236.022 165.567 241.185 170.152C246.347 174.738 249.92 173.275 249.997 180.858C250.074 188.309 247.056 189.053 241.911 183.599C238.833 180.334 236.451 175.214 229.74 179.829C224.794 183.225 219.118 185.411 213.169 186.21Z" fill="#7FC991"/>
<path d="M205.047 209.06C205.841 205.491 206.815 201.98 207.971 198.527C209.119 195.061 210.475 191.667 212.031 188.363C213.592 185.054 215.475 181.907 217.652 178.966C218.182 178.223 218.802 177.545 219.397 176.849C219.998 176.159 220.634 175.5 221.302 174.875L221.797 174.399L222.333 173.965L223.398 173.102C224.119 172.543 224.917 172.091 225.673 171.592L224.571 172.4C224.197 172.656 223.837 172.932 223.494 173.227L222.481 174.137L221.975 174.589C221.815 174.75 221.66 174.916 221.505 175.083C220.909 175.749 220.231 176.367 219.683 177.093C219.135 177.818 218.522 178.485 218.022 179.24C215.919 182.194 214.093 185.336 212.567 188.625C210.999 191.898 209.608 195.253 208.399 198.676L207.494 201.251L206.649 203.844L205.827 206.443L205.047 209.06Z" fill="#40635B"/>
<path d="M146.533 34.1197H127.521V50.671H146.533V34.1197Z" fill="#94C8E3"/>
<path d="M149.701 43.5224H124.353V26.4358C132.64 24.0986 141.413 24.0986 149.701 26.4358V43.5224Z" fill="#00A2AF"/>
<path d="M125.948 27.4944C126.842 27.7421 127.748 27.9407 128.663 28.0891C129.574 28.2437 130.486 28.3746 131.408 28.4519C133.241 28.6243 135.082 28.7017 136.922 28.6838C137.845 28.6482 138.762 28.6482 139.685 28.5649L141.061 28.4697C141.517 28.4142 141.976 28.3667 142.436 28.327C144.276 28.1367 146.098 27.8155 147.932 27.5122C147.039 27.7739 146.146 28.0237 145.241 28.2497C144.336 28.4757 143.454 28.6541 142.502 28.779C140.66 29.0762 138.799 29.2431 136.934 29.2786C135.065 29.2998 133.198 29.1745 131.349 28.9039C129.498 28.6539 127.685 28.1806 125.948 27.4944Z" fill="#94C8E3"/>
<path d="M125.984 30.5573C126.127 32.4604 126.151 34.3516 126.216 36.2429C126.216 37.1885 126.282 38.1282 126.33 39.0738C126.363 40.0192 126.446 40.9622 126.58 41.8988C126.209 41.0126 125.961 40.0803 125.841 39.1273C125.702 38.1795 125.618 37.2243 125.591 36.2667C125.534 34.3552 125.665 32.4428 125.984 30.5573Z" fill="#94C8E3"/>
<path d="M129.372 31.1936C129.592 32.9778 129.646 34.762 129.699 36.5462L129.741 39.2165V40.5547C129.735 40.999 129.783 41.4423 129.884 41.875C129.517 41.0437 129.303 40.1533 129.253 39.2463C129.152 38.3542 129.104 37.4621 129.08 36.5581C129.035 34.765 129.132 32.9712 129.372 31.1936Z" fill="#94C8E3"/>
<path d="M133.23 31.7884C133.385 33.3882 133.421 34.9702 133.486 36.5462C133.486 37.3372 133.552 38.1282 133.599 38.9251C133.635 39.7216 133.713 40.5156 133.831 41.304C133.488 40.5708 133.253 39.7914 133.135 38.9905C133.001 38.2039 132.919 37.4091 132.891 36.6116C132.819 34.9962 132.933 33.3779 133.23 31.7884Z" fill="#94C8E3"/>
<path d="M147.628 30.5573C147.938 32.4417 148.057 34.3524 147.985 36.2607C147.964 37.2184 147.882 38.1738 147.741 39.1214C147.622 40.0763 147.374 41.0107 147.003 41.8988C147.147 40.965 147.239 40.0238 147.277 39.0797C147.33 38.1341 147.372 37.1944 147.396 36.2488C147.461 34.3516 147.485 32.4604 147.628 30.5573Z" fill="#94C8E3"/>
<path d="M144.211 31.1936C144.443 32.9678 144.535 34.7576 144.485 36.5462C144.485 37.4443 144.413 38.3304 144.312 39.2344C144.258 40.1408 144.044 41.0307 143.681 41.8631C143.783 41.4307 143.829 40.9869 143.818 40.5428L143.847 39.2047L143.889 36.5343C143.943 34.762 143.996 32.9778 144.211 31.1936Z" fill="#94C8E3"/>
<path d="M140.358 31.7884C140.648 33.3567 140.76 34.9528 140.692 36.5462C140.668 37.3438 140.589 38.1387 140.454 38.9251C140.333 39.7263 140.097 40.5057 139.751 41.2386C139.872 40.4503 139.951 39.6563 139.989 38.8597C140.037 38.0747 140.078 37.2837 140.096 36.4808C140.168 34.994 140.204 33.412 140.358 31.7884Z" fill="#94C8E3"/>
<path d="M136.85 31.7884C137.073 33.3642 137.175 34.9548 137.154 36.5462C137.154 37.3431 137.118 38.1341 137.053 38.9251C137.01 39.7292 136.882 40.5266 136.672 41.304C136.672 40.5071 136.6 39.7161 136.588 38.9251C136.576 38.1341 136.559 37.3491 136.559 36.5462C136.558 34.9558 136.655 33.3668 136.85 31.7884Z" fill="#94C8E3"/>
<path opacity="0.11" d="M140.662 221.365C181.699 221.365 214.967 220.691 214.967 219.86C214.967 219.029 181.699 218.355 140.662 218.355C99.6241 218.355 66.3564 219.029 66.3564 219.86C66.3564 220.691 99.6241 221.365 140.662 221.365Z" fill="#344C82"/>
<path d="M138.5 209.922C180.666 209.922 214.848 175.781 214.848 133.666C214.848 91.5504 180.666 57.4093 138.5 57.4093C96.3344 57.4093 62.1523 91.5504 62.1523 133.666C62.1523 175.781 96.3344 209.922 138.5 209.922Z" fill="#F3F8FA"/>
<path d="M155.352 130.079C171.265 130.079 184.165 117.195 184.165 101.3C184.165 85.4062 171.265 72.5214 155.352 72.5214C139.438 72.5214 126.538 85.4062 126.538 101.3C126.538 117.195 139.438 130.079 155.352 130.079Z" fill="white"/>
<path d="M70.8458 179.876C70.8458 179.876 57.3412 218.73 61.4438 219.842C65.5464 220.954 94.8362 196.356 94.8362 196.356L70.8458 179.876Z" fill="#4C649E"/>
<path d="M205.66 179.876C205.66 179.876 219.159 218.73 215.056 219.842C210.954 220.954 181.664 196.356 181.664 196.356L205.66 179.876Z" fill="#4C649E"/>
<path d="M138.488 48.2505C121.575 48.2528 105.042 53.2643 90.9803 62.6513C76.9186 72.0383 65.9595 85.3791 59.4887 100.987C53.0179 116.595 51.3261 133.768 54.6271 150.337C57.9282 166.905 66.0739 182.123 78.0342 194.067C89.9945 206.012 105.232 214.146 121.821 217.44C138.409 220.735 155.603 219.043 171.229 212.578C186.854 206.113 200.21 195.165 209.606 181.119C219.002 167.072 224.017 150.559 224.017 133.666C224.017 122.448 221.805 111.34 217.507 100.976C213.208 90.6121 206.908 81.1955 198.966 73.2638C191.023 65.3321 181.595 59.0407 171.218 54.7489C160.841 50.4571 149.719 48.2489 138.488 48.2505ZM138.488 209.922C123.388 209.921 108.628 205.447 96.0732 197.068C83.5187 188.688 73.7339 176.778 67.9562 162.844C62.1786 148.909 60.6675 133.577 63.614 118.785C66.5606 103.993 73.8325 90.4062 84.5101 79.7422C95.1878 69.0781 108.792 61.816 123.602 58.8741C138.411 55.9322 153.762 57.4427 167.712 63.2145C181.663 68.9864 193.586 78.7603 201.975 91.3005C210.364 103.841 214.842 118.584 214.842 133.666C214.842 143.68 212.867 153.597 209.029 162.849C205.192 172.101 199.568 180.508 192.478 187.589C185.388 194.67 176.97 200.287 167.707 204.119C158.443 207.951 148.515 209.923 138.488 209.922Z" fill="#00A2AF"/>
<g style="mix-blend-mode:multiply" opacity="0.23">
<path d="M135.522 137.258H140.59L138.059 92.3378L135.522 137.258Z" fill="#94C8E3"/>
</g>
<path d="M134.772 136.229H139.84L137.309 91.3089L134.772 136.229Z" fill="#00A2AF"/>
<g style="mix-blend-mode:multiply" opacity="0.23">
<path d="M135.678 135.961L139.512 139.274L176.525 92.6174L135.678 135.961Z" fill="#94C8E3"/>
</g>
<path d="M134.928 134.932L138.762 138.239L175.775 91.5825L134.928 134.932Z" fill="#00A2AF"/>
<g style="mix-blend-mode:multiply" opacity="0.23">
<path d="M137.309 141.201C140.808 141.201 143.645 138.368 143.645 134.873C143.645 131.378 140.808 128.545 137.309 128.545C133.81 128.545 130.974 131.378 130.974 134.873C130.974 138.368 133.81 141.201 137.309 141.201Z" fill="#94C8E3"/>
</g>
<g style="mix-blend-mode:multiply" opacity="0.23">
<path d="M137.309 143.604C140.808 143.604 143.645 140.771 143.645 137.276C143.645 133.781 140.808 130.948 137.309 130.948C133.81 130.948 130.974 133.781 130.974 137.276C130.974 140.771 133.81 143.604 137.309 143.604Z" fill="#94C8E3"/>
</g>
<path d="M137.309 142.557C140.808 142.557 143.645 139.724 143.645 136.229C143.645 132.734 140.808 129.901 137.309 129.901C133.81 129.901 130.974 132.734 130.974 136.229C130.974 139.724 133.81 142.557 137.309 142.557Z" fill="#00A2AF"/>
<g style="mix-blend-mode:multiply" opacity="0.23">
<path d="M134.481 138.15C134.718 138.887 135.226 139.506 135.902 139.884C136.579 140.261 137.373 140.369 138.125 140.184C140.019 139.649 140.894 136.913 139.733 135.367C139.317 134.859 138.747 134.501 138.108 134.346C137.47 134.192 136.799 134.249 136.196 134.51C135.517 134.806 134.969 135.338 134.653 136.008C134.338 136.677 134.277 137.439 134.481 138.15Z" fill="#94C8E3"/>
</g>
<path d="M138.488 61.3762C138.825 61.9401 139.063 62.5577 139.191 63.202C139.319 63.8001 139.383 64.4102 139.381 65.0219C139.385 65.6337 139.322 66.2441 139.191 66.8418C139.061 67.4838 138.824 68.0991 138.488 68.6616C138.157 68.0949 137.919 67.4783 137.785 66.8358C137.527 65.6362 137.527 64.3956 137.785 63.1961C137.916 62.5545 138.153 61.9393 138.488 61.3762Z" fill="#94C8E3"/>
<path d="M102.309 71.0406C102.88 71.3605 103.394 71.7747 103.827 72.2657C104.237 72.7208 104.598 73.2171 104.905 73.7466C105.216 74.2763 105.468 74.8387 105.655 75.4237C105.864 76.0445 105.966 76.6959 105.959 77.3506C105.388 77.0272 104.873 76.6135 104.434 76.1255C104.023 75.6708 103.664 75.1722 103.363 74.6387C103.054 74.1098 102.802 73.5495 102.612 72.9675C102.407 72.3459 102.305 71.6951 102.309 71.0406Z" fill="#94C8E3"/>
<path d="M75.8184 97.5239C76.4746 97.508 77.1287 97.6025 77.7535 97.8034C78.9244 98.18 80.0021 98.8002 80.9153 99.6233C81.4069 100.056 81.8216 100.569 82.142 101.14C81.4864 101.147 80.8344 101.044 80.2127 100.837C79.6302 100.649 79.0693 100.4 78.5395 100.093C78.0061 99.7893 77.5087 99.4262 77.0569 99.0107C76.5665 98.585 76.1482 98.083 75.8184 97.5239Z" fill="#94C8E3"/>
<path d="M66.124 133.666C66.6894 133.335 67.3047 133.098 67.9461 132.964C69.1495 132.71 70.3927 132.71 71.5961 132.964C72.2391 133.092 72.8553 133.33 73.4182 133.666C72.8541 133.999 72.2383 134.236 71.5961 134.367C70.3932 134.625 69.1491 134.625 67.9461 134.367C67.3038 134.237 66.688 133.999 66.124 133.666Z" fill="#94C8E3"/>
<path d="M75.8184 169.807C76.1427 169.238 76.5592 168.725 77.0509 168.291C77.5044 167.879 78.0016 167.518 78.5336 167.214C79.0633 166.908 79.6242 166.659 80.2068 166.471C80.8281 166.261 81.4802 166.157 82.136 166.162C81.8173 166.736 81.4024 167.25 80.9094 167.684C79.9961 168.507 78.9185 169.128 77.7476 169.504C77.1261 169.712 76.4739 169.815 75.8184 169.807Z" fill="#94C8E3"/>
<path d="M102.309 196.267C102.305 195.612 102.407 194.962 102.612 194.34C102.802 193.758 103.054 193.198 103.363 192.669C103.664 192.135 104.023 191.637 104.434 191.182C104.871 190.692 105.386 190.278 105.959 189.957C105.966 190.612 105.864 191.263 105.655 191.884C105.469 192.467 105.217 193.028 104.905 193.555C104.599 194.087 104.238 194.586 103.827 195.042C103.392 195.531 102.879 195.945 102.309 196.267Z" fill="#94C8E3"/>
<path d="M138.488 205.955C138.156 205.389 137.92 204.772 137.791 204.129C137.664 203.531 137.598 202.921 137.595 202.309C137.597 201.696 137.66 201.084 137.785 200.484C137.919 199.843 138.157 199.228 138.488 198.664C138.824 199.226 139.062 199.841 139.191 200.484C139.321 201.083 139.385 201.696 139.381 202.309C139.383 202.921 139.319 203.531 139.191 204.129C139.062 204.773 138.824 205.391 138.488 205.955Z" fill="#94C8E3"/>
<path d="M174.686 196.267C174.115 195.945 173.602 195.531 173.167 195.042C172.756 194.586 172.395 194.087 172.089 193.555C171.777 193.028 171.526 192.467 171.339 191.884C171.131 191.263 171.028 190.612 171.036 189.957C171.607 190.277 172.121 190.691 172.554 191.182C173.375 192.096 173.995 193.172 174.376 194.34C174.586 194.961 174.691 195.612 174.686 196.267Z" fill="#94C8E3"/>
<path d="M201.176 169.807C200.521 169.815 199.868 169.712 199.247 169.504C198.076 169.128 196.998 168.507 196.085 167.684C195.592 167.249 195.175 166.734 194.853 166.162C195.51 166.156 196.164 166.261 196.788 166.471C197.956 166.849 199.031 167.47 199.944 168.291C200.435 168.725 200.852 169.237 201.176 169.807Z" fill="#94C8E3"/>
<path d="M210.87 133.666C210.306 133.997 209.69 134.232 209.048 134.361C207.845 134.619 206.601 134.619 205.398 134.361C204.756 134.23 204.14 133.993 203.576 133.66C204.139 133.324 204.755 133.086 205.398 132.958C206.602 132.704 207.845 132.704 209.048 132.958C209.69 133.094 210.305 133.333 210.87 133.666Z" fill="#94C8E3"/>
<path d="M201.176 97.5239C200.85 98.0909 200.434 98.6012 199.944 99.0345C199.491 99.4487 198.994 99.8117 198.461 100.117C197.931 100.423 197.37 100.673 196.788 100.86C196.164 101.069 195.51 101.171 194.853 101.164C195.177 100.594 195.593 100.081 196.085 99.6471C196.989 98.8183 198.059 98.19 199.223 97.8034C199.854 97.6005 200.514 97.506 201.176 97.5239Z" fill="#94C8E3"/>
<path d="M174.686 71.0406C174.691 71.6956 174.586 72.3469 174.376 72.9675C173.995 74.1354 173.375 75.211 172.554 76.1255C172.119 76.6145 171.606 77.0285 171.036 77.3506C171.028 76.6959 171.131 76.0445 171.339 75.4237C171.527 74.8387 171.778 74.2763 172.089 73.7466C172.397 73.2171 172.758 72.7208 173.167 72.2657C173.601 71.7747 174.114 71.3605 174.686 71.0406Z" fill="#94C8E3"/>
<g style="mix-blend-mode:multiply" opacity="0.23">
<path d="M138.488 61.3702C158.381 61.3677 177.49 69.121 191.745 82.9794C206 96.8379 214.277 115.707 214.812 135.569C214.812 134.932 214.842 134.302 214.842 133.666C214.931 123.595 213.022 113.607 209.225 104.277C205.428 94.9479 199.819 86.462 192.721 79.3095C185.623 72.157 177.177 66.4796 167.87 62.6052C158.563 58.7307 148.58 56.7359 138.497 56.7359C128.414 56.7359 118.431 58.7307 109.124 62.6052C99.8176 66.4796 91.3714 72.157 84.2733 79.3095C77.1752 86.462 71.5658 94.9479 67.7691 104.277C63.9723 113.607 62.0633 123.595 62.1524 133.666C62.1524 134.302 62.1524 134.932 62.1524 135.569C62.6892 115.705 70.9678 96.8354 85.2254 82.977C99.483 69.1185 118.594 61.3661 138.488 61.3702Z" fill="#94C8E3"/>
</g>
<path d="M134.481 137.133C134.718 137.87 135.226 138.489 135.902 138.867C136.579 139.244 137.373 139.351 138.125 139.167C140.019 138.632 140.894 135.896 139.733 134.35C139.317 133.842 138.747 133.484 138.108 133.329C137.47 133.175 136.799 133.232 136.196 133.493C135.517 133.789 134.969 134.321 134.653 134.991C134.338 135.66 134.277 136.422 134.481 137.133Z" fill="#5F259F"/>
<path d="M155.352 52.1935C161.012 53.2065 166.531 54.8916 171.792 57.213C177.073 59.5063 182.098 62.3468 186.785 65.6879C189.107 67.3856 191.34 69.1999 193.478 71.1238C195.599 73.0675 197.606 75.1306 199.492 77.303C203.231 81.6602 206.43 86.4528 209.019 91.5765C207.625 89.0759 206.1 86.65 204.452 84.3089C202.82 81.964 201.051 79.7179 199.152 77.5825C197.235 75.4653 195.234 73.4194 193.12 71.5103C190.986 69.6137 188.756 67.8271 186.44 66.1578C181.796 62.8255 176.829 59.9683 171.613 57.6293C169.008 56.4441 166.343 55.3959 163.628 54.4892C160.921 53.5478 158.157 52.781 155.352 52.1935Z" fill="#94C8E3"/>
<path d="M137.196 213.449C131.446 213.479 125.712 212.822 120.118 211.492C114.51 210.195 109.054 208.314 103.839 205.878C101.246 204.622 98.7198 203.232 96.271 201.715C93.8314 200.192 91.4833 198.528 89.2388 196.731C84.7654 193.119 80.7484 188.977 77.2764 184.396C79.1091 186.614 81.0569 188.734 83.1117 190.748C85.1452 192.757 87.2944 194.645 89.5484 196.404C91.8171 198.14 94.1572 199.782 96.5866 201.286C99.0269 202.769 101.543 204.123 104.125 205.343C109.297 207.781 114.701 209.694 120.255 211.052C123.032 211.742 125.842 212.29 128.675 212.693C131.496 213.125 134.342 213.377 137.196 213.449Z" fill="#94C8E3"/>
<path d="M164.021 106.397C164.241 106.611 164.318 106.582 164.461 106.796C164.926 107.48 166.432 108.021 167.29 108.342C168.766 109.532 171.13 111.91 171.66 109.573C172.125 107.521 172.512 106.492 172.142 105.285C172.142 105.166 171.243 104.607 171.166 104.476C170.502 103.154 169.759 101.873 168.939 100.64C167.718 98.9275 166.116 99.8909 166.373 100.396C166.456 100.557 169.308 101.788 168.754 101.449C168.451 100.881 167.99 100.412 167.426 100.099C165.968 99.0167 164.366 100.188 165.604 100.973C166.031 101.067 166.462 101.136 166.897 101.181C166.95 101.189 166.999 101.217 167.033 101.259C167.063 101.3 166.438 100.866 166.099 100.664C164.562 99.7006 163.526 101.187 163.961 101.77C164.122 101.984 165.271 101.645 165.462 101.83C165.652 102.014 164.241 100.979 163.8 101.3C162.681 102.115 163.032 104.227 163.348 104.75L164.491 103.685C164.437 103.602 164.932 104.399 165.122 104.809C165.319 105.374 165.289 105.309 165.039 105.107" fill="#EDBDA3"/>
<path d="M164.021 101.235C164.274 101.17 164.541 101.17 164.795 101.235C165.053 101.309 165.29 101.443 165.485 101.628C165.67 101.812 165.821 102.028 165.932 102.264C166.053 102.484 166.158 102.713 166.247 102.948C166.063 102.776 165.894 102.589 165.741 102.389C165.6 102.197 165.447 102.014 165.283 101.842C164.924 101.531 164.488 101.321 164.021 101.235Z" fill="#CC8972"/>
<path d="M165.235 100.343C165.484 100.371 165.731 100.416 165.974 100.48C166.23 100.529 166.479 100.613 166.712 100.729C166.918 100.895 167.091 101.096 167.224 101.324C167.357 101.54 167.467 101.769 167.552 102.008C167.367 101.83 167.206 101.645 167.04 101.467C166.889 101.286 166.722 101.121 166.539 100.973C166.443 100.913 166.339 100.867 166.23 100.837C166.123 100.789 166.003 100.747 165.896 100.694C165.666 100.596 165.445 100.478 165.235 100.343Z" fill="#CC8972"/>
<path d="M166.652 99.7184C166.856 99.7686 167.055 99.8342 167.248 99.9147C167.45 99.992 167.641 100.087 167.843 100.17L167.903 100.2H167.933L168.016 100.242C168.066 100.285 168.11 100.335 168.147 100.39C168.216 100.477 168.272 100.573 168.314 100.676C168.414 100.864 168.49 101.064 168.54 101.271C168.397 101.11 168.266 100.938 168.135 100.771L167.938 100.539C167.912 100.51 167.882 100.484 167.849 100.462H167.808L167.718 100.426C167.51 100.344 167.31 100.24 167.123 100.117C166.954 99.9989 166.796 99.8655 166.652 99.7184Z" fill="#CC8972"/>
<path opacity="0.11" d="M233.646 240.491C233.646 241.324 223.321 241.996 210.578 241.996C197.836 241.996 187.511 241.324 187.511 240.491C187.511 239.658 197.836 238.992 210.578 238.992C223.321 238.992 233.646 239.664 233.646 240.491Z" fill="#344C82"/>
<path d="M223.476 173.459C223.357 174.518 223.017 176.046 222.767 177.265C222.446 178.841 221.642 178.794 221.701 178.151C221.701 177.914 222.19 174.202 222.249 173.988C222.309 173.774 222.059 173.816 221.969 174.613C221.969 174.613 221.749 175.558 221.588 176.397C221.195 178.443 220.463 177.991 220.457 177.444C220.457 177.247 220.725 173.971 220.731 173.774C220.731 173.685 220.648 172.276 220.6 171.883C220.451 171.217 220.332 171.128 220.237 171.473C220.04 173.108 219.689 174.143 219.213 173.852C218.826 173.602 219.111 171.883 219.159 170.694C219.296 169.633 219.671 168.617 220.255 167.72C220.85 166.132 221.832 163.7 223.315 165.216C224.469 166.442 225.319 167.921 225.798 169.534C225.845 169.713 225.875 169.896 225.887 170.081C225.942 171.211 225.918 172.344 225.816 173.471C225.691 175.338 225.048 175.808 225.006 175.303C225.006 175.148 225.173 172.216 224.917 172.728C224.881 173.774 224.506 175.035 224.369 176.248C224.179 177.854 223.41 177.729 223.416 177.081C223.416 176.837 223.696 173.905 223.702 173.667C223.702 173.626 223.702 173.328 223.589 173.31C223.476 173.293 223.488 173.382 223.476 173.459Z" fill="#EDBDA3"/>
<path d="M171.369 105.285L186.755 118.125L184.874 117.108L199.426 120.582L197.813 132.125L182.956 125.107L181.759 124.816L181.081 124.085L167.463 109.389L171.369 105.285Z" fill="#FF6900"/>
<path d="M215.342 159.834C215.342 159.834 220.481 181.06 221.696 199.086C221.696 199.086 217.034 202.987 212.657 203.612C212.657 203.612 205.089 186.805 199.271 170.7L215.342 159.834Z" fill="#9B9B9B"/>
<path d="M210.579 164.413C210.579 164.413 205.815 185.455 198.045 203.356C198.045 203.356 192.727 204.213 188.518 202.815C188.518 202.815 190.101 176.891 192.817 158.734L210.579 164.413Z" fill="#9B9B9B"/>
<path d="M201.01 119C202.201 118.22 201.725 115.503 201.606 114.04L208.662 108.633C208.662 108.818 208.662 114.468 208.721 114.652C209.126 117.257 213.657 120.112 214.116 120.367C216.873 121.914 212.872 135.932 198.879 128.236L198.7 128.135C195.901 126.553 198.593 120.564 201.01 119Z" fill="#EDBDA3"/>
<path d="M191.53 132.892C191.596 131.703 192.054 124.382 196.395 121.361C197.859 120.443 199.396 119.647 200.992 118.982C201.271 119.826 201.522 121.361 204.088 121.396C209.506 121.48 210.935 117.935 210.935 117.935C214.508 120.718 215.58 120.356 216.634 121.271C219.986 124.192 222.326 125.565 218.003 136.651L215.3 149.628L216.664 161.219C204.487 167 196.71 166.756 192.447 161.35C192.417 161.35 190.845 145.864 191.53 132.892Z" fill="#FF6900"/>
<path d="M207.226 121.997L203.147 126.458L200.587 122.062L207.226 121.997Z" fill="white"/>
<path d="M205.178 122.247C205.178 122.247 203.713 124.626 201.558 121.955L203.558 121.361L205.178 122.247Z" fill="#333333"/>
<path d="M225.25 167.982L225.316 167.654L225.25 167.982Z" fill="#FCC858"/>
<path d="M225.315 167.666L225.357 167.47L225.315 167.666Z" fill="#FCC858"/>
<path d="M225.358 167.47C225.355 167.427 225.355 167.383 225.358 167.339C225.355 167.383 225.355 167.427 225.358 167.47Z" fill="#FCC858"/>
<path d="M228.323 145.382C226.799 141.558 224.453 132.982 221.452 126.422C218.683 120.362 210.686 116.377 213.562 129.562C214.455 133.678 217.7 142.236 220.523 147.451L220.028 166.792C221.368 166.899 225.512 166.685 225.512 166.685C226.197 163.265 228.323 145.382 228.323 145.382Z" fill="#FF6900"/>
<path d="M225.381 167.339C225.381 167.232 225.428 167.113 225.452 166.977C225.423 167.084 225.423 167.208 225.381 167.339Z" fill="#FCC858"/>
<path d="M219.778 166.792C219.778 166.792 224.017 166.483 225.732 166.108C225.732 166.108 226.107 167.839 225.441 168.457C224.774 169.076 220.635 169.332 220.123 168.785C219.611 168.237 219.778 166.792 219.778 166.792Z" fill="#F2F2F2"/>
<path d="M220.463 167.982C220.528 168.007 220.6 168.007 220.665 167.98C220.729 167.954 220.781 167.903 220.808 167.839C220.823 167.807 220.831 167.772 220.831 167.738C220.832 167.703 220.825 167.668 220.812 167.635C220.798 167.603 220.779 167.574 220.753 167.55C220.728 167.525 220.698 167.506 220.666 167.494C220.634 167.48 220.6 167.473 220.565 167.472C220.531 167.472 220.496 167.478 220.464 167.491C220.432 167.503 220.403 167.522 220.378 167.546C220.354 167.57 220.334 167.599 220.32 167.631C220.294 167.696 220.294 167.769 220.321 167.835C220.348 167.9 220.399 167.953 220.463 167.982Z" fill="#FCC858"/>
<path d="M173.125 105.868C173.125 105.868 169.684 109.555 168.499 111.256C168.499 111.256 166.778 110.067 166.861 108.978C166.945 107.89 170.333 104.345 171.214 104.411C172.095 104.476 173.125 105.868 173.125 105.868Z" fill="#F2F2F2"/>
<path d="M168.183 108.984C168.144 108.998 168.108 109.02 168.077 109.048C168.046 109.076 168.021 109.109 168.004 109.147C167.986 109.185 167.976 109.225 167.974 109.267C167.972 109.308 167.978 109.35 167.993 109.389C168.022 109.467 168.081 109.53 168.157 109.564C168.233 109.599 168.319 109.602 168.397 109.573C168.437 109.559 168.473 109.537 168.503 109.51C168.534 109.482 168.559 109.448 168.577 109.41C168.594 109.373 168.604 109.332 168.606 109.291C168.608 109.249 168.602 109.208 168.588 109.169C168.574 109.13 168.552 109.094 168.524 109.063C168.496 109.032 168.463 109.007 168.425 108.99C168.387 108.972 168.347 108.962 168.305 108.96C168.264 108.958 168.222 108.964 168.183 108.978V108.984Z" fill="#FCC858"/>
<path d="M205.256 185.823C204.946 185.366 204.66 184.896 204.374 184.426C204.088 183.956 203.826 183.474 203.553 182.993C203.035 182.029 202.517 181.06 202.04 180.072L202.165 180.197C200.688 179.411 199.255 178.545 197.872 177.604C199.431 178.215 200.955 178.91 202.439 179.686L202.517 179.722L202.564 179.811C203.07 180.78 203.541 181.773 204.005 182.784C204.225 183.284 204.452 183.784 204.66 184.295C204.869 184.806 205.071 185.282 205.256 185.823Z" fill="#0D1017"/>
<path d="M228.953 225.754L212.543 203.386L218.962 195.113C218.962 195.113 224.696 199.841 226.756 204.575C230.895 214.091 233.348 219.212 234.795 222.001C233.116 223.476 231.014 225.028 228.953 225.754Z" fill="#9B9B9B"/>
<path d="M231.788 229.619L228.954 225.754C231.014 225.028 233.122 223.476 234.795 222.001C236.433 225.171 236.766 225.302 236.766 225.302C236.766 225.302 235.695 228.311 231.788 229.619Z" fill="#EDBDA3"/>
<path d="M185.719 231.445L188.773 201.435L198.3 200.246C198.3 200.246 198.795 212.604 197.175 217.493C194.793 224.63 193.465 229.233 192.691 232.224C190.345 232.227 188.006 231.966 185.719 231.445Z" fill="#9B9B9B"/>
<path d="M191.762 236.465C190.808 237.133 189.689 237.525 188.526 237.6C187.363 237.674 186.203 237.428 185.171 236.887L185.719 231.445C188.001 231.96 190.334 232.218 192.673 232.212C191.733 236.28 191.762 236.465 191.762 236.465Z" fill="#EDBDA3"/>
<path d="M201.421 98.9274C201.421 98.9274 198.717 100.539 198.795 103.519C198.795 104.28 197.884 108.092 197.884 108.092C197.419 112.82 200.325 115.972 201.456 116.008C202.613 116.023 203.761 115.807 204.833 115.374C205.906 114.941 206.881 114.3 207.703 113.486C210.162 111.149 211.639 103.186 209.715 100.563C207.119 97.0481 202.731 97.3514 201.421 98.9274Z" fill="#EDBDA3"/>
<path d="M197.86 109.811C197.86 109.811 198.592 110.245 200.116 109.763C201.087 109.46 202.534 108.437 202.844 109.085C204.249 112.012 204.195 115.58 201.653 116.014C199.11 116.448 197.508 110.887 197.86 109.811Z" fill="#333333"/>
<path d="M208.44 108.116C208.363 107.521 208.024 104.113 208.226 103.424C208.058 103.338 207.872 103.295 207.684 103.299C207.109 103.258 206.569 103.005 206.168 102.59C205.768 102.175 205.536 101.627 205.517 101.051C203.963 101.064 202.412 100.928 200.884 100.646C197.877 100.051 198.663 96.6437 198.723 96.6258C199.521 96.4236 205.963 95.4363 209.637 97.8153C213.311 100.194 211.501 105.904 211.179 106.861C211.167 106.903 211.14 106.939 211.105 106.965C211.07 106.991 211.027 107.005 210.983 107.004L208.667 108.312C208.611 108.314 208.557 108.295 208.515 108.258C208.473 108.222 208.446 108.171 208.44 108.116Z" fill="#333333"/>
<path d="M211.055 99.2784C211.055 99.2784 213.907 100.866 211.65 106.373C211.662 106.373 209.804 104.56 211.055 99.2784Z" fill="#333333"/>
<path d="M199.223 104.024C198.509 105.413 197.58 106.681 196.472 107.783C195.924 108.283 197.568 109.912 198.258 109.983C199.896 110.138 199.223 104.024 199.223 104.024Z" fill="#EDBDA3"/>
<path d="M211.394 108.925C210.656 110.215 209.316 110.774 208.417 110.18C207.518 109.585 207.363 108.057 208.102 106.772C208.84 105.487 210.174 104.916 211.079 105.511C211.984 106.106 212.133 107.634 211.394 108.925Z" fill="#EDBDA3"/>
<path d="M207.798 112.077C207.644 112.66 207.377 113.208 207.012 113.689C206.647 114.178 206.198 114.597 205.684 114.926C205.174 115.257 204.609 115.496 204.017 115.633C203.724 115.703 203.428 115.755 203.129 115.788C202.832 115.788 202.534 115.788 202.236 115.788C202.819 115.705 203.395 115.576 203.957 115.401C204.51 115.226 205.036 114.978 205.523 114.664C206.012 114.35 206.453 113.967 206.833 113.528C207.219 113.09 207.544 112.602 207.798 112.077Z" fill="#CC8972"/>
<path d="M201.671 110.245C201.484 110.7 201.134 111.069 200.689 111.28C200.469 111.391 200.229 111.453 199.983 111.462C199.737 111.472 199.493 111.428 199.266 111.334C199.494 111.318 199.721 111.287 199.944 111.238C200.15 111.184 200.35 111.108 200.54 111.012C200.949 110.808 201.33 110.55 201.671 110.245Z" fill="#EDBDA3"/>
<path d="M200.182 105.933C200.182 106.189 200.295 106.403 200.462 106.415C200.628 106.427 200.783 106.225 200.795 105.969C200.807 105.713 200.688 105.505 200.515 105.493C200.342 105.481 200.2 105.678 200.182 105.933Z" fill="#233561"/>
<path d="M210.602 106.26C210.272 106.231 209.942 106.31 209.661 106.486C209.537 106.573 209.433 106.687 209.358 106.82C209.284 106.957 209.228 107.102 209.191 107.254L209.108 107.087C209.264 107.15 209.412 107.232 209.548 107.331C209.633 107.39 209.701 107.469 209.746 107.562C209.791 107.655 209.811 107.757 209.804 107.86C209.781 107.964 209.724 108.058 209.644 108.128L209.465 108.289C209.407 108.343 209.346 108.392 209.28 108.437C209.202 108.499 209.113 108.545 209.018 108.574L209.114 108.479C209.086 108.639 209.093 108.803 209.134 108.96C209.175 109.117 209.249 109.263 209.352 109.389C209.202 109.296 209.085 109.159 209.018 108.996C208.946 108.827 208.91 108.645 208.911 108.461L209.006 108.372C209.006 108.372 209.096 108.3 209.131 108.259L209.292 108.098C209.399 107.991 209.53 107.872 209.524 107.807C209.519 107.741 209.471 107.646 209.364 107.563C209.25 107.481 209.129 107.411 209 107.355C208.971 107.342 208.946 107.318 208.932 107.289C208.918 107.259 208.915 107.226 208.923 107.194C208.972 107.015 209.048 106.844 209.149 106.689C209.254 106.53 209.4 106.402 209.572 106.32C209.731 106.241 209.904 106.194 210.081 106.184C210.258 106.174 210.435 106.2 210.602 106.26Z" fill="#CC8972"/>
<path d="M201.891 104.791C202.034 104.613 201.962 104.048 201.212 103.703C200.947 103.577 200.643 103.56 200.366 103.656C200.31 103.696 200.268 103.754 200.246 103.82C200.225 103.887 200.225 103.958 200.247 104.024C200.337 104.256 200.682 104.167 201.129 104.47C201.444 104.684 201.319 104.738 201.635 104.839C201.677 104.858 201.724 104.863 201.77 104.855C201.816 104.846 201.858 104.824 201.891 104.791Z" fill="#233561"/>
<path d="M209.209 115.937C209.209 115.937 206.708 120.195 203.534 121.379C204.739 121.989 205.91 122.664 207.041 123.401C207.041 123.401 211.382 119.285 211.662 118.506C211.526 117.895 211.226 117.333 210.794 116.88C210.361 116.427 209.813 116.101 209.209 115.937Z" fill="white"/>
<path d="M201.605 118.024L201.158 119.582L203.54 121.367C203.54 121.367 201.647 122.205 200.777 122.735C200.104 121.876 199.74 120.816 199.747 119.725C199.9 119.315 200.148 118.947 200.471 118.651C200.794 118.355 201.182 118.14 201.605 118.024Z" fill="white"/>
<path d="M209.548 98.7787C209.548 98.7787 208.048 96.3998 200.533 95.0676C200.533 95.0676 199.283 98.6241 209.548 98.7787Z" fill="#333333"/>
<path d="M210.537 98.5825C210.537 98.5825 209.12 96.6496 204.613 95.365C204.624 95.365 204.291 97.851 210.537 98.5825Z" fill="#333333"/>
<path d="M209.899 99.088C209.899 99.088 209.899 98.0473 211.358 96.9232C211.358 96.9232 212.138 98.2019 209.899 99.088Z" fill="#333333"/>
<path d="M209.876 98.9394C209.876 98.9394 210.62 98.2078 212.448 98.4755C212.448 98.4755 212.067 99.9266 209.876 98.9394Z" fill="#333333"/>
<path d="M199.331 105.939C199.331 106.885 199.926 107.658 200.629 107.658C201.332 107.658 201.927 106.885 201.927 105.939C201.927 104.994 201.332 104.215 200.629 104.215C199.926 104.215 199.331 104.988 199.331 105.939Z" stroke="#F2F2F2" stroke-width="0.37" stroke-miterlimit="10"/>
<path d="M199.367 105.493C199.3 105.336 199.18 105.208 199.027 105.13C198.875 105.053 198.7 105.032 198.533 105.071" stroke="#F2F2F2" stroke-width="0.37" stroke-miterlimit="10"/>
<path d="M202.951 109.407C202.951 109.407 204.213 110.87 204.142 112.19C204.13 112.19 202.796 110.786 202.951 109.407Z" fill="#333333"/>
<path d="M198.533 110.079C198.533 110.079 200.224 108.235 201.51 108.978C201.499 108.978 199.849 111.018 198.533 110.079Z" fill="#333333"/>
<path d="M203.266 110.328C203.266 110.328 204.428 112.113 203.862 113.338C203.844 113.338 202.546 111.595 203.266 110.328Z" fill="#333333"/>
<path d="M203.361 122.746L205.154 124.263L203.147 126.457L201.641 123.876L203.361 122.746Z" fill="#333333"/>
<path d="M183.778 237.006C184.939 236.465 184.51 234.698 185.921 235.698C186.832 236.334 187.309 237.482 188.256 237.613C189.51 237.582 190.728 237.183 191.757 236.465H191.989C191.989 236.465 193.007 238.249 192.715 241.752C192.707 241.847 192.664 241.937 192.595 242.003C192.527 242.07 192.436 242.109 192.34 242.115L188.672 242.329C185.195 241.139 185.999 243.34 176.168 242.139C176.083 242.128 176.003 242.09 175.94 242.032C175.876 241.973 175.834 241.896 175.817 241.811C175.68 240.794 175.805 237.523 183.778 237.006Z" fill="#233561"/>
<path d="M230.121 230.077C230.717 228.947 229.287 227.806 231.014 227.734C232.128 227.681 233.211 228.329 234.033 227.823C235.008 227.032 235.727 225.971 236.099 224.772L236.278 224.624C236.278 224.624 238.171 225.415 240.089 228.365C240.139 228.446 240.159 228.543 240.145 228.637C240.131 228.732 240.084 228.819 240.011 228.882L237.237 231.261C233.765 232.45 235.748 233.693 227.239 238.743C227.166 238.787 227.08 238.807 226.994 238.8C226.909 238.792 226.827 238.758 226.763 238.701C226.019 238.017 224.131 235.359 230.121 230.077Z" fill="#233561"/>
<path d="M201.867 105.957L208.352 106.379" stroke="#F2F2F2" stroke-width="0.37" stroke-miterlimit="10"/>
<path d="M217.087 139.982C216.585 138.921 216.162 137.826 215.818 136.705C215.451 135.591 215.166 134.452 214.967 133.297C215.472 134.354 215.898 135.447 216.241 136.568C216.604 137.684 216.886 138.825 217.087 139.982Z" fill="#C45000"/>
<path d="M193.156 125.577C192.99 126.237 192.811 126.856 192.626 127.486C192.451 128.125 192.238 128.752 191.989 129.366C191.93 128.69 192 128.01 192.198 127.361C192.374 126.701 192.703 126.09 193.156 125.577Z" fill="#C45000"/>
<path d="M209.013 130.514C208.56 132.119 208.013 133.701 207.423 135.271C206.834 136.842 206.173 138.376 205.476 139.904C204.764 141.424 203.946 142.893 203.029 144.299C202.564 145.004 202.035 145.665 201.451 146.274C200.895 146.927 200.116 147.351 199.266 147.463C200.078 147.275 200.796 146.802 201.29 146.131C201.832 145.505 202.318 144.832 202.743 144.121C203.603 142.7 204.381 141.231 205.071 139.72C205.804 138.221 206.453 136.687 207.108 135.152C207.763 133.618 208.382 132.078 209.013 130.514Z" fill="#C45000"/>
<path d="M194.853 138.245C195.12 140.029 195.388 141.813 195.686 143.598C195.984 145.382 196.282 147.166 196.681 148.897C197.032 150.657 197.481 152.396 198.026 154.107C198.294 154.962 198.622 155.796 199.009 156.604C199.371 157.425 199.909 158.156 200.587 158.745C199.837 158.218 199.224 157.518 198.8 156.706C198.365 155.907 197.993 155.076 197.687 154.22C197.087 152.498 196.606 150.737 196.246 148.95C195.889 147.166 195.579 145.382 195.347 143.598C195.115 141.813 194.936 140.029 194.853 138.245Z" fill="#C45000"/>
<path d="M213.585 149.331C213.198 149.432 212.817 149.545 212.43 149.628C212.043 149.711 211.662 149.789 211.275 149.872L210.132 150.086C209.954 150.119 209.78 150.171 209.614 150.241C209.614 150.241 209.584 150.241 209.578 150.241C209.572 150.241 209.608 150.288 209.643 150.318L209.899 150.461C209.797 150.464 209.695 150.452 209.596 150.425C209.531 150.41 209.473 150.374 209.429 150.324C209.407 150.283 209.399 150.236 209.405 150.19C209.412 150.144 209.433 150.102 209.465 150.068C209.632 149.925 209.823 149.815 210.03 149.741C210.417 149.598 210.815 149.49 211.221 149.42C211.999 149.259 212.798 149.229 213.585 149.331Z" fill="#C45000"/>
<path d="M213.109 149.902C212.784 150.298 212.425 150.667 212.037 151.002C211.856 151.153 211.688 151.321 211.537 151.502C211.472 151.566 211.43 151.649 211.418 151.74C211.418 151.823 211.513 151.912 211.62 151.989C211.544 152.002 211.465 151.994 211.394 151.964C211.322 151.935 211.26 151.886 211.215 151.823C211.175 151.747 211.154 151.662 211.154 151.576C211.154 151.49 211.175 151.405 211.215 151.329C211.338 151.079 211.508 150.855 211.716 150.669C212.112 150.306 212.59 150.043 213.109 149.902Z" fill="#C45000"/>
<g style="mix-blend-mode:multiply" opacity="0.23">
<path d="M63.3319 97.8034C62.3971 97.8569 61.5456 97.8926 60.8013 97.9164C56.0727 108.186 53.4412 119.294 53.0605 130.591C53.656 131.293 53.9894 131.715 53.9894 131.715C58.0585 126.506 60.8263 120.405 62.0636 113.915C63.6356 105.279 69.3757 107.373 74.2166 107.486C82.3027 107.712 84.0355 104.833 78.2716 99.2248C72.3946 93.5273 70.7809 97.3633 63.3319 97.8034Z" fill="#4C649E"/>
</g>
<path d="M53.9652 128.361C53.9652 128.361 45.0336 118.096 46.9211 113.712C48.8087 109.329 47.0879 104.036 50.8332 98.9274C54.5785 93.8187 55.8826 94.9071 63.3375 94.4491C70.7924 93.9912 72.3763 90.1492 78.2533 95.8705C84.0172 101.479 82.2845 104.357 74.1984 104.137C69.3574 104 63.6174 101.925 62.0454 110.56C60.8063 117.051 58.0364 123.153 53.9652 128.361Z" fill="#7FC991"/>
<path d="M42.4255 122.241C45.0514 120.748 42.8244 113.463 38.5551 109.591C35.5779 106.921 32.6007 109.175 28.3016 105.701C25.2767 103.245 25.4435 101.033 23.0438 100.509C20.2155 99.9147 19.1199 102.793 14.6124 103.703C10.2716 104.577 9.20573 102.306 6.52029 103.412C1.59597 105.428 -1.89332 115.961 1.11962 119.184C2.95954 121.153 7.47895 115.211 12.3794 117.245C14.8208 118.256 14.7612 120.088 17.1966 120.706C20.5906 121.593 22.3769 118.381 25.9496 117.774C32.8805 116.609 39.484 123.906 42.4255 122.241Z" fill="#7FC991"/>
<path d="M60.0744 171.3C59.3956 167.982 58.6989 164.693 57.8772 161.44C57.0555 158.186 56.2635 154.898 55.3585 151.638C53.6266 145.122 51.4766 138.723 48.9217 132.482C47.6781 129.362 46.1052 126.384 44.2296 123.597L42.7529 121.557C42.2409 120.891 41.6752 120.266 41.1393 119.624C40.8654 119.309 40.6093 118.97 40.3176 118.672L39.4363 117.774C38.872 117.159 38.2758 116.573 37.65 116.02C35.1696 113.73 32.377 111.801 29.3555 110.293C26.3578 108.736 23.1048 107.729 19.751 107.319C23.1343 107.621 26.4327 108.545 29.4805 110.043C32.5491 111.503 35.3957 113.389 37.9358 115.645C38.584 116.207 39.2021 116.803 39.7876 117.43L40.6867 118.333C40.9904 118.631 41.2465 118.97 41.5263 119.291C42.0741 119.939 42.6517 120.57 43.1697 121.236L44.6762 123.294C46.5773 126.104 48.1741 129.109 49.4398 132.256C50.7497 135.384 51.8989 138.566 52.929 141.772C53.9592 144.977 54.9297 148.231 55.7693 151.508C57.508 158.032 58.9549 164.639 60.0744 171.3Z" fill="#40635B"/>
<path d="M61.5037 171.11C60.3843 165.424 59.3184 159.727 58.2585 154.029L55.1265 136.925C54.15 131.209 53.1437 125.5 52.3696 119.749C51.9556 116.874 51.6932 113.98 51.5836 111.078C51.5328 109.62 51.6527 108.161 51.9409 106.73C52.107 106.016 52.3821 105.332 52.7567 104.702C53.1441 104.085 53.6452 103.546 54.2334 103.114C53.665 103.564 53.1897 104.119 52.8341 104.75C52.4876 105.381 52.2386 106.061 52.0957 106.766C51.8556 108.188 51.7817 109.633 51.8754 111.072C52.0427 113.959 52.3587 116.835 52.8222 119.689C53.6855 125.411 54.6918 131.12 55.7101 136.824L58.6873 153.952C59.6757 159.655 60.6284 165.377 61.5037 171.11Z" fill="#40635B"/>
<path d="M53.7267 150.193C53.7267 150.193 54.602 138.893 51.0948 136.978C47.5877 135.063 45.9562 130.74 40.8353 129.324C35.7145 127.909 35.4764 129.324 30.3377 132.893C25.199 136.461 22.192 134.772 21.3227 141.558C20.4712 148.213 23.109 149.2 28.2715 144.858C31.3678 142.26 34.0354 137.93 39.5551 142.759C43.6275 146.316 48.4829 148.864 53.7267 150.193Z" fill="#7FC991"/>
<path d="M58.5861 171.479L58.1515 169.064L57.6811 166.649L57.1928 164.241L56.6509 161.862C55.9272 158.675 55.0368 155.529 53.9834 152.435C52.9652 149.335 51.6636 146.335 50.0951 143.473C49.7259 142.747 49.2734 142.069 48.8387 141.379C48.4041 140.689 47.9039 140.047 47.4275 139.387L47.0643 138.893L46.6594 138.435L45.8496 137.514C45.5743 137.212 45.282 136.926 44.9743 136.657L44.0752 135.813C44.7064 136.342 45.3733 136.83 45.9627 137.401L46.8261 138.287L47.2608 138.727L47.6538 139.203C48.1599 139.851 48.7137 140.469 49.1543 141.165C49.5949 141.861 50.0951 142.521 50.4941 143.247C52.1382 146.105 53.4945 149.119 54.5431 152.245C55.5867 155.362 56.4398 158.54 57.0975 161.761C57.7563 164.973 58.2532 168.216 58.5861 171.479Z" fill="#40635B"/>
<path opacity="0.11" d="M61.9143 244C90.4029 244 113.497 240.483 113.497 236.144C113.497 231.805 90.4029 228.287 61.9143 228.287C33.4256 228.287 10.3311 231.805 10.3311 236.144C10.3311 240.483 33.4256 244 61.9143 244Z" fill="#344C82"/>
<path d="M17.3275 155.07L10.3311 234.425H27.2893L17.3275 155.07Z" fill="#ABBAC2"/>
<path d="M18.3877 170.134C18.3877 170.134 20.8945 237.464 25.0626 239.873C29.2307 242.281 102.292 245.011 118.696 230.446C118.696 230.446 112.474 220.996 110.955 212.765C109.437 204.534 105.971 164.044 105.971 164.044L18.3877 170.134Z" fill="white"/>
<path d="M48.0289 190.338L34.6077 192.157L33.6133 177.955L47.5705 176.98L48.0289 190.338Z" stroke="#CCCCCC" stroke-width="0.5" stroke-miterlimit="10"/>
<path d="M65.981 189.957L52.0179 190.938L50.958 175.767L64.9866 175.761L65.981 189.957Z" stroke="#CCCCCC" stroke-width="0.5" stroke-miterlimit="10"/>
<path d="M82.8501 187.792L69.4348 189.719L68.4404 175.517L82.3976 174.541L82.8501 187.792Z" stroke="#CCCCCC" stroke-width="0.5" stroke-miterlimit="10"/>
<path d="M49.9456 210.814L35.9348 211.07L34.9404 196.874L48.8976 195.892L49.9456 210.814Z" stroke="#CCCCCC" stroke-width="0.5" stroke-miterlimit="10"/>
<path d="M67.3091 208.875L53.4234 210.879L52.3516 195.654L66.2611 193.953L67.3091 208.875Z" stroke="#CCCCCC" stroke-width="0.5" stroke-miterlimit="10"/>
<path d="M84.7975 208.685L70.7629 208.631L69.7686 194.435L83.7257 193.454L84.7975 208.685Z" stroke="#CCCCCC" stroke-width="0.5" stroke-miterlimit="10"/>
<path d="M51.2257 229.007L37.2625 229.988L36.2324 215.31L50.2253 214.811L51.2257 229.007Z" stroke="#CCCCCC" stroke-width="0.5" stroke-miterlimit="10"/>
<path d="M99.6989 173.818L85.7061 174.797L86.7035 189.028L100.696 188.05L99.6989 173.818Z" stroke="#CCCCCC" stroke-width="0.501224" stroke-miterlimit="10"/>
<path d="M100.731 192.269L86.7725 193.247L87.7689 207.444L101.728 206.466L100.731 192.269Z" stroke="#CCCCCC" stroke-width="0.5" stroke-miterlimit="10"/>
<path d="M103.066 225.379L89.1025 226.354L88.6143 211.23L102.065 211.183L103.066 225.379Z" stroke="#CCCCCC" stroke-width="0.5" stroke-miterlimit="10"/>
<path d="M68.6372 227.788L53.9 227.401L53.6797 214.567L67.6428 213.591L68.6372 227.788Z" stroke="#CCCCCC" stroke-width="0.5" stroke-miterlimit="10"/>
<path d="M86.0532 226.568L72.0901 227.55L71.0957 213.348L85.0231 211.896L86.0532 226.568Z" stroke="#CCCCCC" stroke-width="0.5" stroke-miterlimit="10"/>
<path d="M104.923 148.98L17.3271 155.064L18.387 170.134L105.983 164.044L104.923 148.98ZM33.6899 163.997C33.1951 164.032 32.701 163.92 32.27 163.675C31.8391 163.429 31.4907 163.062 31.2689 162.619C31.0472 162.176 30.9621 161.677 31.0243 161.185C31.0866 160.694 31.2935 160.232 31.6187 159.858C31.944 159.483 32.3731 159.214 32.8517 159.084C33.3302 158.953 33.8367 158.968 34.3071 159.125C34.7775 159.282 35.1906 159.576 35.4941 159.967C35.7976 160.359 35.9779 160.832 36.0121 161.327C36.0356 161.654 35.9942 161.983 35.8901 162.295C35.7861 162.607 35.6215 162.895 35.4057 163.143C35.19 163.391 34.9274 163.594 34.633 163.741C34.3386 163.887 34.0181 163.974 33.6899 163.997ZM48.576 162.956C48.0812 162.991 47.5871 162.879 47.1561 162.634C46.7252 162.389 46.3768 162.021 46.155 161.578C45.9333 161.135 45.8481 160.636 45.9104 160.144C45.9727 159.653 46.1795 159.191 46.5048 158.817C46.8301 158.443 47.2592 158.173 47.7377 158.043C48.2163 157.913 48.7228 157.927 49.1932 158.084C49.6636 158.242 50.0766 158.535 50.3802 158.927C50.6837 159.319 50.864 159.791 50.8982 160.286C50.9445 160.941 50.7314 161.587 50.3048 162.087C49.8783 162.586 49.2724 162.898 48.6177 162.956H48.576ZM63.4918 161.909C62.9971 161.945 62.5029 161.833 62.072 161.587C61.641 161.342 61.2926 160.974 61.0708 160.531C60.8491 160.088 60.764 159.589 60.8262 159.098C60.8885 158.606 61.0954 158.144 61.4207 157.77C61.7459 157.396 62.175 157.127 62.6536 156.996C63.1321 156.866 63.6386 156.88 64.109 157.038C64.5794 157.195 64.9925 157.488 65.296 157.88C65.5995 158.272 65.7798 158.745 65.814 159.239C65.8619 159.894 65.6493 160.542 65.2225 161.042C64.7956 161.542 64.1888 161.853 63.5335 161.909H63.4918ZM78.3779 160.863C77.8831 160.898 77.389 160.786 76.958 160.541C76.5271 160.295 76.1787 159.928 75.9569 159.484C75.7352 159.041 75.65 158.542 75.7123 158.051C75.7746 157.559 75.9814 157.097 76.3067 156.723C76.632 156.349 77.0611 156.08 77.5396 155.95C78.0182 155.819 78.5247 155.834 78.9951 155.991C79.4655 156.148 79.8786 156.441 80.1821 156.833C80.4856 157.225 80.6659 157.698 80.7001 158.192C80.745 158.84 80.5348 159.48 80.1144 159.975C79.694 160.471 79.0966 160.783 78.4493 160.845L78.3779 160.863ZM93.2937 159.822C92.799 159.857 92.3048 159.745 91.8739 159.5C91.4429 159.254 91.0945 158.887 90.8728 158.444C90.651 158.001 90.5659 157.502 90.6281 157.01C90.6904 156.519 90.8973 156.057 91.2226 155.683C91.5479 155.308 91.9769 155.039 92.4555 154.909C92.934 154.778 93.4406 154.793 93.9109 154.95C94.3813 155.107 94.7944 155.401 95.0979 155.792C95.4014 156.184 95.5817 156.657 95.616 157.152C95.6626 157.802 95.4536 158.444 95.0333 158.943C94.613 159.442 94.0145 159.757 93.3652 159.822H93.2937Z" fill="#FF6900"/>
<path d="M61.2952 180.132C61.0137 180.804 60.6645 181.445 60.2532 182.047C59.4506 183.222 58.5134 184.3 57.4606 185.258C56.9217 185.748 56.3353 186.182 55.71 186.555C55.9891 185.884 56.3384 185.244 56.752 184.646C57.1493 184.057 57.5828 183.493 58.0501 182.957C58.5177 182.42 59.0168 181.912 59.5446 181.434C60.0833 180.943 60.6698 180.507 61.2952 180.132Z" fill="#4D4D4D"/>
<path d="M61.7179 186.133C61.0459 185.854 60.4052 185.505 59.8065 185.092C59.2146 184.695 58.6478 184.262 58.1095 183.795C57.5723 183.328 57.0633 182.83 56.5852 182.303C56.0925 181.767 55.6575 181.181 55.2871 180.554C55.9579 180.835 56.5984 181.184 57.1985 181.595C57.791 181.99 58.356 182.426 58.8895 182.897C59.4296 183.361 59.9388 183.86 60.4139 184.39C60.907 184.925 61.344 185.509 61.7179 186.133Z" fill="#4D4D4D"/>
<path d="M81.3978 216.506C81.1186 217.179 80.7693 217.821 80.3557 218.421C79.957 219.009 79.5235 219.573 79.0577 220.11C78.5884 220.645 78.0895 221.153 77.5631 221.632C77.0265 222.124 76.4398 222.559 75.8125 222.929C76.0917 222.258 76.441 221.618 76.8545 221.02C77.6568 219.842 78.5962 218.764 79.6531 217.808C80.1886 217.316 80.7732 216.879 81.3978 216.506Z" fill="#4D4D4D"/>
<path d="M81.8197 222.506C81.1478 222.228 80.5071 221.879 79.9084 221.466C79.3184 221.069 78.7536 220.636 78.2173 220.169C77.6773 219.705 77.1681 219.206 76.693 218.676C76.1922 218.141 75.7491 217.555 75.3711 216.928C76.0438 217.209 76.6862 217.558 77.2884 217.969C78.4672 218.77 79.5466 219.708 80.5038 220.764C80.9994 221.3 81.4402 221.883 81.8197 222.506Z" fill="#4D4D4D"/>
<path d="M45.2119 200.27C44.9285 200.94 44.5773 201.579 44.1639 202.179C43.3662 203.358 42.4285 204.436 41.3713 205.39C40.8424 205.883 40.2637 206.319 39.6445 206.693C39.9261 206.021 40.2752 205.379 40.6866 204.778C41.081 204.185 41.5084 203.615 41.9668 203.071C42.4344 202.534 42.9335 202.026 43.4613 201.548C43.9988 201.062 44.5855 200.634 45.2119 200.27Z" fill="#5F259F"/>
<path d="M45.629 206.27C44.9582 205.989 44.3178 205.64 43.7177 205.23C43.1289 204.829 42.5643 204.394 42.0266 203.927C41.4881 203.464 40.979 202.967 40.5023 202.44C40.0105 201.902 39.5736 201.316 39.1982 200.692C39.8727 200.969 40.5155 201.318 41.1156 201.733C41.7056 202.129 42.2703 202.562 42.8066 203.029C43.3424 203.498 43.8513 203.996 44.331 204.522C44.8222 205.059 45.2572 205.645 45.629 206.27Z" fill="#5F259F"/>
<path d="M104.857 234.419C105.685 233.783 106.459 233.099 107.203 232.403C107.945 231.7 108.639 230.949 109.282 230.155C109.917 229.365 110.475 228.517 110.949 227.621C111.411 226.703 111.772 225.738 112.027 224.743C111.997 225.797 111.775 226.837 111.372 227.811C110.955 228.787 110.408 229.701 109.746 230.529C108.425 232.172 106.755 233.5 104.857 234.419Z" fill="#CCCCCC"/>
<path d="M20.8701 172.27L21.3584 180.31L21.8824 188.345C22.2575 193.698 22.6445 199.05 23.1507 204.403C23.6568 209.755 24.1986 215.078 24.937 220.389C25.3181 223.042 25.7587 225.688 26.3422 228.305C26.4732 228.965 26.634 229.613 26.8067 230.262C26.9794 230.91 27.1639 231.546 27.3604 232.189C27.4555 232.509 27.5668 232.825 27.6939 233.134C27.8014 233.452 27.9266 233.764 28.069 234.068L28.5037 234.972L29.0991 235.805C28.275 234.733 27.6461 233.525 27.2414 232.236C27.021 231.6 26.7888 230.964 26.6459 230.315C26.503 229.667 26.2708 229.019 26.116 228.365C25.4729 225.754 24.9846 223.107 24.544 220.455C23.6985 215.144 23.1209 209.797 22.6088 204.45C22.0967 199.104 21.7514 193.745 21.4775 188.393C21.2036 183.04 20.9416 177.64 20.8701 172.27Z" fill="#CCCCCC"/>
<path d="M18.387 170.135L21.787 169.903L20.87 156.158L17.3271 155.07L18.387 170.135Z" fill="#B46934"/>
<path d="M24.9785 154.529C25.4555 153.509 26.0749 152.562 26.8184 151.716C27.5689 150.819 28.5164 150.106 29.5872 149.634C30.1534 149.395 30.7592 149.264 31.3736 149.248C31.9967 149.247 32.6146 149.362 33.1956 149.587C34.3194 150.059 35.3078 150.803 36.0716 151.751C36.8812 152.685 37.3732 153.851 37.4769 155.082C37.5459 156.299 37.2583 157.51 36.6492 158.567C36.0718 159.581 35.2939 160.468 34.3627 161.172C33.4714 161.888 32.4257 162.387 31.3081 162.629C33.2656 161.687 34.846 160.111 35.7918 158.157C36.2333 157.242 36.4224 156.225 36.3396 155.213C36.2184 154.217 35.8039 153.279 35.1487 152.519C34.5102 151.711 33.6955 151.06 32.7669 150.615C31.8545 150.213 30.8242 150.166 29.879 150.485C28.877 150.839 27.9588 151.396 27.1817 152.12C26.3687 152.848 25.6307 153.655 24.9785 154.529Z" fill="#4D4D4D"/>
<path d="M39.9727 153.185C40.4499 152.162 41.0716 151.212 41.8185 150.366C42.5695 149.469 43.5168 148.757 44.5873 148.284C45.1545 148.049 45.7599 147.92 46.3737 147.904C46.9972 147.899 47.6158 148.014 48.1957 148.243C49.3112 148.714 50.2914 149.456 51.0479 150.401C51.8539 151.337 52.3436 152.502 52.4472 153.732C52.5219 154.949 52.2361 156.161 51.6255 157.217C51.0498 158.232 50.2715 159.119 49.339 159.822C48.4439 160.533 47.3931 161.022 46.2724 161.249C48.23 160.307 49.8104 158.731 50.7561 156.777C51.2093 155.855 51.3989 154.826 51.3039 153.803C51.181 152.808 50.7668 151.871 50.1131 151.109C49.4702 150.306 48.6566 149.656 47.7313 149.206C46.8167 148.803 45.7846 148.757 44.8374 149.075C43.8564 149.447 42.9596 150.012 42.1996 150.734C41.375 151.473 40.6288 152.294 39.9727 153.185Z" fill="#4D4D4D"/>
<path d="M55.0791 152.519C55.511 151.578 56.0743 150.703 56.7523 149.92C57.4446 149.091 58.3159 148.43 59.3008 147.987C59.8263 147.768 60.3872 147.647 60.9561 147.63C61.5347 147.627 62.1086 147.734 62.6472 147.945C63.6764 148.381 64.5809 149.066 65.279 149.938C66.031 150.801 66.486 151.883 66.5771 153.024C66.6424 154.149 66.3753 155.268 65.809 156.242C65.2738 157.172 64.5521 157.982 63.6892 158.621C62.8621 159.27 61.8929 159.714 60.8609 159.917C61.769 159.472 62.5899 158.868 63.2843 158.133C63.9726 157.443 64.5348 156.638 64.9456 155.754C65.3439 154.921 65.5124 153.997 65.4339 153.078C65.3282 152.174 64.9574 151.321 64.368 150.627C63.7954 149.895 63.0647 149.302 62.2304 148.891C61.4016 148.523 60.4657 148.477 59.6045 148.76C58.6896 149.088 57.8495 149.596 57.1334 150.253C56.3725 150.936 55.6841 151.695 55.0791 152.519Z" fill="#4D4D4D"/>
<path d="M69.8818 151.186C70.3116 150.247 70.873 149.374 71.5491 148.593C72.2341 147.765 73.1025 147.108 74.0857 146.672C74.6097 146.445 75.1738 146.323 75.7452 146.315C76.3165 146.307 76.8838 146.412 77.4142 146.625C78.4392 147.059 79.3397 147.742 80.0341 148.611C80.7816 149.473 81.2343 150.55 81.3262 151.686C81.3909 152.807 81.1238 153.922 80.5581 154.892C80.0267 155.821 79.3091 156.631 78.4503 157.27C77.6268 157.916 76.6614 158.356 75.6338 158.555C77.411 157.68 78.8415 156.232 79.6947 154.446C80.0929 153.619 80.2616 152.701 80.183 151.787C80.0792 150.888 79.7126 150.04 79.1291 149.349C78.5538 148.624 77.8261 148.036 76.9974 147.624C76.1749 147.257 75.2446 147.21 74.3893 147.493C73.4777 147.815 72.6411 148.319 71.9302 148.974C71.1738 149.64 70.4875 150.381 69.8818 151.186Z" fill="#4D4D4D"/>
<path d="M85.5596 149.985C85.9788 149.064 86.5261 148.207 87.1851 147.44C87.8586 146.628 88.7103 145.983 89.6741 145.554C90.1854 145.338 90.7326 145.219 91.2877 145.203C91.8535 145.202 92.4146 145.305 92.9431 145.507C93.9474 145.934 94.8309 146.602 95.5154 147.452C96.2467 148.3 96.6906 149.357 96.7837 150.473C96.8487 151.572 96.5877 152.667 96.0334 153.619C95.5083 154.528 94.8033 155.322 93.9613 155.95C93.1529 156.581 92.2059 157.011 91.1984 157.205C92.0893 156.78 92.8961 156.197 93.5802 155.486C94.2465 154.816 94.7906 154.036 95.1879 153.179C95.5792 152.369 95.7438 151.469 95.6642 150.574C95.559 149.698 95.2012 148.871 94.6341 148.195C94.0737 147.484 93.3617 146.907 92.5501 146.506C91.7457 146.15 90.8382 146.104 90.0016 146.375C89.1098 146.692 88.2901 147.184 87.59 147.82C86.8423 148.472 86.162 149.197 85.5596 149.985Z" fill="#4D4D4D"/>
<path d="M56.1266 201.625C56.0499 203.125 56.4683 204.609 57.3175 205.848C57.7163 206.457 58.2484 206.966 58.8735 207.339C59.4986 207.712 60.2004 207.939 60.9259 208.001C61.6469 208 62.3603 207.853 63.0233 207.57C63.6863 207.287 64.2852 206.873 64.7844 206.354C65.8382 205.358 66.4655 203.994 66.535 202.547C66.5295 201.832 66.3717 201.127 66.0719 200.478C65.7721 199.829 65.3372 199.251 64.7963 198.783C64.2887 198.276 63.6697 197.894 62.9885 197.668C62.3073 197.442 61.5827 197.378 60.8723 197.48C60.1675 197.654 59.5169 198 58.9786 198.487C58.4404 198.974 58.0313 199.586 57.7879 200.269C57.2355 201.67 57.2355 203.228 57.7879 204.629C57.1274 203.231 57.0377 201.631 57.5378 200.168C57.7787 199.417 58.2031 198.737 58.7727 198.189C59.3424 197.642 60.0393 197.245 60.8008 197.034C61.5915 196.847 62.42 196.896 63.1826 197.177C63.9302 197.434 64.6186 197.839 65.2071 198.366C65.8131 198.88 66.3023 199.518 66.6422 200.236C66.9821 200.953 67.1648 201.735 67.178 202.529C67.0845 204.119 66.3781 205.611 65.2071 206.693C64.6556 207.26 63.9913 207.705 63.257 208C62.5227 208.295 61.7347 208.433 60.9437 208.405C60.1618 208.317 59.4106 208.051 58.7479 207.627C58.0852 207.203 57.5286 206.633 57.121 205.961C56.31 204.669 55.9596 203.141 56.1266 201.625Z" fill="#FF6900"/>
<path d="M95.8245 175.606C94.3318 175.401 92.813 175.692 91.5016 176.433C90.8574 176.77 90.2992 177.251 89.8699 177.838C89.4405 178.424 89.1513 179.101 89.0246 179.817C88.9583 180.534 89.0375 181.257 89.2574 181.942C89.4774 182.628 89.8336 183.262 90.3048 183.807C91.2014 184.949 92.5047 185.701 93.9429 185.907C94.6561 185.966 95.3738 185.873 96.0483 185.635C96.7228 185.396 97.3387 185.016 97.855 184.521C98.4077 184.063 98.8458 183.483 99.1342 182.826C99.4227 182.17 99.5535 181.455 99.5163 180.739C99.4072 180.022 99.1223 179.343 98.687 178.763C98.2517 178.183 97.6795 177.72 97.0214 177.414C95.6781 176.73 94.1259 176.577 92.6746 176.986C94.132 176.457 95.7384 176.517 97.1524 177.152C97.8781 177.462 98.5154 177.947 99.007 178.564C99.4986 179.18 99.8291 179.909 99.9688 180.685C100.078 181.482 99.9543 182.294 99.6116 183.022C99.28 183.741 98.8083 184.386 98.2242 184.92C97.6539 185.476 96.971 185.905 96.2214 186.177C95.4717 186.449 94.6726 186.557 93.8774 186.496C92.2942 186.259 90.8642 185.42 89.888 184.152C89.3733 183.551 88.9903 182.849 88.7637 182.091C88.537 181.333 88.4718 180.536 88.572 179.751C88.7332 178.983 89.0688 178.261 89.553 177.643C90.0371 177.024 90.6569 176.525 91.3647 176.183C92.7423 175.49 94.3155 175.286 95.8245 175.606Z" fill="#FF6900"/>
<path d="M59.3359 202.702C60.0365 203.166 60.7049 203.677 61.3366 204.23L60.9436 204.266C61.1818 203.891 61.4379 203.529 61.6939 203.166C61.9499 202.803 62.2238 202.446 62.5156 202.107C62.7979 201.761 63.098 201.429 63.4147 201.114C63.7232 200.783 64.0782 200.498 64.4687 200.27C64.1769 200.608 63.9506 200.983 63.6946 201.346L62.9443 202.434C62.4402 203.16 61.9162 203.872 61.3724 204.569L61.1759 204.819L60.9794 204.611C60.3907 204.011 59.8418 203.373 59.3359 202.702Z" fill="#FF6900"/>
<g style="mix-blend-mode:multiply" opacity="0.23">
<path d="M174.513 66.4135C176.073 67.2501 177.599 68.1382 179.092 69.0779C182.343 67.7706 185.471 66.1785 188.44 64.3201C181.486 59.3081 173.814 55.3741 165.683 52.6515C168.856 57.8316 172.232 63.1603 174.513 66.4135Z" fill="#4C649E"/>
</g>
<path d="M162.538 39.2344C162.538 39.2344 181.05 70.4577 182.908 70.9038C184.766 71.3498 206.881 60.6387 207.839 51.1052C207.839 51.1052 203.522 47.6855 200.908 44.0636C198.294 40.4417 186.582 21.9931 186.582 21.9931L162.538 39.2344Z" fill="white"/>
<path d="M204.838 55.2445C204.888 54.2853 204.878 53.324 204.809 52.366C204.779 51.8962 204.719 51.4263 204.642 50.9565C204.564 50.4867 204.463 50.0228 204.38 49.5232C204.69 49.9203 204.932 50.3666 205.094 50.8435C205.263 51.3192 205.367 51.8152 205.404 52.3184C205.444 52.8212 205.418 53.3271 205.327 53.8231C205.248 54.3217 205.083 54.8027 204.838 55.2445Z" fill="#ABBAC2"/>
<path d="M168.605 41.5598L170.791 40.0432L172.988 38.5564L177.388 35.5827C178.859 34.6014 180.312 33.5904 181.759 32.6091C183.206 31.6278 184.641 30.5632 185.998 29.4273C185.695 29.7484 185.403 30.0696 185.075 30.3848L184.093 31.2888C183.414 31.8835 182.735 32.4307 182.033 32.9778C180.639 34.0781 179.186 35.107 177.722 36.1002C176.257 37.0934 174.744 38.0509 173.238 38.9608C171.732 39.8707 170.183 40.745 168.605 41.5598Z" fill="#ABBAC2"/>
<path d="M171.106 44.8724L173.292 43.3559L175.489 41.869L179.889 38.8954C181.36 37.9141 182.807 36.903 184.26 35.9217C185.713 34.9404 187.142 33.8759 188.499 32.7399C188.196 33.0611 187.904 33.3822 187.57 33.6915L186.594 34.6014C185.915 35.1962 185.236 35.7433 184.534 36.2905C183.14 37.3907 181.687 38.4137 180.223 39.4128C178.758 40.412 177.245 41.3635 175.733 42.2735C174.221 43.1834 172.684 44.0398 171.106 44.8724Z" fill="#ABBAC2"/>
<path d="M173.619 48.1494L175.804 46.6328L178.002 45.146L182.396 42.1724C183.873 41.1911 185.32 40.18 186.772 39.1987C188.225 38.2174 189.654 37.1528 191.012 36.0169C190.708 36.3381 190.417 36.6592 190.083 36.9685L189.101 37.8606C188.422 38.4553 187.737 39.0025 187.04 39.5496C185.641 40.6499 184.194 41.6728 182.723 42.6719C181.253 43.6711 179.746 44.6227 178.24 45.5266C176.733 46.4306 175.185 47.3346 173.619 48.1494Z" fill="#ABBAC2"/>
<path d="M176.103 51.4442L178.288 49.9276L180.491 48.4408L184.885 45.4671C186.356 44.4858 187.809 43.4748 189.262 42.4935C190.715 41.5122 192.138 40.4476 193.495 39.3057C193.192 39.6269 192.9 39.954 192.572 40.2632L191.596 41.1732C190.917 41.7679 190.232 42.3151 189.536 42.8622C188.136 43.9565 186.69 44.9854 185.219 45.9786C183.748 46.9718 182.242 47.9353 180.735 48.8393C179.229 49.7432 177.68 50.6294 176.103 51.4442Z" fill="#ABBAC2"/>
<path d="M178.604 54.739L180.765 53.1986L182.962 51.7118L187.362 48.7382C188.833 47.7569 190.286 46.7458 191.733 45.7645C193.18 44.7832 194.615 43.7186 195.973 42.5768C195.669 42.8979 195.377 43.225 195.05 43.5343L194.067 44.4442C193.394 45.0389 192.71 45.5861 192.007 46.1332C190.614 47.2275 189.167 48.2564 187.696 49.2496C186.225 50.2428 184.719 51.2063 183.212 52.1103C181.706 53.0143 180.17 53.9242 178.604 54.739Z" fill="#ABBAC2"/>
<path d="M181.104 58.0338L183.29 56.5173L185.487 55.0304L189.887 52.0568C191.358 51.0814 192.805 50.0704 194.258 49.0831C195.711 48.0959 197.14 47.0373 198.497 45.8954C198.194 46.2165 197.902 46.5436 197.568 46.8529L196.592 47.7628C195.913 48.3576 195.234 48.9047 194.532 49.4459C193.138 50.5462 191.686 51.5751 190.221 52.5683C188.756 53.5615 187.244 54.5249 185.737 55.4289C184.231 56.3329 182.682 57.2191 181.104 58.0338Z" fill="#ABBAC2"/>
<path d="M183.604 61.3286L185.79 59.812L187.987 58.3252L192.387 55.3516C193.858 54.3703 195.305 53.3652 196.758 52.3779C198.211 51.3907 199.64 50.332 200.997 49.1902C200.694 49.5113 200.402 49.8384 200.069 50.1477L199.092 51.0517C198.413 51.6464 197.728 52.1995 197.032 52.7407C195.632 53.8409 194.186 54.8698 192.721 55.863C191.256 56.8562 189.744 57.8137 188.231 58.7237C186.719 59.6336 185.182 60.5138 183.604 61.3286Z" fill="#ABBAC2"/>
</g>
<defs>
<clipPath id="clip0">
<rect width="277" height="244" fill="white"/>
</clipPath>
</defs>
</svg>
