<svg width="270" height="260" viewBox="0 0 270 260" fill="none" xmlns="http://www.w3.org/2000/svg">
<path fill-rule="evenodd" clip-rule="evenodd" d="M135.935 0.0576156C163.511 -1.04421 188.096 13.8439 210.552 28.7008C233.173 43.6672 255.4 60.7807 264.485 85.107C273.662 109.681 270.854 137.108 259.994 161.087C249.69 183.836 227.912 198.995 206.342 213.479C184.789 227.953 162.449 242.134 135.935 244.394C107.751 246.796 77.8705 242.311 55.4308 226.344C33.2718 210.576 25.7573 184.113 16.784 159.61C7.68554 134.766 -6.41762 108.523 3.25272 83.8644C12.8428 59.4102 42.6402 49.1455 65.8548 34.4823C88.2472 20.3385 108.851 1.13975 135.935 0.0576156Z" fill="#5F259F"/>
<path d="M256.343 58.0068H157.912C151.474 58.0068 146.255 63.2258 146.255 69.6638V189.252C146.255 195.69 151.474 200.909 157.912 200.909H256.343C262.781 200.909 268 195.69 268 189.252V69.6638C268 63.2258 262.781 58.0068 256.343 58.0068Z" fill="#00A2AF"/>
<path d="M211.111 142.31H201.456V144.098H211.111V142.31Z" fill="white"/>
<path d="M220.984 158.698H164.797V162.16H220.984V158.698Z" fill="white"/>
<path d="M210.232 175.32H164.797V178.782H210.232V175.32Z" fill="white"/>
<path d="M191.433 167.009H164.797V170.471H191.433V167.009Z" fill="white"/>
<path d="M235.684 72.2573V74.0061H245.98V83.6697H247.729V72.2573H235.684ZM165.764 83.6697H167.513V74.0061H177.801V72.2573H165.756L165.764 83.6697ZM245.98 133.532V143.197H235.684V144.946H247.729V133.532H245.98ZM167.513 133.532H165.764V144.946H177.809V143.197H167.522L167.513 133.532Z" fill="white"/>
<path d="M242.277 179.037C240.24 179.037 238.248 178.433 236.554 177.301C234.86 176.17 233.54 174.561 232.761 172.679C231.982 170.796 231.778 168.725 232.176 166.727C232.574 164.729 233.556 162.894 234.997 161.454C236.438 160.015 238.274 159.034 240.272 158.638C242.27 158.242 244.341 158.447 246.223 159.228C248.104 160.009 249.712 161.33 250.842 163.025C251.972 164.72 252.575 166.712 252.573 168.749C252.567 171.477 251.48 174.092 249.55 176.02C247.62 177.948 245.005 179.033 242.277 179.037ZM242.277 160.436C240.634 160.436 239.029 160.923 237.663 161.836C236.298 162.748 235.233 164.045 234.605 165.563C233.976 167.08 233.812 168.75 234.132 170.361C234.453 171.972 235.244 173.451 236.405 174.613C237.566 175.774 239.046 176.565 240.657 176.885C242.268 177.206 243.937 177.041 245.455 176.413C246.972 175.784 248.269 174.72 249.182 173.354C250.094 171.989 250.581 170.383 250.581 168.741C250.579 166.539 249.703 164.428 248.146 162.871C246.589 161.314 244.479 160.439 242.277 160.436Z" fill="white"/>
<path d="M241.62 172.793L236.941 168.115L238.351 166.705L241.62 169.975L246.202 165.391L247.612 166.801L241.62 172.793Z" fill="white"/>
<path d="M34.752 236.546C39.7439 233.034 45.5876 208.569 45.935 193.997C46.1138 186.533 48.3214 183.423 50.2675 180.674C52.1227 178.052 53.7349 175.783 52.7973 170.586C51.0079 160.646 55.7115 156.355 55.7604 156.313L55.2157 155.692C55.0066 155.876 50.1073 160.302 51.9844 170.732C52.8597 175.591 51.4177 177.623 49.593 180.197C47.6771 182.895 45.2924 186.255 45.1086 193.972C44.7342 209.611 38.7607 232.71 34.2764 235.864L34.752 236.546Z" fill="#00A2AF"/>
<path d="M24.2887 229.41C23.8165 228.341 23.3308 227.236 22.7709 226.071C19.919 220.052 17.3927 219.06 13.2085 217.417C12.1848 217.016 11.0262 216.561 9.75463 215.991C3.7592 213.292 4.91949 209.326 5.94318 205.823C6.08654 205.332 6.22988 204.843 6.353 204.361C6.88087 202.3 5.86729 201.266 4.32923 199.701C3.18917 198.539 1.77084 197.092 0.678007 194.81C-0.519392 192.309 0.0911105 190.968 0.812923 190.284C2.33075 188.842 5.842 189.103 9.15256 190.914C10.1813 191.476 11.0279 192.363 11.9234 193.302C14.0349 195.512 16.6624 198.262 23.3055 198.294C27.0933 198.311 29.1694 198.834 30.2436 200.042C31.463 201.413 31.2336 203.463 30.9182 206.303C30.8086 207.285 30.6838 208.4 30.6079 209.602C30.1559 216.776 34.3907 221.954 34.4328 222.005C36.9626 225.018 40.0826 231.27 38.7367 235.117C38.1718 236.731 36.9103 237.746 34.986 238.136C34.2921 238.282 33.5853 238.358 32.8762 238.363C28.2367 238.358 26.5368 234.513 24.2887 229.41ZM8.7731 191.633C5.8167 190.019 2.64612 189.693 1.39813 190.876C0.450325 191.774 0.892183 193.314 1.44029 194.448C2.4741 196.61 3.78113 197.944 4.93636 199.122C6.5402 200.758 7.80337 202.052 7.16588 204.563C7.0394 205.055 6.89436 205.553 6.74764 206.052C5.72732 209.54 4.76434 212.835 10.1037 215.235C11.3585 215.798 12.507 216.247 13.5222 216.648C17.7468 218.306 20.538 219.401 23.5298 225.717C24.0863 226.897 24.5754 228.002 25.0476 229.074C27.6296 234.928 29.1879 238.461 34.8292 237.319C36.4482 236.992 37.5022 236.158 37.9643 234.839C39.1449 231.447 36.3116 225.511 33.8072 222.527C33.6233 222.308 29.3178 217.056 29.79 209.542C29.8676 208.319 29.994 207.194 30.1037 206.204C30.3988 203.576 30.6096 201.677 29.6365 200.583C28.746 199.581 26.7948 199.127 23.3122 199.111C16.3167 199.079 13.5559 196.186 11.3382 193.864C10.4511 192.933 9.68379 192.13 8.76803 191.631L8.7731 191.633Z" fill="#00A2AF"/>
<path d="M34.9064 243.125L35.7294 243.082C35.6889 242.307 34.6501 224.049 27.3189 218.706C19.2761 212.844 16.7397 206.543 15.5321 202.314C14.1088 197.332 6.86702 195.999 6.5584 195.945L6.41504 196.758C6.48587 196.772 13.4578 198.055 14.7378 202.541C15.9791 206.887 18.583 213.36 26.8315 219.372C33.849 224.487 34.8963 242.946 34.9064 243.125Z" fill="#00A2AF"/>
<path d="M33.5102 247.231C31.7849 246.373 31.8473 242.919 31.9435 237.691C32.0615 231.085 32.2268 222.037 28.7678 213.714C25.0947 204.874 28.3698 202.29 31.5387 199.792C35.0803 196.993 38.4398 194.35 32.0075 182.421C29.0511 176.942 28.1135 173.235 29.0545 170.756C29.9838 168.307 32.5961 167.353 35.3535 166.343C40.1212 164.597 45.523 162.62 44.8248 152.532C44.6106 149.439 44.9749 147.537 45.9699 146.547C47.0509 145.471 48.643 145.587 50.4863 145.722C53.2723 145.926 56.4277 146.157 59.175 142.57C59.4617 141.674 62.0892 133.675 65.2328 132.306C65.5336 132.163 65.8625 132.09 66.1953 132.092C66.5281 132.094 66.8562 132.17 67.1554 132.316C69.3259 133.355 70.5857 134.584 71.0057 136.08C71.7376 138.679 69.8251 141.61 67.6327 145.005C64.167 150.341 60.2409 156.387 64.3137 163.583C69.6986 173.097 66.8535 176.428 62.9173 181.035C60.6625 183.676 58.1058 186.668 56.3974 191.549C55.0229 195.475 57.3671 199.217 59.6337 202.836C62.4788 207.376 65.42 212.071 59.2273 216.146C48.9904 222.882 38.8783 244.868 38.7771 245.089L38.7366 245.18L38.6573 245.243C36.7702 246.722 35.3974 247.435 34.3636 247.435C34.0669 247.436 33.7744 247.366 33.5102 247.231ZM58.7703 215.456C64.2884 211.825 61.8059 207.867 58.9389 203.275C56.6773 199.666 54.1156 195.576 55.6216 191.275C57.3806 186.25 59.9913 183.194 62.2933 180.499C66.1503 175.984 68.7019 173.001 63.5986 163.99C59.2779 156.359 63.5278 149.823 66.9429 144.557C69.0392 141.33 70.8488 138.543 70.2181 136.303C69.8656 135.052 68.7508 133.991 66.8063 133.062C66.6139 132.967 66.4025 132.919 66.1882 132.919C65.974 132.919 65.7626 132.967 65.5701 133.062C62.6525 134.332 59.9744 142.799 59.9474 142.885L59.9272 142.953L59.8833 143.01C56.8477 147.014 53.2943 146.754 50.4391 146.543C48.729 146.419 47.3798 146.319 46.5602 147.13C45.7405 147.941 45.4639 149.675 45.6579 152.473C46.3983 163.18 40.4298 165.363 35.6453 167.115C32.9553 168.1 30.6297 168.952 29.8354 171.048C28.9921 173.286 29.9096 176.782 32.7412 182.028C39.5039 194.569 35.7195 197.554 32.0581 200.441C28.9972 202.856 26.1049 205.137 29.5385 213.399C33.0633 221.88 32.898 231.027 32.7766 237.708C32.6939 242.261 32.6282 245.867 33.8863 246.494C34.6233 246.86 36.0315 246.241 38.0738 244.652C38.8833 242.872 48.5671 222.165 58.7703 215.456Z" fill="#00A2AF"/>
<path d="M17.3502 151.399C22.5614 149.613 21.4787 159.663 23.6796 167.083C25.8804 174.504 48.174 170.324 38.8157 188.931C29.4574 207.538 50.6497 195.153 44.3204 211.39C37.991 227.628 43.7706 244.993 36.8897 240.576C30.0089 236.16 33.0243 215.713 25.8686 213.282C18.7129 210.852 17.5458 208.019 24.6307 201.415C31.7156 194.81 6.06768 188.26 12.397 174.915C18.7264 161.57 11.3295 153.463 17.3502 151.399Z" fill="#00A2AF"/>
<path d="M34.4926 239.512C35.1486 236.733 40.7444 212.272 35.523 209.314C30.9206 206.708 31.0336 196.573 31.7521 187C32.3879 178.527 21.505 174.567 21.0412 174.402L20.7646 175.181C20.8726 175.218 31.5159 179.096 30.9274 186.938C30.1904 196.768 30.1111 207.199 35.1149 210.032C39.0798 212.279 35.4303 231.938 33.6898 239.323L34.4926 239.512Z" fill="white"/>
<path d="M54.1518 230.803L46.7128 259.026H30.0875L22.6484 230.803H54.1518Z" fill="#9B9B9B"/>
<path d="M54.1518 230.803C54.1518 230.803 37.7745 233.878 37.7745 259.026H30.0875L22.6484 230.803H54.1518Z" fill="url(#paint0_linear)"/>
<path d="M243.893 126.339H232.344C231.584 120.809 230.658 114.497 230.658 114.497C230.658 114.497 230.191 119.707 229.622 126.339H183.413C182.991 120.374 182.484 115.912 182.3 115.821C182.035 115.688 180.386 120.98 179.018 126.339H166.506C169.724 112.478 175.726 90.2387 179.197 88.9081C184.135 87.0074 204.278 80.7995 204.278 80.7995H215.773C215.773 80.7995 236.198 86.628 238.099 92.9641C239.596 98.0117 242.929 114.662 243.893 126.339Z" fill="#5F259F"/>
<path d="M210.539 43.5098C210.539 43.5098 221.272 45.1963 219.646 61.9936C218.02 78.7909 208.539 77.4114 207.906 77.3945C207.274 77.3776 198.396 77.6997 197.705 57.1972C197.696 57.1972 197.393 42.0358 210.539 43.5098Z" fill="#EEA987"/>
<path d="M215.55 72.4429C215.55 72.4429 215.255 79.3574 215.924 80.8449C216.594 82.3324 207.067 87.1439 201.252 81.791C201.252 81.791 202.655 74.2845 202.264 71.6232C201.873 68.962 215.55 72.4429 215.55 72.4429Z" fill="#EEA987"/>
<path d="M219.806 57.2509C219.806 57.2509 220.986 55.9944 221.411 57.2661C221.836 58.5377 219.588 64.216 219.735 64.4707C219.735 64.4707 219.521 64.9631 219.239 64.6916C218.957 64.4201 219.806 57.2509 219.806 57.2509Z" fill="#EEA987"/>
<path d="M197.825 57.0384C197.825 57.0384 196.675 55.7601 196.22 57.0216C195.765 58.283 197.906 64.0053 197.756 64.2582C197.756 64.2582 197.962 64.7541 198.249 64.4893C198.535 64.2245 197.825 57.0384 197.825 57.0384Z" fill="#EEA987"/>
<path d="M219.8 59.8264L218.264 61.8805C218.264 61.8805 218.306 57.3759 218.06 56.671C217.813 55.966 217.436 53.804 217.23 53.298C217.024 52.7921 208.013 50.2624 200.053 54.035C200.053 54.035 200.404 57.2748 199.642 57.5631C198.879 57.8515 199.252 62.8367 199.252 62.8367L197.989 61.4117C197.989 61.4117 196.055 48.4949 196.532 47.1458C197.009 45.7966 198.532 37.7015 214.86 42.5096C214.86 42.5096 219.952 41.432 220.974 44.9466C221.996 48.4612 219.8 59.8264 219.8 59.8264Z" fill="#3A3F47"/>
<path d="M215.925 80.8502C215.925 80.8502 218.347 81.3662 208.213 91.0787C208.213 91.0787 201.025 83.1269 201.257 81.803C201.49 80.4792 215.925 80.8502 215.925 80.8502Z" fill="#EEA987"/>
<path d="M208.212 91.0784L210.978 95.8073L219.181 81.8787L215.627 79.3995L208.212 91.0784Z" fill="white"/>
<path d="M208.212 91.0785L201.5 80.3997L197.695 82.8451L204.517 95.8074L208.212 91.0785Z" fill="white"/>
<path d="M206.131 120.663C206.213 122.238 206.251 124.17 206.256 126.339H205.874C205.874 124.179 205.834 122.251 205.751 120.681C205.129 108.834 207.999 94.4193 208.018 91.0396L208.389 91.1138C208.37 94.4918 205.509 108.871 206.131 120.663Z" fill="white"/>
<path d="M203.27 75.4179C203.27 75.4179 205.819 78.1162 209.422 77.3944C213.024 76.6726 214.623 75.0334 214.623 75.0334C214.623 75.0334 213.201 78.5986 209.037 78.9257C204.873 79.2529 203.27 75.4179 203.27 75.4179Z" fill="#C78D71"/>
<path d="M150.789 113.954C150.789 113.954 150.681 112.62 150.838 111.998C151.11 110.923 150.71 109.181 152.062 108.336C153.415 107.491 157.302 111.035 157.608 112.018C157.913 113.001 156.461 114.691 153.42 116.106C150.379 117.521 150.789 113.954 150.789 113.954Z" fill="#EEA886"/>
<path d="M151.65 108.687C152.589 107.302 153.602 105.969 154.686 104.693C156.204 102.924 158.341 100.938 158.791 101.32C159.474 101.892 157.538 103.321 156.15 105.177C154.873 106.888 155.415 106.766 155.415 106.766C155.415 106.766 155.259 106.791 157.018 105.201C158.909 103.493 161.012 101.735 161.386 102.037C161.852 102.41 161.877 102.496 161.294 103.23C161.722 102.88 161.879 102.95 162.044 103.115C162.887 103.97 160.513 106.918 159.567 108.088C160.299 107.193 160.934 106.616 161.117 107.476C161.326 108.459 157.767 112.475 156.632 114.035C155.403 115.733 151.65 108.687 151.65 108.687Z" fill="#EEA886"/>
<path d="M106.175 250.523C106.175 250.523 109.875 252.716 111.549 253.523C113.224 254.331 119.732 254.569 120.376 255.179C121.021 255.79 120.783 257.736 119.702 257.935C118.621 258.134 110.711 258.849 108.065 258.232C105.419 257.615 100.49 258.654 99.3967 258.283C98.3039 257.912 99.0071 252.017 99.4304 250.693C99.8537 249.37 106.175 250.523 106.175 250.523Z" fill="#181929"/>
<path d="M106.482 248.113L106.175 250.523C106.175 250.523 101.229 251.447 99.7295 250.692L100.101 248.189L106.482 248.113Z" fill="#22243B"/>
<path d="M126.319 165.803C126.267 167.471 125.962 171.091 125.609 174.894C125.53 175.738 125.44 176.593 125.364 177.436C124.872 182.553 124.373 187.285 124.373 187.285C123.749 191.358 122.46 198.429 121.02 203.777C120.604 205.32 120.177 206.72 119.749 207.862C119.33 208.973 118.905 209.842 118.506 210.361C115.44 214.277 108.412 248.981 108.412 248.981L98.8193 248.909C98.8193 248.909 100.929 225.404 103.049 219.446C105.41 212.791 109.525 203.824 108.505 197.407C107.866 193.38 107.043 180.561 107.043 180.561C107.043 180.561 106.24 166.157 110.007 155.601C110.955 152.977 126.319 165.803 126.319 165.803Z" fill="#9B9B9B"/>
<path d="M133.134 251.424C133.134 251.424 136.807 253.657 138.471 254.49C140.136 255.323 146.642 255.633 147.278 256.252C147.914 256.871 147.656 258.812 146.575 258.999C145.494 259.187 137.574 259.806 134.938 259.156C132.302 258.507 127.359 259.494 126.27 259.102C125.18 258.711 125.956 252.834 126.395 251.513C126.833 250.193 133.134 251.424 133.134 251.424Z" fill="#181929"/>
<path d="M133.471 249.017L133.133 251.422C133.133 251.422 128.177 252.289 126.688 251.508L127.089 249.008L133.471 249.017Z" fill="#22243B"/>
<path d="M122.003 214.598C121.754 206.921 121.076 201.821 119.101 197.386C117.441 193.66 116.021 181.965 116.021 181.965C116.021 181.965 111.525 168.257 112.438 157.091C112.665 154.301 130.043 161.307 130.043 161.307C130.424 162.933 131.586 168.053 131.999 171.844C134.36 193.527 133.471 207.651 133.471 207.651C132.122 212.439 135.522 250.108 135.522 250.108H125.741C125.741 250.108 123.177 236.708 122.907 228.375C122.907 228.381 121.907 215.925 122.003 214.598Z" fill="#9B9B9B"/>
<path d="M121.785 115.258C121.785 115.258 126.338 122.73 127.674 126.894C129.01 131.058 127.934 143.184 128.168 145.614C128.898 153.173 129.962 161.494 129.962 161.494L114.681 171.27C112.729 166.567 111.015 161.767 109.548 156.89C107.156 148.915 106.964 141.734 106.986 136.935C107.057 121.885 115.191 113.387 115.191 113.387L121.785 115.258Z" fill="white"/>
<path d="M127.399 95.2185C127.399 95.2185 130.532 98.5713 129.647 99.4516C128.916 100.18 131.795 103.521 132.205 104.083C132.615 104.644 130.927 105.575 130.649 106.079C130.37 106.584 130.534 111.842 129.085 112.382C127.636 112.921 120.315 112.351 117.986 110.931C115.657 109.511 111.915 101.319 112.178 97.3857C112.441 93.4528 121.889 89.3715 127.399 95.2185Z" fill="#EEA886"/>
<path d="M124.439 111.245C124.439 111.245 124.385 111.692 124.312 112.385C124.285 112.675 124.25 113.006 124.219 113.369C124.201 113.583 124.182 113.81 124.16 114.043C124.16 114.106 124.147 114.168 124.144 114.23C124.133 114.338 124.125 114.445 124.117 114.558C124.081 115.063 124.044 115.585 124.017 116.102C123.951 117.44 123.941 118.716 124.085 119.428C124.469 121.376 116.077 113.154 116.077 113.154C116.519 108.654 116.642 104.128 116.445 99.6103C116.096 92.4427 124.439 111.245 124.439 111.245Z" fill="#EEA886"/>
<path d="M128.042 95.954C128.042 95.954 129.525 92.4579 124.954 90.0311C119.574 87.1742 113.869 94.3468 113.112 94.7701C112.355 95.1934 108.916 99.0639 112.282 104.196C116.53 110.67 116.306 110.453 116.306 110.453C116.306 110.453 116.731 105.677 116.704 104.754C116.653 103.068 121.072 102.87 121.072 102.87C121.072 102.87 119.257 100.455 121.274 99.3708C123.291 98.2864 125.652 95.7162 128.042 95.954Z" fill="#3A3F47"/>
<path d="M118.752 102.26C118.43 101.808 117.249 99.8112 115.731 101.563C114.213 103.316 118.285 106.593 118.622 106.561C118.959 106.528 121.459 106.063 118.752 102.26Z" fill="#EEA886"/>
<path d="M130.797 164.727C130.797 164.727 130.038 161.152 129.889 160.617L107.547 164.336L107.776 167.223C107.776 167.223 123.874 166.26 130.797 164.727Z" fill="#23263D"/>
<path d="M105.558 148.98C105.558 148.98 108.99 163.803 103.615 181.096C102.959 183.207 118.495 180.759 118.495 180.759L105.558 148.98Z" fill="#FF6900"/>
<path d="M125.293 179.682C125.293 179.682 114.259 182.104 111.159 181.008C111.159 181.008 106.649 164.602 105.076 147.953C104.954 146.666 104.85 145.378 104.767 144.098C103.89 130.55 107.337 116.806 115.195 113.389C115.416 113.537 126.482 123.293 126.271 132.223C126.256 132.829 126.248 133.436 126.244 134.041C126.244 135.139 126.244 136.234 126.268 137.338C126.339 140.735 126.55 144.123 126.85 147.413C126.879 147.751 126.912 148.1 126.946 148.439C127 148.992 127.056 149.542 127.115 150.088C127.193 150.814 127.275 151.535 127.361 152.25C129.149 167.15 125.293 179.682 125.293 179.682Z" fill="#FF6900"/>
<path d="M124.842 121.783C126.271 127.896 127.229 134.11 127.709 140.369C128.372 149.033 129.257 155.16 129.257 155.16L130.584 159.448L131.129 155.311C131.129 155.311 130.643 144.13 129.994 139.582C129.34 134.996 129.055 129.174 125.388 121.622L124.842 121.783Z" fill="#FF6900"/>
<path d="M124.609 121.789C124.78 121.941 124.99 122.043 125.215 122.083C125.569 122.135 126.077 121.577 124.264 119.175L124.609 121.789Z" fill="#FF6900"/>
<path d="M116.175 112.146C116.175 112.146 121.314 116.985 124.371 118.049L124.955 122.683L115.188 113.382L116.175 112.146Z" fill="white"/>
<path d="M119.624 130.881C117.601 130.161 109.18 126.075 111.42 121.305C113.659 116.536 119.43 119.072 123.775 121.014C128.32 123.037 139.049 129.277 139.899 128.7C140.749 128.124 144.453 122.808 145.127 121.617C145.802 120.427 149.849 112.868 150.231 112.298C150.612 111.728 156.489 116.683 156.489 116.683C156.489 116.683 145.922 135.45 143.078 138.438C140.235 141.427 119.624 130.881 119.624 130.881Z" fill="#FF6900"/>
<path d="M121.026 203.777C120.609 205.32 120.183 206.72 119.754 207.862L116.408 187.902C117.253 189.795 121.026 203.777 121.026 203.777Z" fill="#686868"/>
<path d="M126.268 137.333L116.586 129.426C119.151 130.8 125.453 133.677 126.244 134.036C126.236 135.134 126.244 136.236 126.268 137.333Z" fill="#C45000"/>
<path d="M124.311 112.385C124.284 112.675 124.249 113.006 124.219 113.369C124.2 113.583 124.182 113.81 124.16 114.043C120.955 113.829 118.471 111.272 118.319 111.117C119.625 112.153 124.311 112.385 124.311 112.385Z" fill="#A77860"/>
<defs>
<linearGradient id="paint0_linear" x1="23090.2" y1="50684.6" x2="28975.1" y2="50684.6" gradientUnits="userSpaceOnUse">
<stop stop-color="#C9C4C1"/>
<stop offset="1" stop-color="#FFF6DE"/>
</linearGradient>
</defs>
</svg>
