<svg width="269" height="244" viewBox="0 0 269 244" fill="none" xmlns="http://www.w3.org/2000/svg">
<path d="M28.1636 242.414C9.20216 219.718 7.89353 182.657 26.8564 146.836C45.8193 111.014 -8.76811 64.7713 44.0941 19.3788C74.5473 -6.76503 157.404 -16.2228 219.852 55.0378C272.658 115.298 253.375 204.25 218.788 242.414H28.1636Z" fill="#00A2AF"/>
<g style="mix-blend-mode:screen" opacity="0.25">
<path d="M18.0062 43.0835C23.4102 42.2705 28.9033 42.9528 34.336 42.4414C39.8587 41.9021 45.2022 40.1879 50.0079 37.4138C51.364 36.6366 52.7028 35.7705 54.1737 35.3654C56.146 34.8195 58.2044 35.1456 60.2284 35.2418C64.2136 35.4236 68.1897 34.7226 71.8725 33.1891C73.1294 32.6691 74.5328 31.8087 74.7454 30.2645C75.0097 28.2936 73.1782 26.8844 71.5766 26.2093C69.9749 25.5341 68.0443 24.6952 67.6981 22.7359C67.543 21.8582 67.7512 20.8685 67.3462 20.1057C67.0689 19.5871 66.5662 19.3042 66.0864 19.0614C60.7714 16.3766 54.9882 15.3266 49.2351 15.0465C47.9739 14.9847 46.6739 15.0378 45.3566 15.1039C52.1983 10.488 59.5119 6.61356 67.1738 3.54605C70.8243 3.77302 74.4826 3.82329 78.1484 3.69688C85.8178 3.42539 94.0631 2.54771 100.612 7.23348C101.462 7.84111 102.32 8.61824 102.6 9.73869C103.291 12.5053 100.276 14.3929 97.8913 15.0996C97.515 17.0159 99.6754 18.1047 101.329 18.448C106.699 19.5667 111.946 21.2063 116.998 23.3435C120.608 24.8676 124.611 27.3024 125.329 31.721C125.829 34.8296 124.404 38.0415 122.301 40.0267C120.198 42.0119 117.532 42.9586 114.876 43.5648C105.857 45.6132 96.5281 44.2069 87.3821 45.2296C86.1611 45.3661 84.8869 45.5715 83.8929 46.4133C82.3228 47.7435 81.9019 50.24 80.803 52.1118C78.6225 55.8279 74.2498 56.5059 70.4073 56.7516C61.8499 57.2975 53.2692 57.3781 44.703 56.9929C42.5483 56.8967 40.3462 56.776 38.2619 57.4382C36.0713 58.1363 34.1493 59.6547 32.1195 60.8455C27.2959 63.6754 21.8631 64.6637 16.5194 65.6189C11.0436 66.6 5.5218 67.5869 0 67.4289C4.23986 59.0509 9.26872 51.0961 15.0183 43.6725C16.0095 43.4398 17.0035 43.2358 18.0062 43.0835Z" fill="white"/>
</g>
<g style="mix-blend-mode:screen" opacity="0.25">
<path d="M75.6246 124.294C76.465 122.941 77.7492 122.077 79.0205 121.318C97.7075 110.167 119.992 114.04 140.898 112.09C146.25 111.592 151.68 110.654 156.501 107.887C162.13 104.652 167.039 98.9134 173.296 98.4566C177.695 98.1363 183.521 99.7638 185.411 95.0996C185.877 93.9504 185.851 92.6332 185.986 91.3734C187.905 74.2219 215.655 79.2079 218.361 79.3559L238.252 80.4433C244.94 89.6682 250.56 99.6213 255.006 110.112C248.773 110.045 242.538 109.997 236.304 109.927C233.23 109.894 230.097 109.868 227.157 110.922C223.149 112.359 219.793 115.694 215.796 117.174C212.724 118.31 209.442 118.291 206.222 118.261L171.274 117.94C169.074 117.919 166.812 117.911 164.762 118.85C162.751 119.772 161.115 121.528 159.303 122.897C153.306 127.412 145.746 127.493 138.746 129.062C136.524 129.563 134.078 130.447 133.013 132.787C131.241 136.684 134.593 141.146 137.978 143.091C151.558 150.899 168.287 143.325 182.731 148.562C186.596 149.963 190.18 152.245 193.947 153.975C206.301 159.648 220.046 159.146 233.239 157.523C244.407 156.145 255.62 154.019 266.803 154.37C267.654 161.328 268.08 168.332 268.079 175.342C268.079 177.576 268.035 179.796 267.947 182.005L249.23 182.497C237.451 182.809 225.634 183.119 213.892 182.002C207.31 181.376 200.677 180.278 194.57 177.325C190.889 175.545 187.438 173.109 183.653 171.662C176.995 169.118 169.807 169.795 162.814 169.385C152.013 168.75 141.47 165.467 131.021 162.203C114.921 157.175 75.2555 149.641 74.237 130.575C74.1135 128.386 74.5243 126.07 75.6246 124.294Z" fill="white"/>
</g>
<path d="M235.816 242.516C235.816 243.336 235.415 244.001 234.923 244L13.0918 243.792C12.6006 243.792 12.2027 243.127 12.2041 242.306C12.2041 241.486 12.6034 240.821 13.0947 240.823L234.926 241.031C235.418 241.031 235.816 241.696 235.816 242.516Z" fill="#709CD1"/>
<path d="M82.8957 102.349H166.947C167.77 102.349 168.559 102.676 169.141 103.258C169.723 103.84 170.049 104.629 170.049 105.452V241.104H79.793V105.452C79.793 104.629 80.1199 103.84 80.7017 103.258C81.2836 102.676 82.0728 102.349 82.8957 102.349Z" fill="#5F259F"/>
<path d="M111.897 104.437L111.387 107.683H85.3348L85.8448 104.437H83.1485L61.6445 241.104H64.4026L66.405 228.35H92.4195L90.4085 241.104H93.0975L114.58 104.437H111.897ZM92.7786 226.067H66.7627L71.0477 198.754H97.0708L92.7786 226.067ZM97.4299 196.476H71.4054L75.6904 169.163H101.731L97.4299 196.476ZM102.083 166.884H76.0495L80.3345 139.571H106.375L102.083 166.884ZM106.734 137.293H80.6922L84.9772 109.98H111.028L106.734 137.293Z" fill="#F7CC7F"/>
<path d="M46.8982 88.6928C46.8695 88.2618 48.8748 88.4745 49.0874 88.1038C49.3 87.7332 46.7891 87.0021 46.7891 86.6272C46.802 85.9348 49.5916 87.2592 49.6175 86.9403C49.6433 86.6214 46.8336 85.116 47.3019 84.6893C47.7702 84.2627 50.0527 86.5568 50.2323 86.2264C50.4118 85.896 47.9167 84.2843 48.1796 83.5272C48.3232 83.1222 52.094 86.8311 52.6729 86.7449C53.2518 86.6587 52.716 84.4308 53.2072 84.2584C53.6985 84.086 53.7086 88.6339 53.9542 88.8551C54.1998 89.0763 59.2691 94.1844 61.2587 95.3192C61.7183 94.6743 66.0206 91.0817 66.4386 90.4668C67.4039 91.6562 68.6048 92.1173 69.629 93.2407C68.1049 95.2445 62.2412 100.354 61.5373 100.463C59.3826 100.795 53.7129 92.6302 52.5306 91.175C51.3484 89.7199 50.4104 89.8233 49.5054 89.2157C48.6005 88.608 46.9255 89.1252 46.8982 88.6928Z" fill="#F7A491"/>
<path d="M92.3535 83.7314C92.0662 80.4835 89.6759 77.9022 86.52 77.6192C86.2663 76.7514 85.843 75.9424 85.2747 75.2392C84.7063 74.536 84.0042 73.9525 83.2089 73.5224C80.1076 71.9006 75.2853 71.9653 74.4364 75.4904C72.5072 77.4813 71.5261 80.8211 72.9884 83.1482C71.4327 86.1131 73.54 89.9844 77.4113 90.9382C78.1295 93.5152 80.2842 95.6412 82.9072 96.042C83.5364 96.1382 84.506 96.2431 84.6482 96.3293C84.4658 96.2402 87.8214 100.692 92.829 96.6697C97.9385 92.5585 97.0723 85.6304 92.3535 83.7314Z" fill="#184655"/>
<path d="M74.1278 109.223C74.224 109.299 72.1081 110.875 70.1961 111.873C68.5456 113.07 66.8923 114.569 65.9456 116.444C64.5091 119.291 60.8734 134.327 60.0561 135.242C54.3432 138.388 48.0299 148.508 46.1826 151.618C45.8233 152.224 45.2992 152.715 44.6715 153.035L43.8096 156.891L45.4716 159.567C45.4716 159.567 45.835 156.332 47.4654 154.311C47.4654 154.311 63.5323 140.32 64.568 139.196C66.8851 135.824 76.8614 118.014 76.8614 118.014L79.1597 113.923C79.1597 113.923 74.1364 109.229 74.1278 109.223Z" fill="#F7A491"/>
<path d="M41.8857 153.58C41.8857 153.58 42.6945 156.148 42.5796 157.027C42.4646 157.906 43.5204 162.519 44.9469 162.917C45.1379 162.97 45.3879 161.599 45.5013 159.597C44.5518 157.873 44.7501 152.989 44.7501 152.989C44.7501 152.989 42.1357 152.917 41.8857 153.58Z" fill="#355389"/>
<path d="M81.0586 86.0842C81.0586 86.0842 88.1562 78.8875 89.8081 77.3964C91.4601 75.9054 96.459 69.5475 96.6458 69.2933C96.8325 69.039 95.6029 65.0327 96.12 65.0514C96.6371 65.07 96.6443 67.1299 97.2247 67.0452C97.805 66.9604 100.595 62.7789 100.826 63.0891C101.257 63.6637 99.2199 65.7164 99.4713 65.952C99.7227 66.1876 101.398 63.6106 101.952 63.8533C102.507 64.0961 100.136 66.1359 100.237 66.4045C100.337 66.6731 102.732 64.7942 102.907 65.3846C103.004 65.7064 100.735 67.0007 101.03 67.2621C101.324 67.5235 103.219 66.8082 103.294 67.1874C103.368 67.5666 101.617 67.5709 100.883 68.3366C100.149 69.1022 99.2142 69.2559 98.4097 70.8217C97.6053 72.3874 95.4248 78.2511 92.8334 80.7606C90.242 83.2701 84.532 88.8293 84.532 88.8293L81.0586 86.0842Z" fill="#F79C8D"/>
<path d="M75.6833 116.424C75.6833 116.424 83.2449 132.593 83.2966 135.436C83.3368 137.878 81.975 151.543 82.3542 162.927C82.3686 163.338 82.8886 163.885 83.6471 164.231C84.078 164.427 86.1322 165.347 86.1322 165.347L86.4195 166.084L79.3219 165.579L79.2213 163.642C79.2213 163.642 76.3986 146.611 76.6859 141.795C76.7319 141.038 77.0996 136.509 77.0996 136.509L68.5713 120.044L73.9351 112.997L75.6833 116.424Z" fill="#F7A491"/>
<path d="M82.6968 91.5056C83.2254 90.3564 85.9116 87.88 86.4072 87.2249C86.4072 87.2249 85.0167 83.8981 83.2153 83.6208C83.2153 83.6208 79.7922 86.8558 78.4233 86.6173C77.0543 86.3789 72.3096 85.28 71.3486 85.55C70.3876 85.8201 65.416 90.2071 65.416 90.2071C65.416 90.2071 67.6612 94.2723 68.9224 94.6199C68.9224 94.6199 69.9596 93.4865 70.3058 93.2725C70.3259 93.9376 69.9222 103.328 69.3232 105.474L70.0415 106.373C70.5406 107.077 71.1777 107.672 71.914 108.122C72.6503 108.572 73.4704 108.867 74.3245 108.99C75.1785 109.113 76.0486 109.061 76.8819 108.837C77.7152 108.613 78.4943 108.222 79.1717 107.687C79.5498 105.761 80.0395 103.858 80.6383 101.989C82.0374 97.7902 83.5285 95.7662 82.6968 91.5056Z" fill="#FF6900"/>
<path d="M85.1124 131.224L79.1683 107.687C78.2096 107.82 77.24 107.858 76.2738 107.799C74.1191 107.626 71.3812 106.117 69.3227 105.474C69.3042 105.542 69.2816 105.608 69.2552 105.673C68.537 107.311 65.8077 109.431 63.653 115.433C60.9725 122.902 59.6869 131.234 59.6797 131.952C69.5037 133.436 81.629 133.307 85.1124 131.224Z" fill="white"/>
<path d="M76.9658 82.5031C76.9658 82.5031 76.7172 85.3516 76.3193 86.3916C75.9214 87.4316 75.4503 91.0099 77.6122 91.6247C79.7741 92.2395 79.2397 87.3613 79.3259 86.2566C79.4121 85.152 80.2639 81.8983 80.2639 81.8983L76.9658 82.5031Z" fill="#F7A491"/>
<path d="M79.8652 83.5374C80.0778 82.641 80.2718 81.8983 80.2718 81.8983L76.9679 82.5031C76.9679 82.5031 76.9176 83.0777 76.8242 83.8189C78.0294 84.4409 79.0838 84.2053 79.8652 83.5374Z" fill="#F47458"/>
<path d="M77.9778 74.7361C77.1067 75.011 76.3614 75.5862 75.8748 76.3593C75.0746 77.6521 74.5345 81.4071 77.1906 83.0863C79.8466 84.7655 81.9008 82.2431 81.9309 79.8327C81.9611 77.4223 81.4425 74.2189 77.9778 74.7361Z" fill="#F7A491"/>
<path d="M82.5299 79.0641C82.3058 79.6502 81.8591 80.0222 81.5244 79.8944C81.1897 79.7665 81.1121 79.1862 81.3362 78.6015C81.5603 78.0169 82.0085 77.642 82.3417 77.7698C82.675 77.8977 82.754 78.4708 82.5299 79.0641Z" fill="#F7A491"/>
<path d="M75.8427 79.7107C76.0381 80.3313 75.8643 80.9532 75.4549 81.0983C75.0455 81.2434 74.5585 80.8556 74.3632 80.2364C74.1678 79.6173 74.3431 78.9939 74.751 78.8488C75.159 78.7037 75.6488 79.0887 75.8427 79.7107Z" fill="#F7A491"/>
<path d="M79.298 166.929H88.2558C88.5877 166.899 88.6681 166.632 88.5532 166.466C88.3176 166.127 87.2719 165.877 86.0968 165.337C84.0369 165.551 79.5494 164.144 79.2247 163.671C79.0351 164.618 79.1127 166.889 79.298 166.929Z" fill="#355389"/>
<path d="M77.8525 80.913L79.8636 80.8814C79.8636 80.8814 79.8291 81.6571 78.9471 81.6973C77.8683 81.7462 77.8525 80.913 77.8525 80.913Z" fill="white"/>
<path d="M126.12 59.0815H123.718V76.516H126.12V59.0815Z" fill="#E3AA5B"/>
<path d="M126.111 59.0815H124.919V76.516H126.111V59.0815Z" fill="#F0BB73"/>
<path d="M124.919 8.68558L135.144 29.4024L158.005 32.7235L141.461 48.8494L145.367 71.6174L124.919 60.8683L104.471 71.6174L108.376 48.8494L91.834 32.7235L114.695 29.4024L124.919 8.68558Z" fill="#FFBF66"/>
<g style="mix-blend-mode:screen">
<path d="M124.919 8.68582V40.1518L135.144 29.4026L124.919 8.68582Z" fill="#4F4F4F"/>
<path d="M158.005 32.7238L124.919 40.1518L141.461 48.8496L158.005 32.7238Z" fill="#4F4F4F"/>
<path d="M124.919 40.1518L114.695 29.4026L91.834 32.7238L124.919 40.1518Z" fill="#4F4F4F"/>
<path d="M104.471 71.6178L124.919 40.1519L108.376 48.8497L104.471 71.6178Z" fill="#4F4F4F"/>
<path d="M145.367 71.6178L124.919 40.1519V60.8687L145.367 71.6178Z" fill="#4F4F4F"/>
</g>
<path d="M142.997 83.7297H106.841V99.4577H142.997V83.7297Z" fill="#BD6B4F"/>
<g style="mix-blend-mode:multiply">
<path d="M142.997 97.7398H106.841V99.4579H142.997V97.7398Z" fill="#CDD6E0"/>
</g>
<g style="mix-blend-mode:multiply">
<path d="M142.997 83.2888H106.841V85.0069H142.997V83.2888Z" fill="#CDD6E0"/>
</g>
<path d="M134.052 78.5886H129.558C128.13 76.6149 126.168 75.1569 124.918 75.1569C123.404 75.1569 121.548 76.5531 120.202 78.5886H115.791C115.613 78.5886 115.436 78.6237 115.272 78.692C115.107 78.7602 114.957 78.8602 114.831 78.9862C114.705 79.1123 114.605 79.2619 114.537 79.4266C114.469 79.5913 114.434 79.7678 114.434 79.9461V83.1767H135.406V79.9461C135.406 79.5866 135.263 79.2417 135.01 78.9872C134.756 78.7327 134.411 78.5894 134.052 78.5886Z" fill="#FFBF66"/>
<path d="M143.648 84.3174H106.184C105.727 84.3174 105.288 84.1358 104.965 83.8125C104.642 83.4892 104.46 83.0508 104.46 82.5936C104.46 82.1364 104.642 81.698 104.965 81.3747C105.288 81.0515 105.727 80.8698 106.184 80.8698H143.644C144.101 80.8698 144.54 81.0515 144.863 81.3747C145.186 81.698 145.368 82.1364 145.368 82.5936C145.368 83.05 145.187 83.4878 144.864 83.811C144.542 84.1341 144.105 84.3162 143.648 84.3174Z" fill="#BD6B4F"/>
<path d="M143.648 102.351H106.184C105.727 102.351 105.288 102.169 104.965 101.846C104.642 101.523 104.46 101.084 104.46 100.627C104.46 100.17 104.642 99.7314 104.965 99.4081C105.288 99.0849 105.727 98.9033 106.184 98.9033H143.644C144.101 98.9033 144.54 99.0849 144.863 99.4081C145.186 99.7314 145.368 100.17 145.368 100.627C145.368 101.083 145.187 101.521 144.864 101.844C144.542 102.168 144.105 102.35 143.648 102.351Z" fill="#BD6B4F"/>
<path d="M152.661 158.283C154.816 156.896 158.992 158.388 159.556 164.451C160.152 170.771 162.573 174.012 164.512 175.592C161.112 181.984 152.687 182.191 151.835 181.338C142.544 172.012 149.494 157.134 152.661 158.283Z" fill="#153D4A"/>
<path d="M178.471 178.895C178.6 178.527 176.814 178.231 176.72 177.859C176.625 177.487 178.973 177.46 179.057 177.134C179.212 176.533 176.483 177.007 176.537 176.726C176.592 176.444 179.38 175.816 179.078 175.335C178.777 174.854 176.254 176.288 176.177 175.96C176.099 175.633 178.644 174.837 178.599 174.12C178.574 173.736 174.424 176.032 173.943 175.824C173.462 175.615 174.46 173.812 174.076 173.545C173.693 173.278 172.594 177.208 172.33 177.339C172.065 177.47 166.459 180.67 164.464 181.179C164.221 180.511 161.364 176.374 161.15 175.742C160.031 176.539 158.883 176.648 157.727 177.374C158.564 179.472 162.407 185.294 162.99 185.561C164.765 186.363 171.632 180.667 173.002 179.693C174.372 178.719 175.157 179.034 176.088 178.725C177.018 178.416 178.343 179.261 178.471 178.895Z" fill="#F7A491"/>
<path d="M150.008 190.105C149.906 190.148 151.357 192.018 152.771 193.341C153.911 194.771 154.98 196.464 155.348 198.31C155.908 201.117 155.442 214.985 155.922 215.979C160.105 220.068 163.133 230.331 163.984 233.462C164.149 234.072 164.485 234.623 164.95 235.051L164.765 238.589L162.687 240.502C162.687 240.502 163.149 237.619 162.225 235.475C162.225 235.475 151.693 219.53 151.068 218.306C149.875 214.835 145.525 197.046 145.525 197.046L144.52 192.958L150.008 190.105Z" fill="#F7A491"/>
<path d="M167.235 236.181C167.235 236.181 165.919 238.208 165.807 238.998C165.695 239.788 164.994 241.584 164.227 241.693C164.05 241.719 161.036 241.94 161.058 241.564C161.075 241.276 162.167 240.866 162.672 240.515C163.549 239.91 164.907 234.985 164.907 234.985C164.907 234.985 167.179 235.551 167.235 236.181Z" fill="#355389"/>
<path d="M149.566 168.446C149.566 168.446 145.159 160.519 144.087 158.834C143.015 157.149 140.222 150.454 140.121 150.19C140.02 149.925 142.044 146.757 141.593 146.649C141.142 146.541 140.641 148.319 140.157 148.107C139.673 147.894 138.268 143.611 137.994 143.823C137.479 144.221 138.752 146.481 138.478 146.623C138.203 146.765 137.374 144.138 136.836 144.214C136.297 144.29 137.859 146.623 137.709 146.83C137.56 147.037 135.938 144.839 135.645 145.307C135.485 145.561 137.135 147.225 136.819 147.38C136.503 147.535 135.034 146.462 134.879 146.772C134.724 147.083 136.235 147.505 136.688 148.34C137.14 149.174 137.91 149.535 138.229 151.08C138.548 152.626 139.028 158.22 140.671 161.009C142.314 163.799 145.911 169.976 145.911 169.976L149.566 168.446Z" fill="#F7A491"/>
<path d="M141.007 196.252C141.007 196.252 134.224 210.76 134.181 213.304C134.144 215.49 135.366 227.753 135.026 237.967C135.013 238.335 134.546 238.829 133.866 239.136C133.484 239.311 131.637 240.142 131.637 240.142L131.383 240.802L137.745 240.348L137.835 238.612C137.835 238.612 140.367 223.335 140.109 219.014C140.068 218.336 139.739 214.274 139.739 214.274L147.388 199.504L142.577 193.183L141.007 196.252Z" fill="#F7A491"/>
<path d="M146.854 172.735C146.672 171.62 144.945 168.831 144.673 168.138C144.673 168.138 146.673 165.596 148.298 165.788C148.298 165.788 150.48 169.407 151.721 169.523C152.962 169.639 157.323 169.833 158.091 170.297C158.86 170.761 162.102 175.746 162.102 175.746C162.102 175.746 159.19 178.737 158.011 178.737C158.011 178.737 157.388 177.508 157.139 177.24C156.962 177.814 158.63 193.624 159.133 213.677C159.133 213.677 142.398 214.884 132.486 207.343C135.479 198.006 145.113 176.219 146.854 172.735Z" fill="#00A2AF"/>
<path d="M153.966 166.328C153.966 166.328 153.497 168.851 153.591 169.845C153.684 170.839 153.235 174.047 151.212 174.057C149.189 174.067 150.828 169.981 151.02 169.006C151.211 168.031 151.254 165.014 151.254 165.014L153.966 166.328Z" fill="#F7A491"/>
<path d="M151.212 166.527C151.244 165.701 151.254 165.013 151.254 165.013L153.966 166.327C153.966 166.327 153.869 166.843 153.773 167.501C152.582 167.751 151.72 167.292 151.212 166.527Z" fill="#F47458"/>
<path d="M154.957 159.369C155.643 159.818 156.149 160.495 156.383 161.281C156.765 162.589 156.331 165.965 153.632 166.78C150.933 167.594 149.764 164.921 150.32 162.832C150.876 160.744 152.085 158.095 154.957 159.369Z" fill="#F7A491"/>
<path d="M149.982 162.022C150.035 162.582 150.332 163.012 150.645 162.98C150.959 162.949 151.171 162.467 151.118 161.906C151.065 161.344 150.769 160.915 150.454 160.948C150.14 160.981 149.929 161.46 149.982 162.022Z" fill="#F7A491"/>
<path d="M155.606 164.185C155.29 164.675 155.29 165.254 155.606 165.478C155.922 165.702 156.439 165.478 156.755 164.994C157.071 164.51 157.071 163.925 156.755 163.701C156.439 163.477 155.924 163.694 155.606 164.185Z" fill="#F7A491"/>
<path d="M137.766 241.555H129.729C129.431 241.529 129.36 241.289 129.462 241.141C129.674 240.837 130.611 240.613 131.665 240.136C133.514 240.328 137.539 239.064 137.831 238.641C137.999 239.482 137.93 241.519 137.766 241.555Z" fill="#355389"/>
<path d="M153.588 164.743L151.864 164.235C151.864 164.235 151.708 164.913 152.46 165.159C153.368 165.459 153.588 164.743 153.588 164.743Z" fill="white"/>
<path d="M219.821 179.836C219.763 180.059 219.675 180.274 219.558 180.473C218.799 181.854 217.038 183.825 217.038 183.825L215.678 180.758C215.678 180.758 215.899 179.794 216.284 178.418C217.6 178.761 218.851 178.959 219.821 179.836Z" fill="#F8A492"/>
<path d="M212.017 177.175C212.017 177.175 219.608 180.445 219.854 180.383C220.012 180.343 222.968 175.394 223 170.74C223.016 168.585 220.783 166 218.293 166.517C217.039 166.774 217.059 167.123 215.203 169.821C213.347 172.518 212.017 177.175 212.017 177.175Z" fill="#D65800"/>
<path d="M205.533 235.798C205.533 235.798 205.714 238.78 205.714 238.787C205.782 239.165 206.042 240.1 206.042 240.445C206.042 241.737 199.902 239.347 201.278 238.774C201.403 238.722 202.055 238.33 202.096 237.889C202.159 237.211 202.32 235.839 202.32 235.839L205.533 235.798Z" fill="#F7A491"/>
<path d="M201.293 238.761C201.293 238.761 202.729 239.158 203.473 239.255C204.217 239.353 205.184 238.523 205.707 238.747C206.281 238.995 206.258 241.223 206.258 241.223C206.258 241.223 198.529 241.857 196.355 241.202C195.494 240.936 198.346 239.683 201.293 238.761Z" fill="#3C8F7C"/>
<path d="M218.094 235.798C218.094 235.798 218.274 238.78 218.275 238.787C218.341 239.165 218.602 240.1 218.602 240.445C218.602 241.737 212.462 239.347 213.838 238.774C213.963 238.722 214.809 238.037 214.843 237.596C214.906 236.918 214.872 235.839 214.872 235.839L218.094 235.798Z" fill="#F7A491"/>
<path d="M213.854 238.761C213.854 238.761 215.29 239.158 216.033 239.255C216.775 239.353 217.745 238.523 218.268 238.747C218.842 238.995 218.865 241.223 218.865 241.223C218.865 241.223 211.1 241.962 208.915 241.202C208.067 240.906 210.903 239.683 213.854 238.761Z" fill="#3C8F7C"/>
<path d="M217.524 161.651L218.221 166.054C218.221 166.054 215.567 168.183 214.022 167.735C212.729 167.357 213.614 165.661 213.614 165.661C213.614 165.661 214.305 163.31 214.094 162.079C213.882 160.848 217.524 161.651 217.524 161.651Z" fill="#F7A491"/>
<path d="M217.024 162.982C216.069 163.407 215.058 163.692 214.021 163.828C214.121 163.213 214.175 162.561 214.093 162.079C213.994 161.505 214.718 161.376 215.53 161.396C216.587 161.486 217.528 161.651 217.528 161.651L217.662 162.497C217.481 162.697 217.265 162.861 217.024 162.982Z" fill="#FE875E"/>
<path d="M220.871 156.573C220.981 156.573 219.824 161.492 218.031 162.338C216.238 163.184 213.566 162.743 213.065 161.419C212.51 159.953 214.533 154.936 217.054 154.298C219.575 153.66 220.871 156.573 220.871 156.573Z" fill="#F7A491"/>
<path d="M218.803 152.054C219.815 152.645 220.618 153.536 221.102 154.604C221.772 154.923 222.586 155.609 222.969 157.477C223.449 159.761 221.742 161.522 219.934 162.052C218.125 162.582 217.847 163.776 217.847 163.776L217.641 162.483C217.641 162.483 218.043 161.363 218.647 160.801C219.25 160.239 218.359 159.422 218.282 158.754C218.222 158.241 218.601 157.243 218.519 156.401C218.519 156.401 217.513 154.877 216.522 154.5C214.849 153.863 216.96 150.995 218.803 152.054Z" fill="#13375B"/>
<path d="M218.036 159.613C217.802 160.187 217.892 160.745 218.248 160.873C218.605 161.001 219.077 160.644 219.311 160.075C219.546 159.507 219.455 158.943 219.097 158.816C218.74 158.688 218.27 159.045 218.036 159.613Z" fill="#F7A491"/>
<path d="M211.361 181.61L200.93 179.909C200.93 179.909 202.116 176.921 202.541 176.921C202.967 176.921 210.428 180.179 210.428 180.179L211.022 181.371L211.361 181.61Z" fill="#F8A492"/>
<path d="M216.704 188.762C216.704 188.762 217.745 193.79 217.32 197.606C216.895 201.423 216.863 214.969 216.863 214.969L218.481 236.648L214.642 236.733C214.642 236.733 210.089 215.064 210.173 215.617C210.258 216.17 208.646 200.36 208.646 200.36L214.075 188.282L216.704 188.762Z" fill="#E8E8E8"/>
<path d="M215.687 188.523C215.687 188.523 216.365 193.053 215.517 195.039C214.669 197.026 208.243 216.517 208.158 218.106C208.073 219.695 205.936 237.261 205.936 237.261L201.471 237.137L200.506 217.6L202.528 193.054L204.492 186.848L215.687 188.523Z" fill="white"/>
<path d="M218.22 166.054C218.22 166.054 217.118 166.772 216.093 166.692C215.067 166.612 213.613 165.661 213.613 165.661L213.816 164.977C213.816 164.977 216.472 164.59 216.545 164.632C216.618 164.674 218.22 166.054 218.22 166.054Z" fill="#F7A491"/>
<path d="M206.486 176.773C206.486 176.773 202.541 180.496 200.76 179.861C198.979 179.227 198.242 177.053 202.587 173.873C206.476 171.029 206.486 176.773 206.486 176.773Z" fill="#F8A492"/>
<path d="M203.813 181.371C204.399 178.182 208.647 168.259 208.984 166.432C209.148 165.543 211.439 165.524 213.623 165.639C215.921 165.763 218.219 166.054 218.219 166.054C218.219 166.054 220.259 166.389 221.158 167.231C222.058 168.072 222.295 170.391 221.003 174.815C219.985 178.301 218.722 180.216 218.096 182.756C217.969 183.608 217.862 184.448 217.718 185.431C217.488 189.227 217.718 194.245 217.718 194.245C217.718 194.245 206.61 196.543 202.454 193.053C202.457 193.053 203.213 184.638 203.813 181.371Z" fill="#FF6900"/>
<path d="M200.979 174.515C200.979 174.515 205.339 178.113 205.593 178.113C205.757 178.113 211.815 173.66 213.207 169.997C213.98 167.973 212.358 165.709 210.506 165.717C209.223 165.717 208.653 166.053 206.108 168.199C203.562 170.345 200.979 174.515 200.979 174.515Z" fill="#D65800"/>
<path d="M213.375 159.291L215.011 160.187C215.011 160.187 214.58 160.876 213.85 160.505C212.957 160.052 213.375 159.291 213.375 159.291Z" fill="white"/>
</svg>
