<svg width="16" height="18" viewBox="0 0 16 18" fill="none" xmlns="http://www.w3.org/2000/svg">
<path fill-rule="evenodd" clip-rule="evenodd" d="M9.95388 0.0103158C9.91558 0.00353654 9.87616 0 9.83592 0C9.79567 0 9.75626 0.00353654 9.71796 0.0103158H4.1085C1.87921 0.0103158 0 1.81883 0 4.0247V13.6264C0 15.9572 1.79666 17.8039 4.1085 17.8039H11.2688C13.4676 17.8039 15.2832 15.8663 15.2832 13.6264V5.41123C15.2832 5.2377 15.2161 5.07089 15.0959 4.94571L10.5563 0.216994C10.4295 0.0849552 10.2544 0.0103158 10.0714 0.0103158H9.95388ZM9.16372 1.35415L4.10844 1.35487C2.61036 1.35487 1.34435 2.57326 1.34435 4.02486V13.6266C1.34435 15.223 2.54748 16.4597 4.10844 16.4597H11.2687C12.7048 16.4597 13.9387 15.1428 13.9387 13.6266L13.9381 6.25872L13.1535 6.2614C12.8545 6.26103 12.5143 6.2604 12.1361 6.25954C10.5501 6.25619 9.2558 5.01309 9.16842 3.44829L9.16372 3.27945V1.35415ZM13.2025 4.91499L12.1391 4.91514C11.2379 4.91324 10.5081 4.1815 10.5081 3.27945V2.10846L13.2025 4.91499ZM9.66553 11.4791C10.0368 11.4791 10.3377 11.78 10.3377 12.1513C10.3377 12.4916 10.0848 12.7728 9.75675 12.8173L9.66553 12.8235H4.82837C4.45712 12.8235 4.15617 12.5225 4.15617 12.1513C4.15617 11.811 4.40905 11.5297 4.73715 11.4852L4.82837 11.4791H9.66553ZM8.50801 7.71284C8.50801 7.34159 8.20706 7.04064 7.83581 7.04064H4.82793L4.73672 7.04677C4.40861 7.09129 4.15573 7.37253 4.15573 7.71284C4.15573 8.08409 4.45668 8.38504 4.82793 8.38504H7.83581L7.92702 8.37891C8.25512 8.33439 8.50801 8.05315 8.50801 7.71284Z" fill="#2D2D2D"/>
</svg>
