<svg width="48" height="48" viewBox="0 0 48 48" fill="none" xmlns="http://www.w3.org/2000/svg">
<g clip-path="url(#clip0)">
<path d="M12.9803 27.986L10.7528 25.7584C10.5452 25.5525 10.3828 25.3054 10.2762 25.0331C10.1696 24.7608 10.121 24.4692 10.1336 24.177C10.1461 23.8848 10.2196 23.5985 10.3493 23.3363C10.4789 23.0742 10.6619 22.842 10.8864 22.6547C13.4196 20.6181 16.3951 19.2041 19.5739 18.5263C22.508 17.8722 25.5501 17.8722 28.4842 18.5263C31.6761 19.2085 34.6625 20.633 37.2014 22.6844C37.4253 22.8712 37.6078 23.1025 37.7374 23.3637C37.867 23.6249 37.9407 23.9102 37.954 24.2015C37.9673 24.4927 37.9198 24.7836 37.8145 25.0554C37.7092 25.3273 37.5484 25.5743 37.3425 25.7807L35.1149 28.0083C34.7581 28.3721 34.2811 28.5939 33.7729 28.6321C33.2647 28.6704 32.76 28.5225 32.3527 28.2162C31.5458 27.5973 30.6715 27.0717 29.7465 26.6494C29.3808 26.4836 29.0703 26.2164 28.8519 25.8795C28.6334 25.5426 28.5161 25.1501 28.5139 24.7486V22.8626C25.5979 22.0607 22.5196 22.0607 19.6036 22.8626L19.6036 24.7486C19.6014 25.1501 19.4841 25.5426 19.2656 25.8795C19.0472 26.2164 18.7367 26.4836 18.3711 26.6494C17.446 27.0717 16.5717 27.5973 15.7648 28.2162C15.3532 28.526 14.8421 28.6737 14.3287 28.6313C13.8154 28.5888 13.3355 28.3592 12.9803 27.986Z" fill="white"/>
</g>
<defs>
<clipPath id="clip0">
<rect width="33.49" height="33.49" fill="white" transform="translate(47.7446 24.1914) rotate(135)"/>
</clipPath>
</defs>
</svg>
