<svg width="27" height="28" viewBox="0 0 27 28" fill="none" xmlns="http://www.w3.org/2000/svg">
<path d="M24.7554 21.2782V25.0053C24.7568 25.3513 24.6858 25.6938 24.5469 26.0108C24.408 26.3278 24.2043 26.6124 23.9489 26.8463C23.6935 27.0802 23.3919 27.2583 23.0635 27.3691C22.7351 27.48 22.3871 27.5211 22.0419 27.49C18.2116 27.0746 14.5324 25.7683 11.2998 23.676C8.29234 21.7685 5.74252 19.2236 3.83143 16.2218C1.72781 12.9808 0.418678 9.29075 0.0101031 5.45064C-0.0210021 5.10709 0.0199053 4.76083 0.13022 4.43393C0.240535 4.10702 0.417841 3.80662 0.650849 3.55185C0.883857 3.29708 1.16746 3.09353 1.48361 2.95416C1.79975 2.81478 2.14151 2.74263 2.48712 2.74231H6.22132C6.8254 2.73637 7.41102 2.94988 7.86905 3.34303C8.32707 3.73617 8.62624 4.28214 8.71078 4.87916C8.8684 6.0719 9.16069 7.24302 9.5821 8.37017C9.74957 8.81484 9.78581 9.2981 9.68654 9.7627C9.58727 10.2273 9.35663 10.6538 9.02197 10.9915L7.44116 12.5693C9.2131 15.6796 11.7933 18.2549 14.9096 20.0234L16.4904 18.4457C16.8288 18.1116 17.2561 17.8814 17.7216 17.7824C18.187 17.6833 18.6712 17.7194 19.1167 17.8866C20.2461 18.3072 21.4194 18.5989 22.6145 18.7562C23.2191 18.8414 23.7713 19.1454 24.166 19.6104C24.5608 20.0754 24.7705 20.6689 24.7554 21.2782Z" fill="white"/>
<path d="M16.1045 6.46941C17.3203 6.70616 18.4376 7.29963 19.3135 8.17384C20.1894 9.04806 20.784 10.1633 21.0212 11.3767M16.1045 1.5C18.6304 1.78007 20.9858 2.90905 22.784 4.70155C24.5822 6.49406 25.7163 8.84356 26.0001 11.3643" stroke="white" stroke-width="2" stroke-linecap="round" stroke-linejoin="round"/>
</svg>
