<svg width="21" height="21" viewBox="0 0 21 21" fill="none" xmlns="http://www.w3.org/2000/svg">
<path d="M20.3886 3.73258C20.3873 3.73258 20.386 3.73242 20.3848 3.73242H14.8066V3.11719C14.8066 2.09949 13.9786 1.27148 12.9609 1.27148H8.03906C7.02136 1.27148 6.19336 2.09949 6.19336 3.11719V3.73242H0.615234C0.27269 3.73242 0 4.01312 0 4.34766V17.8828C0 18.9005 0.828003 19.7285 1.8457 19.7285H19.1543C20.172 19.7285 21 18.9005 21 17.8828V4.36063C21 4.35983 21 4.35903 21 4.35823C20.9764 3.95416 20.728 3.73483 20.3886 3.73258ZM7.42383 3.11719C7.42383 2.77801 7.69988 2.50195 8.03906 2.50195H12.9609C13.3001 2.50195 13.5762 2.77801 13.5762 3.11719V3.73242H7.42383V3.11719ZM19.5311 4.96289L17.6205 10.6945C17.5367 10.9462 17.3022 11.1152 17.037 11.1152H13.5762V10.5C13.5762 10.1602 13.3008 9.88477 12.9609 9.88477H8.03906C7.69924 9.88477 7.42383 10.1602 7.42383 10.5V11.1152H3.96297C3.69781 11.1152 3.46326 10.9462 3.37946 10.6945L1.46887 4.96289H19.5311ZM12.3457 11.1152V12.3457H8.6543V11.1152H12.3457ZM19.7695 17.8828C19.7695 18.222 19.4935 18.498 19.1543 18.498H1.8457C1.50652 18.498 1.23047 18.222 1.23047 17.8828V8.13888L2.21212 11.0837C2.46366 11.8386 3.16734 12.3457 3.96297 12.3457H7.42383V12.9609C7.42383 13.3008 7.69924 13.5762 8.03906 13.5762H12.9609C13.3008 13.5762 13.5762 13.3008 13.5762 12.9609V12.3457H17.037C17.8327 12.3457 18.5363 11.8386 18.7879 11.0837L19.7695 8.13888V17.8828Z" fill="black"/>
</svg>
