<svg width="18" height="18" viewBox="0 0 18 18" fill="none" xmlns="http://www.w3.org/2000/svg">
<path d="M8.99995 3.75C8.58522 3.75 8.25 4.08591 8.25 4.49995V8.99995C8.25 9.414 8.58522 9.74991 8.99995 9.74991H13.5C13.9147 9.74991 14.2499 9.414 14.2499 8.99995C14.2499 8.58591 13.9147 8.25 13.5 8.25H9.74991V4.49995C9.74991 4.08591 9.41469 3.75 8.99995 3.75Z" fill="black"/>
<path d="M9 0C6.61501 0 4.30499 0.952515 2.58907 2.5432L0.960068 0.915024C0.798706 0.753799 0.557281 0.705734 0.347305 0.792801C0.137192 0.87973 0 1.08531 0 1.31245V6.1875C0 6.498 0.251999 6.75 0.5625 6.75H5.43755C5.66551 6.75 5.87027 6.61281 5.9572 6.40269C6.04427 6.19272 5.9962 5.95047 5.83498 5.78993L3.65625 3.61052C5.09244 2.29504 7.01175 1.50005 9 1.50005C13.1355 1.50005 16.5 4.86447 16.5 9C16.5 13.1355 13.1355 16.5 9 16.5C6.99445 16.5 5.11276 15.7186 3.70198 14.301C3.40947 14.007 2.93404 14.0062 2.64153 14.2987C2.3475 14.5912 2.34599 15.066 2.6385 15.36C4.33356 17.0625 6.59248 18 9 18C13.9628 18 18 13.9628 18 9C18 4.0372 13.9628 0 9 0Z" fill="black"/>
</svg>
