<svg width="37" height="37" viewBox="0 0 37 37" fill="none" xmlns="http://www.w3.org/2000/svg">
<path d="M18.495 0.00136392C28.4144 -0.121536 37.0643 8.07608 36.9996 18.6136C36.9374 28.8303 28.5613 37.1333 18.2435 36.9984C8.2643 36.8683 -0.017537 28.7449 2.78886e-05 18.4636C0.0175928 7.90769 8.69384 -0.11595 18.495 0.00136392ZM6.80801 16.7813C6.80801 18.1906 6.80722 19.6 6.80881 21.0094C6.80881 21.3948 6.83197 21.7763 6.88306 22.1609C7.32299 25.4561 10.2978 28.0817 13.6208 28.0889C15.3757 28.0929 16.9366 27.5494 18.2675 26.397C18.5086 26.1887 18.6419 26.1408 18.923 26.3906C20.3753 27.6819 22.0679 28.2405 24.0264 28.0394C27.3517 27.6979 30.1166 24.8041 30.1733 21.4746C30.218 18.8027 30.1916 16.1293 30.1789 13.4566C30.1733 12.3552 29.315 11.5436 28.2012 11.5388C27.4164 11.5356 26.6308 11.5556 25.8467 11.5301C25.5042 11.5189 25.398 11.5995 25.3996 11.9634C25.4164 14.9154 25.4068 17.8674 25.4124 20.8186C25.4132 21.1402 25.3901 21.4595 25.323 21.7691C25.1809 22.4283 24.8942 22.9957 24.2364 23.2982C22.8751 23.9239 21.335 23.1769 20.9853 21.7236C20.9126 21.4219 20.9038 21.1195 20.903 20.8138C20.9022 18.434 20.9054 16.0534 20.9014 13.6736C20.899 12.3425 20.0918 11.542 18.7593 11.538C18.0144 11.5356 17.2687 11.5564 16.5246 11.5293C16.1733 11.5165 16.0775 11.6147 16.0791 11.9698C16.0942 14.9346 16.0863 17.9001 16.0887 20.8649C16.0887 21.1849 16.0743 21.5018 15.9928 21.813C15.7134 22.892 14.8208 23.5304 13.6368 23.4961C12.5845 23.465 11.8795 22.8505 11.6727 21.7555C11.6112 21.4315 11.5857 21.0955 11.5841 20.7652C11.5769 18.3455 11.5817 15.9249 11.5793 13.5052C11.5785 12.3983 10.7202 11.5436 9.60722 11.538C8.79604 11.5341 7.98406 11.5516 7.17289 11.5301C6.8655 11.5221 6.79683 11.6226 6.79923 11.9131C6.8152 13.5364 6.80801 15.1588 6.80801 16.7813Z" fill="#0097A1"/>
</svg>
